<svg width="937" height="890" viewBox="0 0 937 890" fill="none" xmlns="http://www.w3.org/2000/svg">
<path fill-rule="evenodd" clip-rule="evenodd" d="M871.005 413.242C862.295 646.587 741.968 773.832 623.072 846.371L619.942 841.241C737.534 769.498 856.382 643.906 864.999 413.018L871.005 413.242Z" fill="#E9ECE0" fill-opacity="0.33"/>
<path fill-rule="evenodd" clip-rule="evenodd" d="M857.031 510.43C857.04 511.772 899.407 483.019 911.483 449.304L857.031 510.43Z" fill="#E9ECE0" fill-opacity="0.33"/>
<path fill-rule="evenodd" clip-rule="evenodd" d="M854.651 512.279C854.172 511.65 854.031 510.969 854.028 510.451L860.037 510.411C860.034 509.914 859.898 509.25 859.43 508.635C858.968 508.03 858.385 507.736 857.954 507.603C857.251 507.384 856.677 507.501 856.577 507.521L856.569 507.523C856.406 507.555 856.287 507.596 856.236 507.616C856.241 507.614 856.246 507.612 856.251 507.609C856.405 507.538 856.749 507.354 857.311 507.01C858.403 506.342 860.035 505.247 862.076 503.76C866.148 500.792 871.73 496.345 877.689 490.813C889.678 479.683 902.862 464.465 908.655 448.292L914.312 450.318C908.029 467.861 893.992 483.877 881.777 495.217C875.634 500.92 869.867 505.517 865.616 508.616C863.495 510.162 861.722 511.356 860.447 512.136C859.827 512.515 859.248 512.844 858.774 513.063C858.582 513.152 858.192 513.327 857.741 513.416L857.737 513.417C857.576 513.449 856.932 513.577 856.173 513.342C855.722 513.202 855.123 512.897 854.651 512.279ZM856.209 507.628C856.209 507.627 856.218 507.623 856.236 507.616C856.217 507.625 856.209 507.628 856.209 507.628Z" fill="#E9ECE0" fill-opacity="0.33"/>
<path fill-rule="evenodd" clip-rule="evenodd" d="M910.498 451.884C912.653 451.96 935.807 449.415 931.133 415.284L910.498 451.884Z" fill="#E9ECE0" fill-opacity="0.33"/>
<path fill-rule="evenodd" clip-rule="evenodd" d="M915.894 452.907C913.325 453.721 911.242 453.915 910.428 453.887L910.568 449.883C910.832 449.892 912.452 449.796 914.684 449.088C916.877 448.393 919.56 447.137 922.042 444.919C926.902 440.574 931.419 432.134 929.149 415.557L933.118 415.013C935.521 432.566 930.798 442.464 924.712 447.905C921.719 450.58 918.502 452.08 915.894 452.907Z" fill="#E9ECE0" fill-opacity="0.33"/>
<path fill-rule="evenodd" clip-rule="evenodd" d="M870.3 416.28C869.865 417.714 867.449 433.721 891.209 436.662L870.3 416.28Z" fill="#E9ECE0" fill-opacity="0.33"/>
<path fill-rule="evenodd" clip-rule="evenodd" d="M869.53 419.681C869.444 417.887 869.68 416.557 869.809 416.131L870.792 416.429C870.704 416.72 870.475 417.929 870.556 419.632C870.637 421.324 871.024 423.477 872.14 425.673C874.356 430.034 879.518 434.698 891.273 436.153L891.147 437.172C879.142 435.686 873.632 430.876 871.225 426.139C870.029 423.786 869.617 421.485 869.53 419.681Z" fill="#E9ECE0" fill-opacity="0.33"/>
<path fill-rule="evenodd" clip-rule="evenodd" d="M866.284 423.638C865.344 423.057 855.232 417.402 848.645 433.781L866.284 423.638Z" fill="#E9ECE0" fill-opacity="0.33"/>
<path fill-rule="evenodd" clip-rule="evenodd" d="M859.305 420.632C863.39 419.972 866.6 421.788 867.198 422.158L865.37 425.118C865.029 424.907 862.713 423.606 859.86 424.067C857.182 424.501 853.407 426.604 850.26 434.43L847.031 433.132C850.471 424.58 855.046 421.321 859.305 420.632Z" fill="#E9ECE0" fill-opacity="0.33"/>
<path fill-rule="evenodd" clip-rule="evenodd" d="M910.498 451.884C912.653 451.959 913.528 446.487 931.133 415.284L910.498 451.884Z" fill="#E9ECE0" fill-opacity="0.33"/>
<path fill-rule="evenodd" clip-rule="evenodd" d="M913.823 451.696C913.134 452.73 912.123 453.945 910.429 453.886L910.568 449.883C910.286 449.873 910.113 449.985 910.07 450.018C910.107 449.984 910.243 449.844 910.49 449.474C911.07 448.604 911.871 447.077 913.239 444.402C913.419 444.05 913.608 443.681 913.805 443.293C916.569 437.879 921.156 428.893 929.389 414.3L932.878 416.269C924.685 430.79 920.128 439.718 917.372 445.116C917.174 445.504 916.986 445.873 916.806 446.225C915.485 448.809 914.563 450.587 913.823 451.696ZM910.059 450.027C910.059 450.027 910.063 450.024 910.07 450.018C910.063 450.025 910.059 450.028 910.059 450.027Z" fill="#E9ECE0" fill-opacity="0.33"/>
<path fill-rule="evenodd" clip-rule="evenodd" d="M870.3 416.28C869.865 417.714 873.386 419.277 891.209 436.662L870.3 416.28Z" fill="#E9ECE0" fill-opacity="0.33"/>
<path fill-rule="evenodd" clip-rule="evenodd" d="M870.492 417.965C869.936 417.335 869.614 416.773 869.808 416.131L870.791 416.429C870.769 416.504 870.723 416.675 871.262 417.285C871.785 417.877 872.714 418.727 874.251 420.108C874.455 420.291 874.67 420.484 874.895 420.686C878.037 423.504 883.245 428.177 891.568 436.295L890.851 437.03C882.543 428.927 877.347 424.265 874.209 421.45C873.983 421.248 873.769 421.055 873.565 420.872C872.047 419.509 871.064 418.612 870.492 417.965Z" fill="#E9ECE0" fill-opacity="0.33"/>
<path fill-rule="evenodd" clip-rule="evenodd" d="M866.283 423.64C865.343 423.059 863.564 425.272 847.804 434.69L866.283 423.64Z" fill="#E9ECE0" fill-opacity="0.33"/>
<path fill-rule="evenodd" clip-rule="evenodd" d="M864.438 422.24C865.024 421.947 866.109 421.485 867.198 422.158L865.37 425.119C865.752 425.354 866.092 425.292 866.179 425.269C866.15 425.28 866.091 425.304 865.995 425.352C865.562 425.569 864.858 426.017 863.555 426.87C863.386 426.981 863.208 427.097 863.021 427.22C860.413 428.929 856.08 431.77 848.697 436.182L846.912 433.195C854.234 428.82 858.521 426.01 861.115 424.309C861.302 424.186 861.479 424.07 861.649 423.959C862.878 423.154 863.781 422.569 864.438 422.24ZM866.2 425.262C866.2 425.262 866.193 425.265 866.179 425.269C866.194 425.263 866.201 425.261 866.2 425.262Z" fill="#E9ECE0" fill-opacity="0.33"/>
<path fill-rule="evenodd" clip-rule="evenodd" d="M910.498 451.884C912.653 451.959 898.234 425.493 931.133 415.284L910.498 451.884Z" fill="#E9ECE0" fill-opacity="0.33"/>
<path fill-rule="evenodd" clip-rule="evenodd" d="M912.244 453.033C911.781 453.638 911.088 453.909 910.429 453.886L910.569 449.882C910.044 449.864 909.454 450.088 909.064 450.596C908.777 450.971 908.739 451.326 908.733 451.38L908.733 451.382C908.729 451.417 908.729 451.436 908.728 451.436C908.726 451.437 908.722 451.338 908.68 451.084C908.613 450.688 908.513 450.227 908.385 449.644C908.286 449.19 908.171 448.662 908.043 448.032C907.494 445.332 906.876 441.482 907.294 437.244C907.714 432.979 909.185 428.31 912.803 424.027C916.414 419.754 922.042 416.008 930.54 413.371L931.727 417.197C923.776 419.664 918.87 423.054 915.863 426.613C912.865 430.162 911.637 434.018 911.281 437.637C910.921 441.282 911.448 444.673 911.969 447.234C912.064 447.704 912.167 448.181 912.265 448.632C912.415 449.323 912.552 449.955 912.63 450.42C912.692 450.787 912.769 451.318 912.716 451.813C912.69 452.052 912.609 452.557 912.244 453.033Z" fill="#E9ECE0" fill-opacity="0.33"/>
<path fill-rule="evenodd" clip-rule="evenodd" d="M870.3 416.28C869.865 417.714 890.214 412.743 891.209 436.662L870.3 416.28Z" fill="#E9ECE0" fill-opacity="0.33"/>
<path fill-rule="evenodd" clip-rule="evenodd" d="M869.912 416.712C869.776 416.536 869.75 416.322 869.808 416.132L870.791 416.43C870.821 416.329 870.809 416.193 870.725 416.084C870.677 416.022 870.629 416.001 870.629 416.001C870.629 416.001 870.631 416.002 870.636 416.004C870.688 416.024 870.821 416.052 871.08 416.076C871.373 416.103 871.736 416.12 872.175 416.139C872.499 416.154 872.864 416.17 873.273 416.195C875.154 416.305 877.747 416.569 880.398 417.559C883.054 418.552 885.77 420.274 887.882 423.295C889.991 426.314 891.47 430.589 891.722 436.642L890.696 436.685C890.45 430.778 889.012 426.705 887.04 423.884C885.069 421.065 882.539 419.456 880.038 418.521C877.531 417.585 875.057 417.328 873.213 417.22C872.846 417.198 872.494 417.182 872.171 417.168C871.703 417.146 871.295 417.128 870.985 417.099C870.727 417.075 870.466 417.039 870.267 416.963C870.17 416.925 870.022 416.855 869.912 416.712Z" fill="#E9ECE0" fill-opacity="0.33"/>
<path fill-rule="evenodd" clip-rule="evenodd" d="M866.284 423.638C865.344 423.057 863.67 438.509 846.434 434.697L866.284 423.638Z" fill="#E9ECE0" fill-opacity="0.33"/>
<path fill-rule="evenodd" clip-rule="evenodd" d="M865.566 422.007C866.103 421.799 866.704 421.852 867.199 422.158L865.37 425.118C865.807 425.388 866.348 425.436 866.822 425.252C867.185 425.112 867.379 424.885 867.423 424.833C867.474 424.774 867.5 424.73 867.5 424.731C867.5 424.731 867.481 424.763 867.443 424.844C867.355 425.03 867.266 425.247 867.147 425.536C867.056 425.756 866.948 426.018 866.81 426.341C866.229 427.702 865.318 429.633 863.821 431.476C862.314 433.333 860.205 435.109 857.248 436.139C854.292 437.167 850.621 437.405 846.059 436.396L846.81 432.998C850.867 433.895 853.868 433.631 856.104 432.852C858.337 432.075 859.937 430.74 861.12 429.283C862.314 427.812 863.075 426.227 863.61 424.974C863.698 424.769 863.788 424.552 863.876 424.339C864.03 423.967 864.178 423.61 864.295 423.361C864.381 423.178 864.538 422.856 864.769 422.584C864.881 422.451 865.14 422.172 865.566 422.007Z" fill="#E9ECE0" fill-opacity="0.33"/>
<path fill-rule="evenodd" clip-rule="evenodd" d="M795.558 727.252C797.766 729.176 837.294 747.192 848.657 706.336L795.558 727.252Z" fill="#E9ECE0" fill-opacity="0.33"/>
<path fill-rule="evenodd" clip-rule="evenodd" d="M795.642 729.145C795.223 728.915 794.81 728.664 794.535 728.424L796.578 726.08C796.575 726.078 796.574 726.077 796.574 726.077C796.574 726.076 796.611 726.106 796.707 726.167C796.811 726.234 796.955 726.319 797.141 726.421C797.513 726.626 798.02 726.88 798.649 727.166C799.906 727.737 801.617 728.417 803.654 729.058C807.737 730.345 813.06 731.457 818.624 731.282C824.177 731.109 829.918 729.657 834.939 725.869C839.953 722.088 844.389 715.873 847.157 705.919L850.153 706.752C847.24 717.227 842.474 724.081 836.812 728.352C831.156 732.617 824.746 734.202 818.721 734.39C812.707 734.579 807.024 733.38 802.719 732.024C800.563 731.345 798.734 730.62 797.363 729.997C796.678 729.686 796.098 729.396 795.642 729.145Z" fill="#E9ECE0" fill-opacity="0.33"/>
<path fill-rule="evenodd" clip-rule="evenodd" d="M864.099 413.156C866.292 411.215 889.264 374.345 850.218 357.8L864.099 413.156Z" fill="#E9ECE0" fill-opacity="0.33"/>
<path fill-rule="evenodd" clip-rule="evenodd" d="M865.906 413.256C865.624 413.641 865.327 414.011 865.063 414.244L863.137 412.068C863.134 412.07 863.134 412.07 863.137 412.067C863.146 412.058 863.183 412.02 863.25 411.94C863.332 411.843 863.436 411.71 863.563 411.537C863.815 411.193 864.135 410.721 864.5 410.132C865.231 408.956 866.128 407.344 867.029 405.403C868.836 401.513 870.631 396.367 871.178 390.812C871.725 385.268 871.025 379.365 867.905 373.875C864.79 368.391 859.181 363.176 849.652 359.138L850.786 356.462C860.78 360.697 866.942 366.295 870.432 372.439C873.919 378.575 874.66 385.114 874.07 391.097C873.482 397.071 871.563 402.541 869.665 406.627C868.715 408.674 867.762 410.39 866.969 411.666C866.573 412.303 866.212 412.839 865.906 413.256Z" fill="#E9ECE0" fill-opacity="0.33"/>
<path fill-rule="evenodd" clip-rule="evenodd" d="M866.062 415.675C867.919 416.132 899.071 410.894 901.549 374.631L866.062 415.675Z" fill="#E9ECE0" fill-opacity="0.33"/>
<path fill-rule="evenodd" clip-rule="evenodd" d="M866.862 417.526C866.541 417.548 866.047 417.569 865.621 417.464L866.502 413.884C866.412 413.862 866.357 413.857 866.357 413.857C866.357 413.856 866.432 413.86 866.616 413.848C866.873 413.83 867.243 413.788 867.718 413.71C868.665 413.554 869.962 413.265 871.498 412.792C874.57 411.844 878.537 410.174 882.52 407.408C890.43 401.914 898.511 392.031 899.709 374.504L903.387 374.756C902.107 393.492 893.373 404.359 884.623 410.436C880.277 413.455 875.953 415.276 872.585 416.315C870.9 416.834 869.44 417.163 868.317 417.348C867.758 417.44 867.266 417.499 866.862 417.526Z" fill="#E9ECE0" fill-opacity="0.33"/>
<path fill-rule="evenodd" clip-rule="evenodd" d="M867.199 424.121C867.56 422.243 861.643 391.549 825.299 390.948L867.199 424.121Z" fill="#E9ECE0" fill-opacity="0.33"/>
<path fill-rule="evenodd" clip-rule="evenodd" d="M867.817 423.384C867.849 423.71 867.862 424.023 867.821 424.241L866.577 424.002C866.577 424.003 866.577 424.002 866.577 424.001C866.578 423.993 866.582 423.954 866.58 423.872C866.579 423.782 866.572 423.66 866.557 423.508C866.527 423.204 866.467 422.798 866.371 422.302C866.178 421.312 865.843 419.984 865.315 418.434C864.261 415.334 862.448 411.365 859.506 407.436C853.638 399.598 843.251 391.879 825.288 391.582L825.309 390.315C843.69 390.619 854.433 398.547 860.52 406.676C863.555 410.731 865.425 414.824 866.514 418.026C867.059 419.628 867.41 421.011 867.614 422.061C867.716 422.585 867.782 423.031 867.817 423.384Z" fill="#E9ECE0" fill-opacity="0.33"/>
<path fill-rule="evenodd" clip-rule="evenodd" d="M814.855 504.329C811.994 503.704 773.963 482.711 799.987 449.23L814.855 504.329Z" fill="#E9ECE0" fill-opacity="0.33"/>
<path fill-rule="evenodd" clip-rule="evenodd" d="M815.258 502.434C815.278 502.441 815.281 502.443 815.27 502.44L814.444 506.219C814.045 506.132 813.565 505.934 813.129 505.735C812.645 505.514 812.057 505.216 811.392 504.848C810.061 504.111 808.376 503.067 806.533 501.732C802.855 499.068 798.469 495.192 795.003 490.206C791.529 485.209 788.943 479.043 788.997 471.863C789.05 464.671 791.749 456.68 798.462 448.044L801.516 450.418C795.217 458.523 792.911 465.711 792.865 471.892C792.819 478.084 795.04 483.483 798.179 487.997C801.325 492.523 805.357 496.104 808.802 498.599C810.519 499.843 812.072 500.803 813.266 501.464C813.864 501.795 814.362 502.045 814.737 502.217C815.043 502.357 815.207 502.416 815.258 502.434Z" fill="#E9ECE0" fill-opacity="0.33"/>
<path fill-rule="evenodd" clip-rule="evenodd" d="M795.558 727.252C797.766 729.176 803.375 724.156 848.657 706.336L795.558 727.252Z" fill="#E9ECE0" fill-opacity="0.33"/>
<path fill-rule="evenodd" clip-rule="evenodd" d="M798.879 728.786C797.296 729.276 795.765 729.494 794.537 728.423L796.579 726.08C796.576 726.078 796.57 726.075 796.563 726.072C796.562 726.072 796.561 726.071 796.56 726.071C796.559 726.071 796.586 726.08 796.658 726.082C796.856 726.087 797.241 726.038 797.958 725.816C799.395 725.37 801.621 724.412 805.326 722.775C805.817 722.558 806.332 722.331 806.872 722.091C814.417 718.752 826.931 713.214 848.087 704.888L849.226 707.781C828.129 716.084 815.661 721.602 808.129 724.936C807.589 725.175 807.074 725.403 806.583 725.619C802.95 727.224 800.529 728.274 798.879 728.786Z" fill="#E9ECE0" fill-opacity="0.33"/>
<path fill-rule="evenodd" clip-rule="evenodd" d="M864.099 413.156C866.293 411.215 862.04 405.004 850.218 357.8L864.099 413.156Z" fill="#E9ECE0" fill-opacity="0.33"/>
<path fill-rule="evenodd" clip-rule="evenodd" d="M865.95 410.077C866.232 411.708 866.239 413.202 865.062 414.243L863.136 412.066L863.147 412.056L863.15 412.054C863.15 412.054 863.15 412.054 863.15 412.053M865.95 410.077C865.658 408.382 864.931 405.852 863.808 402.04L865.95 410.077ZM863.808 402.04C863.657 401.525 863.497 400.984 863.33 400.417L863.808 402.04ZM863.33 400.417C860.997 392.517 857.136 379.439 851.628 357.445L863.33 400.417ZM851.628 357.445L848.809 358.151L851.628 357.445ZM848.809 358.151C854.331 380.203 858.205 393.325 860.542 401.238L848.809 358.151ZM860.542 401.238C860.709 401.805 860.869 402.346 861.021 402.861L860.542 401.238ZM861.021 402.861C862.164 406.745 862.829 409.082 863.086 410.572L861.021 402.861ZM863.086 410.572C863.215 411.316 863.216 411.716 863.182 411.929L863.086 410.572ZM863.182 411.929C863.168 412.021 863.15 412.053 863.15 412.053L863.182 411.929ZM863.15 412.053C863.15 412.053 863.15 412.053 863.15 412.053L863.15 412.053Z" fill="#E9ECE0" fill-opacity="0.33"/>
<path fill-rule="evenodd" clip-rule="evenodd" d="M676.161 773.427C678.717 772.651 678.174 762.614 689.912 700.065L676.161 773.427Z" fill="#E9ECE0" fill-opacity="0.33"/>
<path fill-rule="evenodd" clip-rule="evenodd" d="M678.73 773.543C678.333 774.282 677.718 775 676.731 775.3L675.593 771.554C675.343 771.63 675.235 771.772 675.234 771.772C675.234 771.771 675.25 771.749 675.281 771.692C675.411 771.448 675.599 770.947 675.836 769.971C676.305 768.04 676.83 764.852 677.661 759.604C677.771 758.907 677.887 758.174 678.008 757.406C679.701 746.685 682.508 728.912 687.989 699.704L691.837 700.426C686.366 729.579 683.566 747.31 681.875 758.018C681.754 758.787 681.638 759.519 681.528 760.217C680.708 765.394 680.156 768.771 679.64 770.894C679.385 771.945 679.105 772.845 678.73 773.543Z" fill="#E9ECE0" fill-opacity="0.33"/>
<path fill-rule="evenodd" clip-rule="evenodd" d="M866.062 415.676C867.919 416.133 871.256 409.756 901.356 375.546L866.062 415.676Z" fill="#E9ECE0" fill-opacity="0.33"/>
<path fill-rule="evenodd" clip-rule="evenodd" d="M867.829 417.062C867.256 417.408 866.493 417.678 865.622 417.463L866.503 413.883C866.149 413.796 865.912 413.915 865.911 413.914C865.911 413.913 865.916 413.911 865.927 413.904C866.046 413.832 866.313 413.626 866.81 413.118C867.789 412.116 869.264 410.363 871.701 407.43C872.023 407.042 872.362 406.633 872.718 406.205C877.681 400.224 885.912 390.306 899.973 374.326L902.741 376.761C888.715 392.702 880.51 402.589 875.554 408.561C875.198 408.989 874.86 409.397 874.537 409.786C872.144 412.667 870.555 414.561 869.446 415.695C868.899 416.255 868.365 416.739 867.829 417.062Z" fill="#E9ECE0" fill-opacity="0.33"/>
<path fill-rule="evenodd" clip-rule="evenodd" d="M867.198 424.121C867.559 422.243 861.018 419.24 825.298 390.948L867.198 424.121Z" fill="#E9ECE0" fill-opacity="0.33"/>
<path fill-rule="evenodd" clip-rule="evenodd" d="M867.491 422.964C867.76 423.363 867.908 423.785 867.82 424.242L866.576 424.003L866.576 424.002C866.58 423.986 866.597 423.903 866.442 423.673C866.274 423.425 865.959 423.086 865.408 422.601C864.311 421.634 862.436 420.217 859.399 417.949C858.994 417.647 858.569 417.329 858.123 416.997C851.897 412.351 841.577 404.652 824.905 391.446L825.691 390.453C842.349 403.648 852.658 411.339 858.881 415.982C859.327 416.315 859.752 416.632 860.157 416.934C863.175 419.188 865.1 420.642 866.245 421.651C866.815 422.153 867.23 422.578 867.491 422.964Z" fill="#E9ECE0" fill-opacity="0.33"/>
<path fill-rule="evenodd" clip-rule="evenodd" d="M814.855 504.329C811.994 503.704 812.68 496.207 799.987 449.23L814.855 504.329Z" fill="#E9ECE0" fill-opacity="0.33"/>
<path fill-rule="evenodd" clip-rule="evenodd" d="M815.434 502.512C815.404 502.488 815.349 502.457 815.267 502.439L814.442 506.218C812.635 505.823 811.838 504.276 811.284 502.704C810.702 501.048 810.096 498.452 809.221 494.588C809.102 494.065 808.978 493.516 808.848 492.939C807.033 484.907 804.031 471.613 798.119 449.734L801.854 448.725C807.786 470.681 810.802 484.035 812.621 492.085C812.751 492.661 812.875 493.21 812.993 493.734C813.891 497.694 814.443 500.026 814.934 501.42C815.191 502.152 815.368 502.429 815.434 502.512ZM815.464 502.541C815.464 502.544 815.454 502.536 815.434 502.512C815.455 502.527 815.464 502.539 815.464 502.541Z" fill="#E9ECE0" fill-opacity="0.33"/>
<path fill-rule="evenodd" clip-rule="evenodd" d="M795.558 727.252C834.851 727.055 827.64 722.938 848.657 706.336L795.558 727.252Z" fill="#E9ECE0" fill-opacity="0.33"/>
<path fill-rule="evenodd" clip-rule="evenodd" d="M829.705 724.312C823.568 727.66 815.143 728.71 795.565 728.808L795.549 725.699C815.264 725.6 822.879 724.493 828.215 721.582C830.886 720.126 833.05 718.181 835.952 715.45C836.201 715.215 836.455 714.975 836.715 714.731C839.463 712.137 842.835 708.954 847.692 705.117L849.619 707.557C844.873 711.306 841.59 714.405 838.846 716.995C838.587 717.239 838.334 717.479 838.084 717.714C835.199 720.429 832.77 722.64 829.705 724.312Z" fill="#E9ECE0" fill-opacity="0.33"/>
<path fill-rule="evenodd" clip-rule="evenodd" d="M864.099 413.156C868.98 374.166 863.966 380.785 850.218 357.799L864.099 413.156Z" fill="#E9ECE0" fill-opacity="0.33"/>
<path fill-rule="evenodd" clip-rule="evenodd" d="M865.5 378.952C868.016 385.441 867.975 393.906 865.542 413.337L862.658 412.976C865.107 393.418 864.999 385.697 862.791 380.002C861.686 377.152 860.03 374.745 857.697 371.515C857.496 371.237 857.291 370.955 857.082 370.666C854.865 367.606 852.147 363.854 848.972 358.546L851.466 357.054C854.573 362.249 857.225 365.908 859.438 368.964C859.647 369.252 859.851 369.535 860.052 369.813C862.373 373.025 864.244 375.709 865.5 378.952Z" fill="#E9ECE0" fill-opacity="0.33"/>
<path fill-rule="evenodd" clip-rule="evenodd" d="M676.16 773.427C697.188 731.578 690.38 735.878 689.912 700.065L676.16 773.427Z" fill="#E9ECE0" fill-opacity="0.33"/>
<path fill-rule="evenodd" clip-rule="evenodd" d="M693.046 734.678C692.137 743.718 688.412 753.407 677.911 774.306L674.413 772.548C684.939 751.598 688.324 742.512 689.151 734.286C689.566 730.158 689.343 726.186 688.966 720.89C688.934 720.434 688.901 719.97 688.867 719.496C688.505 714.47 688.063 708.331 687.956 700.091L691.87 700.039C691.976 708.162 692.411 714.198 692.772 719.219C692.806 719.692 692.839 720.156 692.871 720.612C693.246 725.889 693.499 730.173 693.046 734.678Z" fill="#E9ECE0" fill-opacity="0.33"/>
<path fill-rule="evenodd" clip-rule="evenodd" d="M814.855 504.329C791.586 472.667 799.19 476.001 799.987 449.23L814.855 504.329Z" fill="#E9ECE0" fill-opacity="0.33"/>
<path fill-rule="evenodd" clip-rule="evenodd" d="M800.312 474.676C801.141 480.585 804.729 487.283 816.414 503.183L813.297 505.474C801.713 489.712 797.468 482.246 796.481 475.214C795.988 471.701 796.321 468.388 796.781 464.456C796.821 464.115 796.862 463.768 796.903 463.415C797.346 459.669 797.875 455.2 798.054 449.172L801.921 449.287C801.736 455.49 801.19 460.11 800.746 463.864C800.704 464.218 800.663 464.565 800.623 464.905C800.16 468.866 799.897 471.718 800.312 474.676Z" fill="#E9ECE0" fill-opacity="0.33"/>
<path fill-rule="evenodd" clip-rule="evenodd" d="M795.558 727.253C816.349 722.369 811.279 700.998 848.657 706.336L795.558 727.253Z" fill="#E9ECE0" fill-opacity="0.33"/>
<path fill-rule="evenodd" clip-rule="evenodd" d="M813.087 717.846C808.858 722.151 804.29 726.8 795.915 728.767L795.203 725.74C802.626 723.997 806.398 720.169 810.506 716.001C811.872 714.615 813.275 713.192 814.861 711.795C817.996 709.035 821.727 706.567 827.125 705.162C832.491 703.765 839.403 703.445 848.877 704.798L848.438 707.876C839.224 706.56 832.753 706.91 827.908 708.171C823.094 709.424 819.784 711.603 816.916 714.129C815.607 715.281 814.362 716.548 813.087 717.846Z" fill="#E9ECE0" fill-opacity="0.33"/>
<path fill-rule="evenodd" clip-rule="evenodd" d="M864.099 413.156C861.942 391.908 840.095 394.174 850.218 357.799L864.099 413.156Z" fill="#E9ECE0" fill-opacity="0.33"/>
<path fill-rule="evenodd" clip-rule="evenodd" d="M856.966 394.634C860.685 399.381 864.681 404.481 865.546 413.009L862.655 413.302C861.882 405.685 858.551 401.421 854.944 396.804C853.749 395.273 852.523 393.704 851.35 391.961C849.024 388.505 847.066 384.502 846.373 378.987C845.683 373.503 846.256 366.622 848.82 357.409L851.62 358.189C849.122 367.164 848.63 373.64 849.256 378.625C849.88 383.58 851.621 387.158 853.761 390.338C854.741 391.795 855.841 393.198 856.966 394.634Z" fill="#E9ECE0" fill-opacity="0.33"/>
<path fill-rule="evenodd" clip-rule="evenodd" d="M676.161 773.427C683.893 747.393 665.985 735.377 689.912 700.065L676.161 773.427Z" fill="#E9ECE0" fill-opacity="0.33"/>
<path fill-rule="evenodd" clip-rule="evenodd" d="M679.508 747.383C680.282 755.341 681.095 763.696 678.039 773.984L674.286 772.869C677.105 763.38 676.392 755.996 675.639 748.194C675.393 745.643 675.143 743.048 675.01 740.32C674.47 729.23 676.088 716.978 688.293 698.967L691.534 701.163C679.812 718.462 678.421 729.874 678.92 740.129C679.038 742.539 679.271 744.942 679.508 747.383Z" fill="#E9ECE0" fill-opacity="0.33"/>
<path fill-rule="evenodd" clip-rule="evenodd" d="M814.855 504.329C806.379 484.725 826.559 476.053 799.987 449.23L814.855 504.329Z" fill="#E9ECE0" fill-opacity="0.33"/>
<path fill-rule="evenodd" clip-rule="evenodd" d="M815.347 485.741C814.455 491.494 813.653 496.671 816.632 503.561L813.081 505.096C809.619 497.088 810.652 490.508 811.59 484.531C811.869 482.75 812.14 481.022 812.281 479.326C812.595 475.561 812.374 471.667 810.537 467.123C808.685 462.543 805.142 457.18 798.615 450.591L801.363 447.868C808.121 454.691 812.021 460.471 814.123 465.673C816.241 470.912 816.487 475.441 816.136 479.647C815.957 481.802 815.647 483.804 815.347 485.741Z" fill="#E9ECE0" fill-opacity="0.33"/>
<path fill-rule="evenodd" clip-rule="evenodd" d="M795.558 727.252C797.765 729.176 814.939 682.607 848.656 706.335L795.558 727.252Z" fill="#E9ECE0" fill-opacity="0.33"/>
<path fill-rule="evenodd" clip-rule="evenodd" d="M796.276 728.778C795.764 728.939 795.088 728.907 794.536 728.425L796.579 726.081C796.164 725.72 795.656 725.713 795.341 725.812C795.21 725.853 795.127 725.906 795.097 725.928C795.1 725.925 795.103 725.922 795.107 725.918C795.226 725.812 795.456 725.544 795.826 725.028C796.31 724.352 796.892 723.454 797.602 722.36C797.951 721.822 798.331 721.236 798.745 720.606C801.206 716.86 804.691 711.84 809.214 707.496C813.735 703.154 819.39 699.394 826.205 698.328C833.064 697.255 840.859 698.948 849.551 705.065L847.761 707.608C839.594 701.86 832.599 700.476 826.686 701.401C820.728 702.332 815.63 705.646 811.368 709.739C807.107 713.831 803.777 718.61 801.343 722.313C800.967 722.886 800.607 723.442 800.266 723.967C799.528 725.105 798.881 726.102 798.354 726.839C797.977 727.365 797.579 727.878 797.187 728.23C797.001 728.397 796.69 728.647 796.276 728.778ZM795.084 725.938C795.084 725.938 795.088 725.934 795.097 725.928C795.088 725.935 795.084 725.939 795.084 725.938Z" fill="#E9ECE0" fill-opacity="0.33"/>
<path fill-rule="evenodd" clip-rule="evenodd" d="M864.097 413.156C866.291 411.215 822.33 388.169 850.216 357.799L864.097 413.156Z" fill="#E9ECE0" fill-opacity="0.33"/>
<path fill-rule="evenodd" clip-rule="evenodd" d="M865.605 412.657C865.693 413.158 865.58 413.785 865.063 414.243L863.137 412.066C862.757 412.403 862.69 412.867 862.743 413.165C862.764 413.282 862.799 413.36 862.814 413.389C862.811 413.384 862.807 413.378 862.802 413.37C862.705 413.229 862.462 412.96 861.998 412.526C861.388 411.957 860.569 411.261 859.575 410.415C859.087 410 858.556 409.548 857.987 409.058C854.592 406.135 850.071 402.036 846.355 397C842.641 391.964 839.655 385.891 839.479 379.024C839.302 372.115 841.974 364.629 849.149 356.815L851.289 358.781C844.521 366.152 842.23 372.935 842.385 378.949C842.54 385.006 845.179 390.509 848.694 395.274C852.208 400.038 856.524 403.963 859.883 406.856C860.404 407.304 860.909 407.734 861.386 408.14C862.418 409.018 863.321 409.786 863.981 410.402C864.454 410.844 864.904 411.298 865.196 411.723C865.335 411.924 865.533 412.251 865.605 412.657ZM862.822 413.401C862.821 413.401 862.819 413.397 862.814 413.389C862.82 413.397 862.822 413.401 862.822 413.401Z" fill="#E9ECE0" fill-opacity="0.33"/>
<path fill-rule="evenodd" clip-rule="evenodd" d="M676.16 773.428C678.716 772.651 657.218 715.397 692.232 698.937L676.16 773.428ZM676.16 773.428C678.716 772.651 712.647 743.694 689.754 698.383L676.16 773.428Z" fill="#E9ECE0" fill-opacity="0.33"/>
<path fill-rule="evenodd" clip-rule="evenodd" d="M678.128 774.6C677.756 774.858 677.24 775.193 676.744 775.344L673.486 776.334L674.353 772.313C674.324 771.998 674.266 771.567 674.173 771.004C673.991 769.897 673.713 768.489 673.377 766.79C673.217 765.978 673.043 765.099 672.861 764.155C671.747 758.396 670.37 750.534 670.024 742.146C669.339 725.52 672.697 705.907 691.381 697.124L695.044 695.402L693.637 701.927C702.915 723.183 700.094 740.809 694.323 753.438C691.254 760.155 687.365 765.431 684.071 769.087C682.423 770.915 680.914 772.35 679.713 773.367C679.113 773.874 678.577 774.289 678.128 774.6ZM689.348 702.809C676.228 711.228 673.409 726.998 674.026 741.981C674.335 749.476 675.502 756.58 676.551 762.126L689.348 702.809ZM692.11 709.005C698.222 726.644 695.529 741.162 690.68 751.773C687.809 758.056 684.166 762.997 681.095 766.405C680.475 767.093 679.881 767.716 679.323 768.274L692.11 709.005Z" fill="#E9ECE0" fill-opacity="0.33"/>
<path fill-rule="evenodd" clip-rule="evenodd" d="M866.061 415.674C867.918 416.131 875.878 373.139 903.451 375.814L866.061 415.674Z" fill="#E9ECE0" fill-opacity="0.33"/>
<path fill-rule="evenodd" clip-rule="evenodd" d="M867.532 416.92C867.328 417.116 866.628 417.713 865.619 417.465L866.501 413.884C865.608 413.665 865.036 414.205 864.973 414.266C864.913 414.323 864.877 414.37 864.865 414.387C864.869 414.38 864.877 414.368 864.887 414.351C864.982 414.186 865.135 413.856 865.357 413.3C865.652 412.56 865.998 411.603 866.419 410.441C866.62 409.884 866.839 409.279 867.077 408.629C868.524 404.682 870.592 399.33 873.495 394.028C879.233 383.544 888.658 372.527 903.628 373.979L903.272 377.649C890.67 376.426 882.328 385.569 876.729 395.798C873.962 400.852 871.969 405.995 870.539 409.897C870.32 410.496 870.111 411.073 869.913 411.619C869.479 412.82 869.099 413.869 868.781 414.666C868.553 415.237 868.318 415.782 868.079 416.195C867.967 416.389 867.788 416.673 867.532 416.92ZM864.859 414.396C864.859 414.395 864.861 414.393 864.865 414.387C864.861 414.393 864.859 414.396 864.859 414.396Z" fill="#E9ECE0" fill-opacity="0.33"/>
<path fill-rule="evenodd" clip-rule="evenodd" d="M867.2 424.121C867.56 422.243 824.054 418.623 825.3 390.948L867.2 424.121Z" fill="#E9ECE0" fill-opacity="0.33"/>
<path fill-rule="evenodd" clip-rule="evenodd" d="M867.525 423.464C867.65 423.574 867.898 423.844 867.821 424.241L866.578 424.003C866.553 424.133 866.582 424.246 866.621 424.32C866.653 424.385 866.689 424.415 866.69 424.417L866.69 424.417C866.691 424.417 866.691 424.417 866.691 424.417C866.691 424.417 866.679 424.408 866.649 424.39C866.617 424.371 866.572 424.348 866.512 424.32C866.259 424.204 865.85 424.066 865.276 423.901C864.505 423.678 863.506 423.425 862.317 423.123C861.744 422.977 861.128 422.821 860.471 422.651C856.455 421.613 851.051 420.11 845.667 417.791C834.942 413.17 824.025 405.182 824.667 390.92L825.932 390.977C825.328 404.391 835.542 412.05 846.168 416.628C851.46 418.907 856.787 420.391 860.788 421.425C861.426 421.59 862.032 421.744 862.6 421.888C863.804 422.194 864.837 422.456 865.627 422.684C866.206 422.851 866.694 423.011 867.038 423.168C867.205 423.244 867.383 423.34 867.525 423.464Z" fill="#E9ECE0" fill-opacity="0.33"/>
<path fill-rule="evenodd" clip-rule="evenodd" d="M814.856 504.329C811.995 503.704 839.142 462.15 799.988 449.23L814.856 504.329Z" fill="#E9ECE0" fill-opacity="0.33"/>
<path fill-rule="evenodd" clip-rule="evenodd" d="M816.5 503.519C816.357 503.106 815.959 502.59 815.269 502.439L814.443 506.218C813.574 506.028 813.056 505.393 812.845 504.786C812.676 504.298 812.697 503.835 812.722 503.568C812.775 502.998 812.961 502.339 813.16 501.72C813.439 500.85 813.86 499.721 814.335 498.445C814.553 497.86 814.782 497.244 815.015 496.608C816.535 492.452 818.374 486.963 819.113 481.146C819.852 475.327 819.469 469.346 816.714 464.101C813.985 458.906 808.791 454.171 799.382 451.066L800.594 447.393C810.762 450.748 816.857 456.053 820.139 462.302C823.396 468.502 823.746 475.371 822.95 481.634C822.154 487.898 820.19 493.722 818.648 497.937C818.386 498.653 818.141 499.311 817.916 499.914C817.464 501.129 817.095 502.118 816.843 502.903C816.652 503.499 816.586 503.808 816.574 503.926C816.575 503.873 816.57 503.719 816.5 503.519ZM816.573 503.929C816.573 503.928 816.574 503.927 816.574 503.926L816.573 503.929Z" fill="#E9ECE0" fill-opacity="0.33"/>
<path fill-rule="evenodd" clip-rule="evenodd" d="M867.227 613.985C870.737 614.764 909.473 617.645 912.205 560.265L867.227 613.985Z" fill="#E9ECE0" fill-opacity="0.33"/>
<path fill-rule="evenodd" clip-rule="evenodd" d="M891.031 610.618C880.041 617.292 868.936 616.381 866.802 615.907L867.655 612.063C869.031 612.368 879.049 613.287 888.987 607.251C898.76 601.316 908.897 588.378 910.24 560.171L914.174 560.358C912.785 589.532 902.187 603.843 891.031 610.618Z" fill="#E9ECE0" fill-opacity="0.33"/>
<path fill-rule="evenodd" clip-rule="evenodd" d="M867.227 613.985C870.737 614.764 873.839 606.059 912.205 560.265L867.227 613.985Z" fill="#E9ECE0" fill-opacity="0.33"/>
<path fill-rule="evenodd" clip-rule="evenodd" d="M871.753 613.733C870.333 615.192 868.789 616.348 866.802 615.907L867.655 612.063C867.65 612.062 867.633 612.061 867.612 612.064C867.607 612.065 867.604 612.065 867.604 612.065C867.603 612.066 867.633 612.059 867.7 612.025C867.909 611.918 868.289 611.646 868.931 610.986C870.216 609.666 872.051 607.33 875.087 603.388C875.489 602.866 875.91 602.318 876.353 601.743C882.529 593.713 892.772 580.396 910.698 559L913.716 561.529C895.843 582.863 885.638 596.13 879.473 604.146C879.03 604.721 878.609 605.269 878.207 605.791C875.232 609.653 873.236 612.209 871.753 613.733Z" fill="#E9ECE0" fill-opacity="0.33"/>
<path fill-rule="evenodd" clip-rule="evenodd" d="M876.921 604.232C876.504 587.215 875.412 581.494 875.39 578.117L876.921 604.232Z" fill="#E9ECE0" fill-opacity="0.33"/>
<path fill-rule="evenodd" clip-rule="evenodd" d="M877.97 585.898C878.301 589.913 878.68 595.636 878.89 604.184L874.952 604.28C874.745 595.811 874.37 590.165 874.045 586.221C873.943 584.984 873.843 583.892 873.755 582.919C873.567 580.863 873.429 579.343 873.421 578.13L877.359 578.104C877.366 579.148 877.481 580.41 877.655 582.316C877.746 583.313 877.854 584.487 877.97 585.898Z" fill="#E9ECE0" fill-opacity="0.33"/>
<path fill-rule="evenodd" clip-rule="evenodd" d="M885.671 592.079C885.269 577.53 884.183 572.64 884.164 569.753L885.671 592.079Z" fill="#E9ECE0" fill-opacity="0.33"/>
<path fill-rule="evenodd" clip-rule="evenodd" d="M886.724 576.357C887.053 579.801 887.427 584.705 887.629 592.025L883.715 592.133C883.516 584.905 883.147 580.089 882.826 576.729C882.728 575.696 882.631 574.774 882.543 573.947C882.356 572.169 882.214 570.829 882.207 569.766L886.123 569.74C886.129 570.607 886.239 571.648 886.409 573.251C886.499 574.107 886.607 575.122 886.724 576.357Z" fill="#E9ECE0" fill-opacity="0.33"/>
<path fill-rule="evenodd" clip-rule="evenodd" d="M895.783 580.306C895.408 569.786 894.331 566.251 894.316 564.163L895.783 580.306Z" fill="#E9ECE0" fill-opacity="0.33"/>
<path fill-rule="evenodd" clip-rule="evenodd" d="M896.874 568.819C897.199 571.337 897.568 574.912 897.757 580.236L893.81 580.377C893.625 575.181 893.268 571.728 892.957 569.326C892.853 568.521 892.757 567.85 892.67 567.25C892.625 566.936 892.583 566.641 892.544 566.357C892.435 565.568 892.347 564.841 892.343 564.176L896.292 564.15C896.295 564.529 896.347 565.027 896.456 565.817C896.49 566.063 896.53 566.339 896.573 566.642C896.662 567.26 896.767 567.991 896.874 568.819Z" fill="#E9ECE0" fill-opacity="0.33"/>
<path fill-rule="evenodd" clip-rule="evenodd" d="M867.227 613.985C870.737 614.764 855.158 566.981 912.205 560.265L867.227 613.985Z" fill="#E9ECE0" fill-opacity="0.33"/>
<path fill-rule="evenodd" clip-rule="evenodd" d="M868.822 615.381C868.234 615.91 867.479 616.058 866.801 615.907L867.654 612.062C867.195 611.961 866.622 612.062 866.185 612.455C866.014 612.61 865.918 612.762 865.87 612.851C865.821 612.942 865.802 613.005 865.798 613.018C865.793 613.036 865.81 612.98 865.827 612.806C865.843 612.642 865.854 612.424 865.859 612.142C865.871 611.449 865.845 610.608 865.813 609.574C865.789 608.797 865.762 607.911 865.745 606.897C865.668 602.353 865.83 596.012 867.749 589.387C869.675 582.736 873.376 575.787 880.358 570.077C887.33 564.373 897.434 560.02 911.976 558.308L912.436 562.219C898.454 563.866 889.112 568.004 882.851 573.125C876.6 578.238 873.28 584.446 871.531 590.483C869.775 596.546 869.608 602.425 869.683 606.831C869.697 607.685 869.722 608.518 869.745 609.292C869.779 610.435 869.81 611.448 869.797 612.209C869.786 612.831 869.749 613.553 869.57 614.149C869.483 614.439 869.29 614.958 868.822 615.381Z" fill="#E9ECE0" fill-opacity="0.33"/>
<path fill-rule="evenodd" clip-rule="evenodd" d="M796.682 672.275C796.691 673.618 852.956 641.546 869.293 611.032L796.682 672.275Z" fill="#E9ECE0" fill-opacity="0.33"/>
<path fill-rule="evenodd" clip-rule="evenodd" d="M794.641 674.497C793.963 673.864 793.681 673.034 793.676 672.294L799.685 672.255C799.681 671.537 799.406 670.724 798.741 670.103C798.166 669.567 797.546 669.408 797.243 669.354C796.702 669.259 796.286 669.35 796.237 669.361L796.233 669.362C796.138 669.382 796.08 669.401 796.079 669.401C796.078 669.401 796.113 669.39 796.191 669.358C796.48 669.241 796.997 669 797.759 668.608C799.256 667.838 801.461 666.61 804.195 664.982C809.655 661.729 817.124 656.942 825.101 651.166C841.188 639.518 858.827 624.213 866.643 609.613L871.941 612.449C863.42 628.364 844.757 644.352 828.625 656.033C820.493 661.922 812.873 666.807 807.27 670.144C804.473 671.811 802.153 673.106 800.507 673.952C799.698 674.368 798.989 674.708 798.445 674.929C798.206 675.025 797.839 675.166 797.453 675.246L797.449 675.247C797.312 675.275 796.809 675.38 796.2 675.272C795.871 675.214 795.23 675.046 794.641 674.497Z" fill="#E9ECE0" fill-opacity="0.33"/>
<path fill-rule="evenodd" clip-rule="evenodd" d="M796.682 672.275C796.691 673.618 852.956 641.546 869.293 611.032L796.682 672.275Z" fill="#E9ECE0" fill-opacity="0.33"/>
<path fill-rule="evenodd" clip-rule="evenodd" d="M794.641 674.497C793.963 673.864 793.681 673.034 793.676 672.294L799.685 672.255C799.681 671.537 799.406 670.724 798.741 670.103C798.166 669.567 797.546 669.408 797.243 669.354C796.702 669.259 796.286 669.35 796.237 669.361L796.233 669.362C796.138 669.382 796.08 669.401 796.079 669.401C796.078 669.401 796.113 669.39 796.191 669.358C796.48 669.241 796.997 669 797.759 668.608C799.256 667.838 801.461 666.61 804.195 664.982C809.655 661.729 817.124 656.942 825.101 651.166C841.188 639.518 858.827 624.213 866.643 609.613L871.941 612.449C863.42 628.364 844.757 644.352 828.625 656.033C820.493 661.922 812.873 666.807 807.27 670.144C804.473 671.811 802.153 673.106 800.507 673.952C799.698 674.368 798.989 674.708 798.445 674.929C798.206 675.025 797.839 675.166 797.453 675.246L797.449 675.247C797.312 675.275 796.809 675.38 796.2 675.272C795.871 675.214 795.23 675.046 794.641 674.497Z" fill="#E9ECE0" fill-opacity="0.33"/>
<path fill-rule="evenodd" clip-rule="evenodd" d="M731.019 758.81C731.028 760.153 764.033 743.559 797.044 727.973L731.019 758.81Z" fill="#E9ECE0" fill-opacity="0.33"/>
<path fill-rule="evenodd" clip-rule="evenodd" d="M729.221 761.248C728.442 760.654 728.02 759.751 728.014 758.828L734.023 758.789C734.017 757.909 733.612 757.039 732.865 756.47C732.27 756.016 731.682 755.924 731.467 755.899C731.207 755.868 731.014 755.884 730.941 755.891C730.854 755.9 730.8 755.911 730.792 755.912C730.79 755.913 730.79 755.913 730.793 755.912C730.803 755.91 730.856 755.896 730.964 755.862C731.09 755.823 731.256 755.766 731.468 755.688C732.335 755.37 733.676 754.806 735.473 754.005C739.042 752.413 744.166 749.994 750.357 747.029C754.466 745.061 759.039 742.855 763.92 740.501C773.71 735.778 784.742 730.457 795.761 725.255L798.326 730.689C787.328 735.882 776.344 741.18 766.567 745.896C761.677 748.254 757.09 750.467 752.953 752.448C746.765 755.412 741.573 757.864 737.92 759.493C736.105 760.302 734.609 760.936 733.541 761.329C733.034 761.515 732.487 761.698 732.005 761.798C731.82 761.836 731.33 761.933 730.763 761.867C730.485 761.834 729.848 761.726 729.221 761.248Z" fill="#E9ECE0" fill-opacity="0.33"/>
<path fill-rule="evenodd" clip-rule="evenodd" d="M771.848 621.083C770.944 621.592 762.061 628.443 772.538 641.305L771.848 621.083Z" fill="#E9ECE0" fill-opacity="0.33"/>
<path fill-rule="evenodd" clip-rule="evenodd" d="M766.289 626.067C767.468 622.171 770.264 620.014 771.01 619.594L772.689 622.574C772.691 622.572 772.69 622.573 772.684 622.577C772.655 622.596 772.516 622.689 772.294 622.877C772.046 623.087 771.729 623.386 771.392 623.772C770.718 624.547 769.991 625.646 769.563 627.058C768.743 629.77 768.892 634.12 773.865 640.225L771.213 642.386C765.709 635.629 765.062 630.123 766.289 626.067Z" fill="#E9ECE0" fill-opacity="0.33"/>
<path fill-rule="evenodd" clip-rule="evenodd" d="M761.267 624.942C761.075 624.201 757.871 616.575 746.724 621.611L761.267 624.942Z" fill="#E9ECE0" fill-opacity="0.33"/>
<path fill-rule="evenodd" clip-rule="evenodd" d="M760.951 623.084C761.481 623.866 761.749 624.541 761.817 624.802L760.714 625.087C760.686 624.978 760.482 624.421 760.009 623.723C759.542 623.033 758.83 622.231 757.803 621.597C755.784 620.35 752.403 619.672 746.957 622.133L746.488 621.095C752.19 618.519 755.985 619.136 758.402 620.628C759.594 621.364 760.415 622.292 760.951 623.084Z" fill="#E9ECE0" fill-opacity="0.33"/>
<path fill-rule="evenodd" clip-rule="evenodd" d="M723.426 658.146C724.445 656.7 731.416 638.631 705.874 626.501L723.426 658.146Z" fill="#E9ECE0" fill-opacity="0.33"/>
<path fill-rule="evenodd" clip-rule="evenodd" d="M725.04 657.244C724.793 657.924 724.533 658.476 724.32 658.779L722.527 657.515L722.527 657.515C722.527 657.515 722.531 657.509 722.539 657.496C722.548 657.481 722.559 657.461 722.574 657.435C722.603 657.382 722.639 657.311 722.682 657.22C722.767 657.04 722.869 656.796 722.978 656.495C723.197 655.893 723.438 655.078 723.625 654.093C724.001 652.122 724.161 649.499 723.535 646.559C722.296 640.738 717.922 633.439 705.401 627.493L706.342 625.511C719.363 631.695 724.275 639.496 725.681 646.103C726.378 649.377 726.2 652.3 725.78 654.504C725.57 655.606 725.298 656.534 725.04 657.244Z" fill="#E9ECE0" fill-opacity="0.33"/>
<path fill-rule="evenodd" clip-rule="evenodd" d="M771.848 621.083C770.944 621.592 771.956 624.062 772.538 641.305L771.848 621.083Z" fill="#E9ECE0" fill-opacity="0.33"/>
<path fill-rule="evenodd" clip-rule="evenodd" d="M769.783 621.964C769.808 621.347 769.922 620.205 771.008 619.594L772.687 622.574C773.082 622.351 773.192 622.017 773.214 621.926C773.21 621.955 773.204 622.011 773.2 622.103C773.182 622.553 773.23 623.33 773.34 624.792C773.354 624.981 773.369 625.18 773.385 625.388C773.606 628.31 773.973 633.167 774.247 641.248L770.828 641.363C770.557 633.353 770.194 628.551 769.974 625.644C769.958 625.436 769.943 625.237 769.929 625.048C769.826 623.673 769.754 622.659 769.783 621.964ZM773.219 621.902C773.219 621.903 773.218 621.911 773.214 621.926C773.217 621.909 773.218 621.902 773.219 621.902Z" fill="#E9ECE0" fill-opacity="0.33"/>
<path fill-rule="evenodd" clip-rule="evenodd" d="M761.267 624.943C761.075 624.202 759.123 624.456 746.724 621.612L761.267 624.943Z" fill="#E9ECE0" fill-opacity="0.33"/>
<path fill-rule="evenodd" clip-rule="evenodd" d="M760.824 623.966C761.242 624.095 761.687 624.297 761.817 624.801L760.714 625.086C760.725 625.128 760.745 625.152 760.756 625.162C760.736 625.148 760.666 625.109 760.488 625.054C760.123 624.941 759.513 624.821 758.468 624.626C758.33 624.6 758.185 624.574 758.032 624.545C755.911 624.151 752.391 623.497 746.595 622.167L746.85 621.057C752.623 622.381 756.125 623.032 758.241 623.426C758.393 623.454 758.538 623.481 758.677 623.507C759.693 623.696 760.382 623.829 760.824 623.966ZM760.762 625.167C760.762 625.167 760.76 625.166 760.756 625.162C760.761 625.165 760.763 625.167 760.762 625.167Z" fill="#E9ECE0" fill-opacity="0.33"/>
<path fill-rule="evenodd" clip-rule="evenodd" d="M723.424 658.147C724.443 656.701 721.078 653.64 707.561 627.525L723.424 658.147Z" fill="#E9ECE0" fill-opacity="0.33"/>
<path fill-rule="evenodd" clip-rule="evenodd" d="M724.287 655.993C724.681 656.918 724.941 657.899 724.321 658.778L722.529 657.514C722.511 657.539 722.502 657.562 722.497 657.578C722.495 657.511 722.463 657.308 722.269 656.854C721.916 656.028 721.208 654.759 719.993 652.629C719.832 652.348 719.663 652.052 719.486 651.742C717.011 647.413 712.905 640.232 706.588 628.027L708.536 627.019C714.833 639.183 718.921 646.334 721.391 650.655C721.568 650.965 721.737 651.26 721.898 651.542C723.086 653.623 723.872 655.022 724.287 655.993ZM722.495 657.606C722.494 657.605 722.493 657.594 722.497 657.578C722.498 657.599 722.496 657.607 722.495 657.606Z" fill="#E9ECE0" fill-opacity="0.33"/>
<path fill-rule="evenodd" clip-rule="evenodd" d="M720.834 651.892C713.027 648.852 710.221 648.262 708.683 647.632L720.834 651.892Z" fill="#E9ECE0" fill-opacity="0.33"/>
<path fill-rule="evenodd" clip-rule="evenodd" d="M712.746 647.816C714.635 648.428 717.308 649.343 721.232 650.871L720.436 652.915C716.553 651.403 713.92 650.503 712.07 649.903C711.493 649.716 710.98 649.554 710.521 649.41C709.549 649.104 708.824 648.876 708.267 648.648L709.099 646.618C709.57 646.81 710.157 646.995 711.049 647.276C711.521 647.424 712.077 647.599 712.746 647.816Z" fill="#E9ECE0" fill-opacity="0.33"/>
<path fill-rule="evenodd" clip-rule="evenodd" d="M716.976 645.613C710.293 643.034 707.865 642.6 706.55 642.061L716.976 645.613Z" fill="#E9ECE0" fill-opacity="0.33"/>
<path fill-rule="evenodd" clip-rule="evenodd" d="M710.058 642.077C711.686 642.582 713.986 643.343 717.351 644.641L716.601 646.585C713.282 645.304 711.026 644.559 709.441 644.067C708.957 643.917 708.521 643.787 708.13 643.67C707.284 643.416 706.642 643.225 706.154 643.025L706.945 641.097C707.336 641.257 707.824 641.403 708.581 641.629C708.987 641.75 709.471 641.895 710.058 642.077Z" fill="#E9ECE0" fill-opacity="0.33"/>
<path fill-rule="evenodd" clip-rule="evenodd" d="M713.549 638.786C708.699 636.96 706.889 636.779 705.938 636.389L713.549 638.786Z" fill="#E9ECE0" fill-opacity="0.33"/>
<path fill-rule="evenodd" clip-rule="evenodd" d="M708.536 636.113C709.741 636.443 711.435 636.954 713.889 637.878L713.205 639.694C710.81 638.792 709.174 638.3 708.024 637.985C707.639 637.88 707.317 637.796 707.028 637.721C706.876 637.682 706.734 637.646 706.597 637.609C706.218 637.509 705.871 637.411 705.569 637.287L706.305 635.491C706.478 635.562 706.714 635.632 707.094 635.733C707.212 635.764 707.345 635.799 707.492 635.836C707.789 635.913 708.141 636.004 708.536 636.113Z" fill="#E9ECE0" fill-opacity="0.33"/>
<path fill-rule="evenodd" clip-rule="evenodd" d="M771.848 621.083C770.944 621.592 783.507 628.861 772.538 641.304L771.848 621.083Z" fill="#E9ECE0" fill-opacity="0.33"/>
<path fill-rule="evenodd" clip-rule="evenodd" d="M770.102 620.97C770.168 620.346 770.541 619.858 771.01 619.594L772.689 622.574C773.101 622.341 773.443 621.898 773.503 621.332C773.549 620.903 773.408 620.599 773.376 620.53C773.334 620.44 773.295 620.387 773.295 620.387C773.295 620.387 773.313 620.413 773.362 620.468C773.48 620.605 773.617 620.749 773.801 620.94C773.953 621.1 774.138 621.294 774.372 621.545C775.292 622.537 776.57 624.029 777.509 625.976C778.458 627.944 779.063 630.386 778.622 633.23C778.182 636.064 776.726 639.142 773.822 642.436L771.256 640.175C773.837 637.247 774.924 634.75 775.242 632.705C775.557 630.671 775.135 628.93 774.428 627.462C773.71 625.972 772.702 624.775 771.864 623.872C771.725 623.722 771.572 623.561 771.421 623.403C771.174 623.143 770.934 622.89 770.777 622.708C770.659 622.573 770.431 622.306 770.281 621.986C770.209 621.833 770.05 621.457 770.102 620.97Z" fill="#E9ECE0" fill-opacity="0.33"/>
<path fill-rule="evenodd" clip-rule="evenodd" d="M761.267 624.943C761.075 624.202 753.52 631.782 746.724 621.612L761.267 624.943Z" fill="#E9ECE0" fill-opacity="0.33"/>
<path fill-rule="evenodd" clip-rule="evenodd" d="M761.43 624.366C761.636 624.445 761.769 624.615 761.817 624.801L760.714 625.086C760.751 625.226 760.857 625.366 761.023 625.429C761.143 625.475 761.237 625.458 761.247 625.456C761.247 625.456 761.247 625.456 761.248 625.456C761.251 625.455 761.252 625.455 761.252 625.455C761.252 625.456 761.214 625.467 761.115 625.516C760.984 625.58 760.833 625.663 760.643 625.767C760.499 625.847 760.332 625.939 760.136 626.043C759.276 626.5 758.043 627.091 756.578 627.373C755.107 627.656 753.398 627.626 751.606 626.84C749.818 626.056 747.994 624.539 746.249 621.929L747.196 621.296C748.85 623.771 750.519 625.12 752.064 625.797C753.606 626.474 755.073 626.503 756.363 626.254C757.661 626.005 758.777 625.476 759.601 625.038C759.756 624.955 759.91 624.871 760.054 624.791C760.271 624.673 760.466 624.565 760.614 624.493C760.733 624.435 760.89 624.363 761.043 624.335C761.117 624.322 761.267 624.303 761.43 624.366Z" fill="#E9ECE0" fill-opacity="0.33"/>
<path fill-rule="evenodd" clip-rule="evenodd" d="M723.423 658.148C724.443 656.702 699.351 655.639 707.128 628.455L723.423 658.148Z" fill="#E9ECE0" fill-opacity="0.33"/>
<path fill-rule="evenodd" clip-rule="evenodd" d="M724.47 657.618C724.633 658.044 724.538 658.47 724.321 658.778L722.528 657.514C722.375 657.731 722.293 658.067 722.421 658.403C722.471 658.533 722.538 658.621 722.581 658.669C722.623 658.717 722.658 658.744 722.669 658.752C722.67 658.753 722.669 658.752 722.665 658.75C722.644 658.739 722.546 658.686 722.305 658.593C721.991 658.473 721.609 658.346 721.138 658.189C720.768 658.066 720.343 657.925 719.854 657.755C717.731 657.014 714.809 655.853 712.089 653.831C709.356 651.8 706.818 648.894 705.492 644.687C704.169 640.488 704.088 635.098 706.075 628.151L708.184 628.755C706.283 635.4 706.422 640.337 707.585 644.028C708.745 647.71 710.958 650.257 713.398 652.071C715.851 653.894 718.525 654.968 720.577 655.683C720.979 655.823 721.377 655.956 721.748 656.08C722.276 656.256 722.747 656.413 723.092 656.546C723.377 656.655 723.72 656.799 723.98 656.993C724.105 657.086 724.343 657.285 724.47 657.618Z" fill="#E9ECE0" fill-opacity="0.33"/>
<path fill-rule="evenodd" clip-rule="evenodd" d="M770.243 616.547C772.271 616.628 801.439 609.194 789.836 582.197L770.243 616.547Z" fill="#E9ECE0" fill-opacity="0.33"/>
<path fill-rule="evenodd" clip-rule="evenodd" d="M771.272 618.445C770.943 618.503 770.525 618.564 770.165 618.549L770.323 614.547C770.29 614.545 770.272 614.546 770.272 614.545C770.272 614.543 770.362 614.537 770.579 614.499C770.84 614.453 771.201 614.376 771.647 614.262C772.537 614.034 773.721 613.67 775.065 613.145C777.764 612.092 781.022 610.429 783.849 608.006C786.666 605.592 789.005 602.471 790.014 598.475C791.02 594.491 790.76 589.418 787.997 582.989L791.677 581.407C794.715 588.476 795.16 594.456 793.898 599.456C792.638 604.444 789.734 608.239 786.455 611.048C783.187 613.848 779.498 615.715 776.521 616.877C775.026 617.46 773.689 617.874 772.641 618.143C772.118 618.277 771.655 618.377 771.272 618.445Z" fill="#E9ECE0" fill-opacity="0.33"/>
<path fill-rule="evenodd" clip-rule="evenodd" d="M770.019 618.748C770.728 619.868 788.29 632.546 806.914 615.592L770.019 618.748Z" fill="#E9ECE0" fill-opacity="0.33"/>
<path fill-rule="evenodd" clip-rule="evenodd" d="M769.801 619.706C769.631 619.557 769.436 619.373 769.32 619.19L770.715 618.306C770.709 618.296 770.706 618.291 770.706 618.291C770.708 618.289 770.753 618.343 770.888 618.461C771.036 618.59 771.249 618.759 771.526 618.959C772.078 619.356 772.863 619.858 773.85 620.381C775.826 621.43 778.587 622.556 781.89 623.134C788.462 624.283 797.247 623.274 806.358 614.98L807.47 616.202C797.956 624.863 788.647 625.992 781.605 624.761C778.101 624.148 775.175 622.955 773.076 621.841C772.026 621.284 771.177 620.743 770.56 620.3C770.253 620.078 769.997 619.877 769.801 619.706Z" fill="#E9ECE0" fill-opacity="0.33"/>
<path fill-rule="evenodd" clip-rule="evenodd" d="M763.869 626.342C764.949 625.575 776.703 607.382 758.809 589.658L763.869 626.342Z" fill="#E9ECE0" fill-opacity="0.33"/>
<path fill-rule="evenodd" clip-rule="evenodd" d="M765.568 627.085C765.43 627.261 765.183 627.565 764.885 627.777L762.85 624.911C762.759 624.976 762.71 625.028 762.71 625.028C762.71 625.028 762.74 624.996 762.803 624.915C762.903 624.789 763.044 624.592 763.217 624.323C763.562 623.788 764.002 623.016 764.457 622.039C765.368 620.084 766.317 617.362 766.709 614.148C767.485 607.791 766.107 599.363 757.571 590.909L760.044 588.412C769.403 597.681 771.096 607.211 770.198 614.574C769.753 618.219 768.679 621.297 767.642 623.523C767.123 624.637 766.607 625.55 766.172 626.226C765.955 626.563 765.75 626.853 765.568 627.085Z" fill="#E9ECE0" fill-opacity="0.33"/>
<path fill-rule="evenodd" clip-rule="evenodd" d="M770.243 616.547C772.27 616.628 773.12 611.481 789.835 582.197L770.243 616.547Z" fill="#E9ECE0" fill-opacity="0.33"/>
<path fill-rule="evenodd" clip-rule="evenodd" d="M773.472 616.453C772.817 617.425 771.828 618.616 770.165 618.55L770.324 614.547C770.008 614.535 769.817 614.666 769.773 614.701C769.807 614.669 769.93 614.541 770.15 614.214C770.696 613.405 771.453 611.979 772.755 609.465C772.925 609.135 773.105 608.788 773.292 608.424C775.919 603.341 780.279 594.904 788.098 581.206L791.577 583.192C783.799 596.819 779.468 605.199 776.85 610.265C776.662 610.629 776.483 610.976 776.312 611.306C775.058 613.729 774.178 615.405 773.472 616.453ZM769.764 614.709C769.764 614.709 769.767 614.706 769.773 614.701C769.767 614.707 769.764 614.709 769.764 614.709Z" fill="#E9ECE0" fill-opacity="0.33"/>
<path fill-rule="evenodd" clip-rule="evenodd" d="M770.019 618.748C770.728 619.868 775.455 618.276 806.914 615.592L770.019 618.748Z" fill="#E9ECE0" fill-opacity="0.33"/>
<path fill-rule="evenodd" clip-rule="evenodd" d="M770.335 619.85C769.951 619.763 769.567 619.58 769.321 619.191L770.716 618.306C770.674 618.24 770.627 618.218 770.627 618.218C770.628 618.218 770.647 618.227 770.699 618.238C770.851 618.273 771.131 618.296 771.632 618.279C772.625 618.247 774.225 618.074 776.841 617.776C777.189 617.736 777.554 617.694 777.937 617.65C783.286 617.038 792.154 616.022 806.844 614.768L806.985 616.415C792.318 617.666 783.468 618.68 778.124 619.292C777.741 619.336 777.376 619.377 777.029 619.417C774.442 619.712 772.762 619.895 771.686 619.93C771.152 619.948 770.7 619.932 770.335 619.85Z" fill="#E9ECE0" fill-opacity="0.33"/>
<path fill-rule="evenodd" clip-rule="evenodd" d="M763.868 626.342C764.949 625.575 763.116 620.937 758.808 589.659L763.868 626.342Z" fill="#E9ECE0" fill-opacity="0.33"/>
<path fill-rule="evenodd" clip-rule="evenodd" d="M765.869 626.128C765.778 626.658 765.531 627.318 764.885 627.777L762.851 624.911C762.475 625.178 762.407 625.525 762.406 625.533C762.406 625.534 762.408 625.52 762.41 625.489C762.412 625.457 762.414 625.412 762.414 625.352C762.415 625.229 762.407 625.061 762.388 624.835C762.308 623.892 762.062 622.347 761.625 619.733C761.568 619.388 761.507 619.026 761.444 618.645C760.555 613.332 759.08 604.519 757.067 589.9L760.549 589.42C762.555 603.99 764.023 612.765 764.91 618.067C764.973 618.447 765.034 618.809 765.092 619.155C765.517 621.705 765.795 623.419 765.89 624.539C765.936 625.089 765.953 625.638 765.869 626.128Z" fill="#E9ECE0" fill-opacity="0.33"/>
<path fill-rule="evenodd" clip-rule="evenodd" d="M770.243 616.547C791.376 599.381 785.695 600.288 789.835 582.197L770.243 616.547Z" fill="#E9ECE0" fill-opacity="0.33"/>
<path fill-rule="evenodd" clip-rule="evenodd" d="M788.262 600.487C786.298 605.21 782.005 609.573 771.507 618.101L768.981 614.992C779.617 606.353 783.05 602.587 784.563 598.949C785.322 597.126 785.635 595.248 786.017 592.505C786.049 592.271 786.083 592.031 786.116 591.786C786.474 589.19 786.918 585.971 787.884 581.75L791.789 582.643C790.864 586.687 790.441 589.751 790.084 592.339C790.05 592.583 790.017 592.822 789.984 593.058C789.607 595.77 789.243 598.129 788.262 600.487Z" fill="#E9ECE0" fill-opacity="0.33"/>
<path fill-rule="evenodd" clip-rule="evenodd" d="M770.243 616.547C779.35 604.883 767.333 595.543 789.835 582.197L770.243 616.547Z" fill="#E9ECE0" fill-opacity="0.33"/>
<path fill-rule="evenodd" clip-rule="evenodd" d="M776.566 603.809C776.151 608.004 775.673 612.848 771.821 617.781L768.664 615.316C771.739 611.378 772.082 607.999 772.485 604.041C772.625 602.667 772.772 601.223 773.042 599.661C773.555 596.705 774.542 593.607 776.954 590.361C779.341 587.148 783.042 583.899 788.814 580.476L790.857 583.921C785.378 587.171 782.143 590.094 780.169 592.75C778.221 595.373 777.424 597.841 776.989 600.346C776.8 601.437 776.686 602.596 776.566 603.809Z" fill="#E9ECE0" fill-opacity="0.33"/>
<path fill-rule="evenodd" clip-rule="evenodd" d="M770.243 616.547C772.27 616.628 761.325 584.023 789.835 582.197L770.243 616.547Z" fill="#E9ECE0" fill-opacity="0.33"/>
<path fill-rule="evenodd" clip-rule="evenodd" d="M772.064 617.574C771.714 618.098 771.054 618.585 770.165 618.549L770.324 614.547C769.562 614.516 769.002 614.945 768.732 615.35C768.622 615.514 768.569 615.656 768.545 615.73C768.52 615.808 768.511 615.861 768.508 615.874C768.508 615.878 768.507 615.88 768.507 615.88C768.507 615.88 768.512 615.839 768.513 615.741C768.514 615.628 768.51 615.478 768.499 615.282C768.468 614.727 768.396 614.024 768.306 613.142C768.261 612.696 768.21 612.205 768.158 611.663C767.86 608.557 767.553 604.248 768.123 599.831C768.694 595.417 770.161 590.724 773.552 586.999C776.982 583.231 782.169 580.682 789.709 580.199L789.965 584.197C783.25 584.627 779.114 586.839 776.514 589.695C773.876 592.594 772.607 596.389 772.096 600.344C771.586 604.297 771.853 608.238 772.146 611.28C772.189 611.734 772.235 612.179 772.278 612.605C772.375 613.554 772.463 614.41 772.499 615.058C772.524 615.511 772.538 616.048 772.462 616.517C772.427 616.734 772.341 617.159 772.064 617.574Z" fill="#E9ECE0" fill-opacity="0.33"/>
<path fill-rule="evenodd" clip-rule="evenodd" d="M770.019 618.749C770.728 619.869 794.401 601.036 806.915 615.593L770.019 618.749Z" fill="#E9ECE0" fill-opacity="0.33"/>
<path fill-rule="evenodd" clip-rule="evenodd" d="M770.181 619.622C770.021 619.628 769.584 619.606 769.321 619.191L770.716 618.306C770.497 617.962 770.149 617.97 770.121 617.971C770.096 617.972 770.082 617.975 770.082 617.975C770.082 617.975 770.102 617.971 770.147 617.955C770.3 617.904 770.55 617.79 770.917 617.602C771.406 617.352 772.022 617.01 772.761 616.6C773.12 616.401 773.508 616.185 773.925 615.957C776.449 614.571 779.911 612.751 783.758 611.355C791.395 608.582 800.923 607.355 807.541 615.053L806.288 616.13C800.392 609.271 791.827 610.183 784.322 612.908C780.598 614.26 777.226 616.029 774.721 617.405C774.326 617.621 773.949 617.83 773.595 618.026C772.839 618.446 772.184 618.809 771.671 619.072C771.298 619.264 770.955 619.426 770.677 619.52C770.545 619.565 770.367 619.616 770.181 619.622Z" fill="#E9ECE0" fill-opacity="0.33"/>
<path fill-rule="evenodd" clip-rule="evenodd" d="M763.867 626.343C764.948 625.575 744.917 602.908 758.807 589.659L763.867 626.343Z" fill="#E9ECE0" fill-opacity="0.33"/>
<path fill-rule="evenodd" clip-rule="evenodd" d="M765.657 626.056C765.68 626.319 765.696 627.2 764.883 627.777L762.849 624.912C762.103 625.441 762.145 626.231 762.156 626.363C762.167 626.484 762.191 626.569 762.202 626.601C762.202 626.601 762.201 626.6 762.201 626.6C762.169 626.519 762.074 626.326 761.869 625.973C761.601 625.511 761.241 624.934 760.799 624.227C760.58 623.876 760.341 623.493 760.083 623.076C758.563 620.617 756.536 617.205 754.914 613.367C751.719 605.811 749.796 595.826 757.593 588.389L760.018 590.932C753.925 596.744 755.072 604.717 758.151 611.999C759.665 615.58 761.575 618.807 763.072 621.228C763.302 621.599 763.525 621.957 763.738 622.298C764.202 623.041 764.611 623.697 764.909 624.21C765.121 624.576 765.332 624.961 765.467 625.303C765.53 625.46 765.629 625.734 765.657 626.056ZM762.207 626.615C762.206 626.615 762.205 626.61 762.202 626.601C762.205 626.61 762.207 626.615 762.207 626.615Z" fill="#E9ECE0" fill-opacity="0.33"/>
<path fill-rule="evenodd" clip-rule="evenodd" d="M731.019 758.809C731.028 760.152 736.249 643.895 769.26 628.309L731.019 758.809Z" fill="#E9ECE0" fill-opacity="0.33"/>
<path fill-rule="evenodd" clip-rule="evenodd" d="M728.016 758.916L728.015 758.83L734.024 758.791L734.022 758.718C734.021 758.679 734.012 758.556 734.004 758.473C733.962 758.211 732.331 756.119 729.921 756.025C728.826 756.769 728.107 758.084 728.069 758.259C728.057 758.324 728.042 758.423 728.038 758.456L728.031 758.52L728.029 758.546L728.028 758.555C728.028 758.556 728.029 758.545 728.03 758.517L728.037 758.414L728.088 757.558C728.135 756.771 728.208 755.576 728.313 754.025C728.522 750.925 728.858 746.408 729.364 740.903C730.375 729.899 732.069 714.918 734.804 699.387C737.535 683.881 741.325 667.706 746.562 654.367C751.723 641.223 758.593 630.023 767.977 625.593L770.542 631.027C763.42 634.39 757.259 643.567 752.156 656.563C747.13 669.363 743.424 685.091 740.722 700.43C738.025 715.744 736.349 730.55 735.348 741.453C734.847 746.901 734.515 751.369 734.309 754.43C734.205 755.961 734.133 757.14 734.087 757.917L734.035 758.783C734.03 758.869 734.024 758.957 734.019 759.021L734.012 759.099L734.004 759.176C733.999 759.213 733.984 759.315 733.972 759.382C733.933 759.559 733.214 760.875 732.118 761.619C729.708 761.525 728.078 759.432 728.035 759.168C728.031 759.133 728.028 759.091 728.025 759.05C728.021 758.993 728.017 758.941 728.016 758.916Z" fill="#E9ECE0" fill-opacity="0.33"/>
<path fill-rule="evenodd" clip-rule="evenodd" d="M731.018 758.81C731.027 760.153 738.977 672.693 721.102 655.758L731.018 758.81Z" fill="#E9ECE0" fill-opacity="0.33"/>
<path fill-rule="evenodd" clip-rule="evenodd" d="M728.031 759.143C728.014 758.983 728.013 758.854 728.013 758.828L734.022 758.789L734.022 758.787C734.022 758.765 734.022 758.648 734.005 758.498C733.993 758.397 733.932 758.09 733.874 757.889C733.64 757.356 731.914 755.956 730.244 755.921C729.304 756.358 728.397 757.358 728.257 757.643C728.205 757.772 728.138 757.976 728.117 758.049C728.086 758.165 728.07 758.257 728.066 758.278L728.066 758.279C728.059 758.32 728.054 758.351 728.053 758.363C728.053 758.358 728.055 758.347 728.056 758.332C728.067 758.238 728.086 758.054 728.113 757.774C728.166 757.223 728.241 756.36 728.332 755.222C728.514 752.949 728.754 749.599 728.986 745.486C729.451 737.254 729.884 725.989 729.762 714.168C729.64 702.329 728.962 690.027 727.23 679.689C726.365 674.519 725.249 669.92 723.845 666.151C722.428 662.345 720.798 659.608 719.036 657.938L723.169 653.576C725.876 656.141 727.908 659.841 729.476 664.054C731.059 668.304 732.255 673.306 733.157 678.696C734.962 689.478 735.647 702.132 735.771 714.106C735.895 726.1 735.455 737.506 734.986 745.824C734.751 749.986 734.508 753.382 734.322 755.7C734.23 756.859 734.151 757.753 734.095 758.344C734.068 758.634 734.044 758.868 734.025 759.027L734.025 759.03C734.019 759.084 734.004 759.212 733.982 759.335L733.982 759.336C733.976 759.365 733.958 759.466 733.925 759.591C733.904 759.666 733.836 759.872 733.784 760.003C733.642 760.29 732.735 761.291 731.794 761.727C730.124 761.692 728.397 760.292 728.163 759.758C728.105 759.556 728.044 759.247 728.031 759.143Z" fill="#E9ECE0" fill-opacity="0.33"/>
<path fill-rule="evenodd" clip-rule="evenodd" d="M830.686 601.996C830.694 603.338 834.65 520.78 811.019 499.008L830.686 601.996Z" fill="#E9ECE0" fill-opacity="0.33"/>
<path fill-rule="evenodd" clip-rule="evenodd" d="M827.685 602.178C827.681 602.099 827.68 602.034 827.68 602.016L833.689 601.977L833.689 601.976C833.689 601.965 833.689 601.91 833.685 601.838C833.682 601.792 833.669 601.658 833.657 601.571C833.617 601.354 833.047 600.155 832.211 599.424C829.971 599.094 827.944 600.783 827.803 601.166C827.77 601.289 827.73 601.474 827.72 601.533C827.706 601.619 827.699 601.687 827.698 601.698L827.698 601.699C827.695 601.728 827.694 601.746 827.694 601.744C827.694 601.742 827.695 601.729 827.697 601.701C827.702 601.607 827.712 601.429 827.723 601.167C827.746 600.649 827.777 599.835 827.808 598.762C827.87 596.617 827.932 593.446 827.934 589.531C827.937 581.697 827.695 570.912 826.722 559.424C825.748 547.919 824.048 535.801 821.163 525.268C818.251 514.633 814.251 506.073 808.982 501.218L813.054 496.798C819.6 502.83 823.967 512.754 826.959 523.68C829.979 534.708 831.72 547.228 832.71 558.917C833.701 570.622 833.946 581.585 833.943 589.533C833.942 593.51 833.878 596.738 833.815 598.936C833.783 600.035 833.751 600.879 833.726 601.432C833.714 601.707 833.704 601.92 833.695 602.06C833.692 602.111 833.686 602.209 833.677 602.297L833.677 602.298C833.675 602.318 833.668 602.393 833.653 602.485C833.643 602.547 833.603 602.733 833.569 602.857C833.427 603.242 831.4 604.931 829.16 604.601C828.324 603.87 827.754 602.67 827.713 602.451C827.701 602.363 827.688 602.227 827.685 602.178Z" fill="#E9ECE0" fill-opacity="0.33"/>
<path fill-rule="evenodd" clip-rule="evenodd" d="M651.928 824.231C651.937 825.573 665.225 807.413 678.802 771.178L651.928 824.231Z" fill="#E9ECE0" fill-opacity="0.33"/>
<path fill-rule="evenodd" clip-rule="evenodd" d="M649.33 825.774C648.958 825.125 648.924 824.517 648.922 824.25L654.931 824.211C654.93 823.985 654.902 823.41 654.543 822.784C654.099 822.009 653.319 821.465 652.415 821.328C651.686 821.218 651.128 821.41 650.913 821.495C650.658 821.596 650.481 821.709 650.402 821.762C650.284 821.842 650.208 821.909 650.183 821.932C650.197 821.918 650.23 821.884 650.283 821.825C650.559 821.514 651.054 820.883 651.76 819.877C653.15 817.896 655.184 814.707 657.658 810.319C662.601 801.554 669.252 788.096 675.986 770.123L681.614 772.232C674.771 790.493 667.989 804.233 662.892 813.271C660.347 817.786 658.208 821.149 656.68 823.328C655.927 824.402 655.276 825.253 654.771 825.82C654.568 826.048 654.202 826.447 653.759 826.746C653.63 826.833 653.409 826.971 653.116 827.086C652.862 827.186 652.272 827.384 651.517 827.27C650.588 827.129 649.788 826.572 649.33 825.774ZM650.174 821.94C650.174 821.94 650.177 821.937 650.183 821.932C650.177 821.938 650.174 821.941 650.174 821.94Z" fill="#E9ECE0" fill-opacity="0.33"/>
<path fill-rule="evenodd" clip-rule="evenodd" d="M860.015 313.43C803.883 136.34 637.639 8.52829 442.129 9.80221C201.702 11.3688 8.06904 207.542 9.63563 447.968C11.2022 688.394 207.375 882.028 447.802 880.461C490.734 880.181 532.169 873.696 571.266 861.865L573.006 867.617C533.364 879.612 491.356 886.186 447.841 886.47C204.096 888.058 5.21482 691.752 3.6266 448.007C2.03838 204.263 198.344 5.38136 442.089 3.79314C640.308 2.50157 808.838 132.086 865.743 311.614L860.015 313.43Z" fill="#E9ECE0" fill-opacity="0.33"/>
</svg>
