<svg width="40" height="40" viewBox="0 0 40 40" fill="none" xmlns="http://www.w3.org/2000/svg">
<g clip-path="url(#clip0_192_256)">
<path d="M5.00003 6.25012V1.25001C5.00003 0.559012 5.55904 0 6.2502 0C6.94104 0 7.50005 0.559012 7.50005 1.25001V6.25012C7.50005 6.94095 6.94104 7.49996 6.2502 7.49996C5.55904 7.50005 5.00003 6.94095 5.00003 6.25012ZM26.2502 7.50005C26.9409 7.50005 27.5003 6.94103 27.5003 6.2502V1.25001C27.5003 0.559012 26.9409 0 26.2502 0C25.5592 0 24.9998 0.559012 24.9998 1.25001V6.25012C24.9998 6.94095 25.5592 7.50005 26.2502 7.50005ZM39.9999 29.9997C39.9999 35.5227 35.5225 40 29.9999 40C24.4777 40 20 35.5227 20 29.9997C20 24.4775 24.4777 20 29.9999 20C35.5225 20 39.9999 24.4774 39.9999 29.9997ZM37.5002 29.9997C37.5002 25.8645 34.1359 22.4998 30 22.4998C25.8644 22.4998 22.5001 25.8644 22.5001 29.9997C22.5001 34.1357 25.8644 37.4999 30 37.4999C34.1359 37.4999 37.5002 34.1357 37.5002 29.9997ZM10.0001 15H5.00003V20H10.0001V15ZM5.00003 27.5H10.0001V22.4998H5.00003V27.5ZM12.5 20H17.5002V15H12.5V20ZM12.5 27.5H17.5002V22.4998H12.5V27.5ZM2.50018 29.7511V12.4999H30V17.5H32.5001V7.74917C32.5001 6.23058 31.2889 4.99995 29.7926 4.99995H28.75V6.2502C28.75 7.627 27.6292 8.75014 26.2503 8.75014C24.8711 8.75014 23.7503 7.627 23.7503 6.2502V4.99995H8.74997V6.2502C8.74997 7.627 7.62939 8.75014 6.25029 8.75014C4.87085 8.75014 3.75019 7.627 3.75019 6.2502V4.99995H2.70883C1.21242 4.99995 8.39233e-05 6.23058 8.39233e-05 7.74917V29.7512C8.39233e-05 31.2648 1.21242 32.5002 2.70883 32.5002H17.5002V29.9998H2.70883C2.59556 29.9997 2.50018 29.8827 2.50018 29.7511ZM24.9998 20V15H20.0001V20H24.9998ZM33.75 29.9997H29.9999V26.2496C29.9999 25.559 29.4409 25 28.7499 25C28.0589 25 27.5003 25.559 27.5003 26.2496V31.2501C27.5003 31.9408 28.0589 32.5001 28.7499 32.5001H33.75C34.441 32.5001 35.0001 31.9408 35.0001 31.2501C35.0001 30.5591 34.441 29.9997 33.75 29.9997Z" fill="white"/>
</g>
<defs>
<clipPath id="clip0_192_256">
<rect width="40" height="39.9999" fill="white"/>
</clipPath>
</defs>
</svg>
