<svg width="40" height="40" viewBox="0 0 40 40" fill="none" xmlns="http://www.w3.org/2000/svg">
<g clip-path="url(#clip0_192_293)">
<path d="M11.25 17.5C10.0139 17.5 8.80549 17.1334 7.77768 16.4467C6.74988 15.7599 5.9488 14.7838 5.47575 13.6418C5.0027 12.4997 4.87893 11.2431 5.12009 10.0307C5.36125 8.81831 5.9565 7.70466 6.83058 6.83059C7.70466 5.95651 8.8183 5.36125 10.0307 5.12009C11.2431 4.87894 12.4997 5.00271 13.6418 5.47576C14.7838 5.9488 15.7599 6.74988 16.4467 7.77769C17.1334 8.8055 17.5 10.0139 17.5 11.25C17.4982 12.907 16.8391 14.4957 15.6674 15.6674C14.4957 16.8391 12.907 17.4982 11.25 17.5ZM11.25 7.5C10.5083 7.5 9.78329 7.71994 9.16661 8.13199C8.54993 8.54405 8.06928 9.12972 7.78545 9.81494C7.50162 10.5002 7.42736 11.2542 7.57205 11.9816C7.71675 12.709 8.0739 13.3772 8.59835 13.9017C9.1228 14.4261 9.79098 14.7833 10.5184 14.9279C11.2458 15.0726 11.9998 14.9984 12.6851 14.7146C13.3703 14.4307 13.956 13.9501 14.368 13.3334C14.7801 12.7167 15 11.9917 15 11.25C14.9989 10.2558 14.6035 9.30258 13.9004 8.59956C13.1974 7.89653 12.2442 7.50109 11.25 7.5Z" fill="white"/>
<path d="M33.2324 5.00004L4.99999 33.2324L6.76758 35L35 6.76763L33.2324 5.00004Z" fill="white"/>
<path d="M28.75 35C27.5139 35 26.3055 34.6334 25.2777 33.9467C24.2499 33.2599 23.4488 32.2838 22.9758 31.1418C22.5027 29.9997 22.3789 28.7431 22.6201 27.5307C22.8613 26.3183 23.4565 25.2047 24.3306 24.3306C25.2047 23.4565 26.3183 22.8613 27.5307 22.6201C28.7431 22.3789 29.9997 22.5027 31.1418 22.9758C32.2838 23.4488 33.2599 24.2499 33.9467 25.2777C34.6334 26.3055 35 27.5139 35 28.75C34.9982 30.407 34.3391 31.9957 33.1674 33.1674C31.9957 34.3391 30.407 34.9982 28.75 35ZM28.75 25C28.0083 25 27.2833 25.2199 26.6666 25.632C26.0499 26.044 25.5693 26.6297 25.2855 27.3149C25.0016 28.0002 24.9274 28.7542 25.0721 29.4816C25.2168 30.209 25.5739 30.8772 26.0984 31.4017C26.6228 31.9261 27.291 32.2833 28.0184 32.4279C28.7458 32.5726 29.4998 32.4984 30.1851 32.2146C30.8703 31.9307 31.456 31.4501 31.868 30.8334C32.2801 30.2167 32.5 29.4917 32.5 28.75C32.4989 27.7558 32.1035 26.8026 31.4004 26.0996C30.6974 25.3965 29.7442 25.0011 28.75 25Z" fill="white"/>
</g>
<defs>
<clipPath id="clip0_192_293">
<rect width="40" height="40" fill="white"/>
</clipPath>
</defs>
</svg>
