<svg width="35" height="36" viewBox="0 0 35 36" fill="none" xmlns="http://www.w3.org/2000/svg">
<g clip-path="url(#clip0_1_1203)">
<path d="M17.4356 9.47729C12.4928 9.47729 8.49116 13.4833 8.49116 18.4218C8.49116 23.3646 12.4972 27.3663 17.4356 27.3663C22.3785 27.3663 26.3801 23.3603 26.3801 18.4218C26.3801 13.4789 22.3741 9.47729 17.4356 9.47729V9.47729ZM17.4356 24.2274C14.2271 24.2274 11.63 21.6289 11.63 18.4218C11.63 15.2147 14.2285 12.6161 17.4356 12.6161C20.6428 12.6161 23.2413 15.2147 23.2413 18.4218C23.2427 21.6289 20.6442 24.2274 17.4356 24.2274V24.2274Z" fill="white"/>
<path d="M24.617 1.10803C21.4099 0.958427 13.4662 0.965689 10.2561 1.10803C7.43539 1.24021 4.94726 1.92143 2.94136 3.92734C-0.411014 7.27971 0.017474 11.797 0.017474 18.4218C0.017474 25.2021 -0.360176 29.6148 2.94136 32.9163C6.3068 36.2803 10.8894 35.8402 17.4359 35.8402C24.1522 35.8402 26.4704 35.8446 28.8452 34.9251C32.0741 33.6716 34.5114 30.7855 34.7497 25.6015C34.9007 22.393 34.892 14.4507 34.7497 11.2407C34.4621 5.12129 31.178 1.41015 24.617 1.10803V1.10803ZM29.6935 30.6984C27.4959 32.896 24.4471 32.6999 17.3937 32.6999C10.1312 32.6999 7.21897 32.8074 5.09396 30.6766C2.6465 28.2407 3.08951 24.3292 3.08951 18.3986C3.08951 10.3735 2.26594 4.59403 10.3201 4.18152C12.1705 4.11616 12.7152 4.09437 17.3734 4.09437L17.4388 4.13795C25.1791 4.13795 31.252 3.32745 31.6166 11.3801C31.6994 13.2175 31.7183 13.7695 31.7183 18.4204C31.7168 25.5986 31.8534 28.5283 29.6935 30.6984V30.6984Z" fill="white"/>
<path d="M26.7346 11.215C27.889 11.215 28.8248 10.2792 28.8248 9.12481C28.8248 7.97046 27.889 7.03467 26.7346 7.03467C25.5803 7.03467 24.6445 7.97046 24.6445 9.12481C24.6445 10.2792 25.5803 11.215 26.7346 11.215Z" fill="white"/>
</g>
<defs>
<clipPath id="clip0_1_1203">
<rect width="34.86" height="34.86" fill="white" transform="translate(-0.000114441 0.998047)"/>
</clipPath>
</defs>
</svg>
