<svg width="172" height="183" viewBox="0 0 172 183" fill="none" xmlns="http://www.w3.org/2000/svg">
<path fill-rule="evenodd" clip-rule="evenodd" d="M80.3271 13.2134C125.784 15.2066 150.425 38.8144 164.409 62.0738L163.405 62.6772C149.575 39.6728 125.254 16.3555 80.2758 14.3832L80.3271 13.2134Z" fill="white"/>
<path fill-rule="evenodd" clip-rule="evenodd" d="M99.2467 16.0573C99.5083 16.0573 93.9594 7.76548 87.4052 5.36963L99.2467 16.0573Z" fill="white"/>
<path fill-rule="evenodd" clip-rule="evenodd" d="M99.6037 16.5254C99.4807 16.618 99.3478 16.6445 99.2467 16.6445V15.4736C99.1497 15.4736 99.0202 15.4991 98.8998 15.5896C98.7813 15.6788 98.7233 15.7921 98.6967 15.8758C98.6533 16.0126 98.6753 16.1246 98.6791 16.1441L98.6794 16.1456C98.6855 16.1774 98.6934 16.2007 98.6972 16.2106C98.6968 16.2097 98.6963 16.2087 98.6958 16.2076C98.6822 16.1776 98.6468 16.1104 98.5804 16.0003C98.4517 15.7868 98.2404 15.4673 97.9532 15.0678C97.38 14.2706 96.5206 13.1773 95.4502 12.0092C93.2967 9.65893 90.3482 7.07056 87.2043 5.9213L87.6063 4.82153C91.0165 6.06811 94.1195 8.82356 96.3136 11.2181C97.417 12.4224 98.3054 13.5519 98.9039 14.3842C99.2024 14.7995 99.4329 15.1465 99.5832 15.3958C99.6564 15.5171 99.7197 15.6304 99.7618 15.7231C99.7788 15.7605 99.8124 15.8368 99.8293 15.9248L99.8294 15.9254C99.8355 15.9568 99.8596 16.0826 99.8127 16.2302C99.7849 16.3179 99.7249 16.4343 99.6037 16.5254ZM98.6994 16.216C98.6993 16.2159 98.6985 16.2141 98.6972 16.2106C98.6988 16.2143 98.6995 16.216 98.6994 16.216Z" fill="white"/>
<path fill-rule="evenodd" clip-rule="evenodd" d="M87.9066 5.5661C87.924 5.14629 87.4576 0.631429 80.8012 1.49885L87.9066 5.5661Z" fill="white"/>
<path fill-rule="evenodd" clip-rule="evenodd" d="M88.1116 4.51544C88.2672 5.01718 88.3022 5.42317 88.2956 5.58173L87.5157 5.54943C87.5179 5.49808 87.5011 5.18229 87.3661 4.74652C87.2333 4.31816 86.9921 3.7938 86.563 3.30745C85.7226 2.35487 84.0838 1.46402 80.8507 1.88534L80.7498 1.11131C84.1732 0.665209 86.0958 1.59808 87.1483 2.79103C87.6657 3.37744 87.9538 4.0063 88.1116 4.51544Z" fill="white"/>
<path fill-rule="evenodd" clip-rule="evenodd" d="M80.9177 13.3514C81.1966 13.4379 84.3126 13.929 84.9158 9.30298L80.9177 13.3514Z" fill="white"/>
<path fill-rule="evenodd" clip-rule="evenodd" d="M81.5793 13.5097C81.2297 13.5242 80.9709 13.4766 80.888 13.4509L80.9473 13.2597C81.0039 13.2773 81.2391 13.3235 81.5711 13.3098C81.901 13.2961 82.321 13.2235 82.7503 13.0088C83.6028 12.5825 84.5181 11.5826 84.8166 9.29395L85.015 9.31982C84.7102 11.6572 83.7659 12.7247 82.8398 13.1878C82.3799 13.4178 81.9309 13.4952 81.5793 13.5097Z" fill="white"/>
<path fill-rule="evenodd" clip-rule="evenodd" d="M82.3466 14.1453C82.2323 14.3277 81.1177 16.2907 84.3006 17.5951L82.3466 14.1453Z" fill="white"/>
<path fill-rule="evenodd" clip-rule="evenodd" d="M81.752 15.501C81.6284 14.7041 81.9864 14.081 82.0592 13.9648L82.6338 14.3249C82.5923 14.3911 82.3358 14.8407 82.422 15.3971C82.5031 15.9196 82.9081 16.6577 84.4291 17.281L84.1719 17.9084C82.5099 17.2273 81.8808 16.3317 81.752 15.501Z" fill="white"/>
<path fill-rule="evenodd" clip-rule="evenodd" d="M87.9066 5.5653C87.924 5.14549 86.8588 4.96799 80.8012 1.49805L87.9066 5.5653Z" fill="white"/>
<path fill-rule="evenodd" clip-rule="evenodd" d="M87.8741 4.91567C88.0746 5.05128 88.3101 5.24969 88.2964 5.57977L87.5165 5.54747C87.5143 5.60254 87.5359 5.63632 87.5423 5.64481C87.5356 5.63745 87.5085 5.61076 87.4368 5.56226C87.268 5.44808 86.9715 5.29003 86.452 5.02013C86.3836 4.98464 86.3119 4.94743 86.2366 4.90838C85.1851 4.36299 83.4401 3.45789 80.6071 1.83503L80.995 1.15771C83.8142 2.77258 85.5481 3.67195 86.5964 4.21566C86.6717 4.25472 86.7434 4.29194 86.8118 4.32746C87.3136 4.58816 87.6588 4.77007 87.8741 4.91567ZM87.5441 5.64693C87.544 5.64693 87.5434 5.64622 87.5423 5.64481C87.5436 5.64624 87.5441 5.64694 87.5441 5.64693Z" fill="white"/>
<path fill-rule="evenodd" clip-rule="evenodd" d="M80.9177 13.3514C81.1966 13.4379 81.5056 12.7539 84.9158 9.30298L80.9177 13.3514Z" fill="white"/>
<path fill-rule="evenodd" clip-rule="evenodd" d="M81.2462 13.3178C81.1228 13.4254 81.0129 13.4874 80.888 13.4487L80.9473 13.2575C80.9618 13.262 80.9952 13.2711 81.1147 13.1669C81.2308 13.0657 81.3976 12.8858 81.6685 12.5881C81.7045 12.5485 81.7423 12.507 81.7819 12.4633C82.3351 11.8548 83.2522 10.8458 84.8446 9.23438L84.987 9.37505C83.3974 10.9836 82.4825 11.9901 81.93 12.598C81.8903 12.6416 81.8525 12.6832 81.8165 12.7228C81.549 13.0167 81.3731 13.2072 81.2462 13.3178Z" fill="white"/>
<path fill-rule="evenodd" clip-rule="evenodd" d="M82.347 14.1453C82.2327 14.3278 82.6617 14.6772 84.4767 17.7602L82.347 14.1453Z" fill="white"/>
<path fill-rule="evenodd" clip-rule="evenodd" d="M82.0712 14.5029C82.0148 14.3883 81.9263 14.1763 82.0587 13.9648L82.6333 14.3248C82.6797 14.2508 82.668 14.1845 82.6636 14.1675C82.6656 14.1731 82.6703 14.1847 82.6794 14.2033C82.7212 14.288 82.8076 14.4257 82.9722 14.6808C82.9936 14.7139 83.0161 14.7487 83.0397 14.7852C83.3695 15.2955 83.9175 16.1434 84.7678 17.5877L84.1835 17.9317C83.3403 16.4994 82.7982 15.6606 82.47 15.1529C82.4464 15.1164 82.4239 15.0816 82.4025 15.0484C82.2473 14.808 82.1344 14.6313 82.0712 14.5029ZM82.6622 14.1632C82.6623 14.1633 82.6628 14.1647 82.6636 14.1675C82.6625 14.1645 82.6621 14.1632 82.6622 14.1632Z" fill="white"/>
<path fill-rule="evenodd" clip-rule="evenodd" d="M87.9066 5.5653C87.924 5.14549 82.7486 7.92146 80.8012 1.49805L87.9066 5.5653Z" fill="white"/>
<path fill-rule="evenodd" clip-rule="evenodd" d="M88.1327 5.22786C88.25 5.31893 88.3019 5.45418 88.2966 5.58262L87.5167 5.55032C87.5125 5.65252 87.5554 5.76777 87.6539 5.84433C87.7267 5.90081 87.7957 5.90867 87.8062 5.90987L87.8066 5.90992C87.8133 5.91069 87.8172 5.91082 87.8172 5.91099C87.8172 5.91137 87.7981 5.91191 87.7484 5.91993C87.6712 5.9324 87.5813 5.95139 87.4675 5.97543C87.3789 5.99416 87.2758 6.01595 87.1529 6.04011C86.6262 6.14361 85.8751 6.25911 85.0499 6.17234C84.2194 6.08502 83.3114 5.79247 82.4816 5.08205C81.6536 4.37317 80.9308 3.27168 80.4277 1.61245L81.1747 1.38599C81.6454 2.93847 82.2997 3.89877 82.9893 4.48909C83.677 5.07788 84.427 5.32197 85.1315 5.39605C85.8415 5.4707 86.5027 5.37238 87.0024 5.27419C87.0942 5.25614 87.1872 5.23663 87.2753 5.21814C87.41 5.18986 87.5334 5.16397 87.624 5.14933C87.6956 5.13778 87.7992 5.12337 87.8957 5.13444C87.9422 5.13979 88.0404 5.15615 88.1327 5.22786Z" fill="white"/>
<path fill-rule="evenodd" clip-rule="evenodd" d="M80.9177 13.3514C81.1966 13.4379 80.2539 9.46662 84.9158 9.30298L80.9177 13.3514Z" fill="white"/>
<path fill-rule="evenodd" clip-rule="evenodd" d="M81.0016 13.4293C80.9672 13.4555 80.9255 13.4603 80.8885 13.4488L80.9478 13.2577C80.9283 13.2516 80.9016 13.2539 80.8803 13.2701C80.8681 13.2794 80.864 13.2886 80.864 13.2887C80.864 13.2888 80.8642 13.2883 80.8646 13.2873C80.8686 13.2771 80.8742 13.2513 80.8792 13.2009C80.8849 13.1439 80.8886 13.0732 80.893 12.9876C80.8962 12.9245 80.8999 12.8533 80.9051 12.7737C80.929 12.4074 80.9838 11.9023 81.1801 11.3872C81.3768 10.8708 81.7159 10.3438 82.3073 9.93621C82.8981 9.52898 83.733 9.24624 84.9128 9.20483L84.9198 9.40485C83.7686 9.44525 82.9732 9.72029 82.4208 10.101C81.869 10.4814 81.5523 10.9724 81.3671 11.4585C81.1814 11.9458 81.1283 12.4275 81.1048 12.7867C81.1001 12.8583 81.0966 12.9267 81.0933 12.9897C81.0886 13.0808 81.0844 13.1603 81.0784 13.2208C81.0734 13.271 81.0661 13.3218 81.051 13.3603C81.0436 13.3792 81.0296 13.408 81.0016 13.4293Z" fill="white"/>
<path fill-rule="evenodd" clip-rule="evenodd" d="M82.3462 14.1453C82.2319 14.3277 85.2405 14.6735 84.4759 18.0271L82.3462 14.1453Z" fill="white"/>
<path fill-rule="evenodd" clip-rule="evenodd" d="M82.0278 14.2835C81.988 14.1787 81.9991 14.0617 82.0593 13.9655L82.6338 14.3256C82.6869 14.2409 82.6969 14.1356 82.6618 14.043C82.6348 13.972 82.591 13.9338 82.5809 13.9252C82.5693 13.9152 82.561 13.9102 82.561 13.9102C82.561 13.9101 82.5673 13.9139 82.5831 13.9215C82.6192 13.9388 82.6613 13.9564 82.7174 13.98C82.7602 13.9979 82.8111 14.0193 82.8738 14.0466C83.1384 14.1616 83.5135 14.3416 83.8707 14.6355C84.2306 14.9316 84.574 15.3448 84.7709 15.9224C84.9676 16.4995 85.0092 17.2152 84.8068 18.1028L84.1457 17.9521C84.3257 17.1628 84.2779 16.5777 84.1291 16.1411C83.9804 15.7049 83.7223 15.3914 83.4399 15.1591C83.1548 14.9245 82.847 14.7743 82.6034 14.6684C82.5637 14.6511 82.5214 14.6333 82.4801 14.6158C82.4079 14.5854 82.3384 14.5561 82.2901 14.5329C82.2545 14.5158 82.1919 14.4849 82.1392 14.4396C82.1135 14.4176 82.0594 14.3667 82.0278 14.2835Z" fill="white"/>
<path fill-rule="evenodd" clip-rule="evenodd" d="M141.417 28.3125C141.795 27.8847 145.355 20.2053 137.409 17.9395L141.417 28.3125Z" fill="white"/>
<path fill-rule="evenodd" clip-rule="evenodd" d="M141.786 28.2993C141.74 28.3806 141.691 28.4608 141.644 28.5141L141.19 28.113C141.189 28.1135 141.189 28.1138 141.189 28.1138C141.189 28.1138 141.195 28.1065 141.207 28.0879C141.22 28.0677 141.237 28.0397 141.257 28.0036C141.297 27.9315 141.347 27.8331 141.404 27.7109C141.517 27.4666 141.651 27.1341 141.779 26.738C142.035 25.944 142.258 24.9082 142.231 23.8238C142.204 22.7415 141.929 21.6211 141.197 20.6379C140.467 19.6562 139.261 18.7839 137.325 18.2319L137.491 17.6492C139.529 18.2301 140.858 19.1674 141.683 20.2762C142.507 21.3836 142.808 22.6346 142.837 23.8088C142.866 24.981 142.625 26.0868 142.356 26.9238C142.22 27.3432 142.077 27.6985 141.954 27.965C141.892 28.0981 141.835 28.2108 141.786 28.2993Z" fill="white"/>
<path fill-rule="evenodd" clip-rule="evenodd" d="M80.3009 14.5576C79.9255 14.1278 72.7705 9.60489 69.4969 17.1921L80.3009 14.5576Z" fill="white"/>
<path fill-rule="evenodd" clip-rule="evenodd" d="M80.3228 14.2057C80.3975 14.2613 80.4692 14.3196 80.5144 14.3713L80.0878 14.7438C80.0883 14.7443 80.0883 14.7443 80.0877 14.7438C80.0859 14.742 80.0787 14.7348 80.0631 14.7216C80.0443 14.7056 80.0184 14.6851 79.9849 14.6602C79.9181 14.6105 79.8266 14.5477 79.7124 14.4757C79.4841 14.3318 79.1711 14.155 78.794 13.9769C78.0384 13.62 77.038 13.2637 75.9563 13.15C74.8766 13.0365 73.7256 13.1653 72.6518 13.7662C71.5794 14.3663 70.556 15.4526 69.7571 17.3042L69.2371 17.0799C70.075 15.1378 71.1736 13.9444 72.3752 13.272C73.5753 12.6005 74.8504 12.4643 76.0155 12.5868C77.1788 12.7091 78.2421 13.0899 79.0359 13.4649C79.4336 13.6527 79.7667 13.8405 80.0143 13.9966C80.1381 14.0746 80.242 14.1456 80.3228 14.2057Z" fill="white"/>
<path fill-rule="evenodd" clip-rule="evenodd" d="M80.7946 14.1775C80.886 13.8163 79.9049 7.73965 72.8421 7.21069L80.7946 14.1775Z" fill="white"/>
<path fill-rule="evenodd" clip-rule="evenodd" d="M81.1559 14.0257C81.1597 14.0882 81.1632 14.1845 81.1423 14.2674L80.4458 14.0912C80.4414 14.1086 80.4404 14.1194 80.4403 14.1194C80.4401 14.1193 80.441 14.1047 80.4388 14.0689C80.4358 14.0188 80.4281 13.9466 80.4134 13.854C80.3843 13.6693 80.3296 13.4162 80.2393 13.1163C80.0585 12.5165 79.7382 11.7414 79.2042 10.9617C78.1438 9.41345 76.2282 7.82631 72.8147 7.57066L72.8683 6.85425C76.5176 7.12755 78.624 8.8432 79.797 10.5558C80.3797 11.4066 80.729 12.2514 80.9272 12.909C81.0263 13.238 81.0885 13.5229 81.1231 13.7419C81.1403 13.851 81.1512 13.9469 81.1559 14.0257Z" fill="white"/>
<path fill-rule="evenodd" clip-rule="evenodd" d="M82.4416 13.9681C82.0761 13.8954 76.0878 15.0094 75.9245 22.0903L82.4416 13.9681Z" fill="white"/>
<path fill-rule="evenodd" clip-rule="evenodd" d="M82.2987 13.8445C82.3623 13.8387 82.4234 13.8365 82.4657 13.8449L82.4176 14.087C82.4178 14.087 82.4177 14.087 82.4174 14.087C82.4159 14.0868 82.4083 14.086 82.3923 14.0862C82.3746 14.0863 82.351 14.0875 82.3213 14.0903C82.2621 14.0957 82.1829 14.1068 82.0861 14.125C81.8929 14.1612 81.6337 14.225 81.3311 14.3257C80.7257 14.5273 79.9499 14.8756 79.1806 15.4438C77.646 16.5772 76.1286 18.5913 76.0479 22.0911L75.8012 22.0854C75.8838 18.5043 77.4422 16.4209 79.034 15.2453C79.8278 14.6589 80.6278 14.2998 81.2531 14.0916C81.5658 13.9875 81.8358 13.9208 82.0406 13.8824C82.1429 13.8632 82.23 13.8509 82.2987 13.8445Z" fill="white"/>
<path fill-rule="evenodd" clip-rule="evenodd" d="M98.0033 24.2688C97.8779 24.8256 93.7392 32.2094 87.2482 27.0959L98.0033 24.2688Z" fill="white"/>
<path fill-rule="evenodd" clip-rule="evenodd" d="M97.6353 24.1878C97.6367 24.184 97.637 24.1834 97.6365 24.1856L98.3718 24.3513C98.3544 24.4289 98.3152 24.5223 98.2758 24.607C98.2321 24.701 98.1734 24.8151 98.1008 24.9442C97.9555 25.2027 97.7499 25.5296 97.4874 25.8872C96.9637 26.6005 96.2027 27.4501 95.2268 28.1192C94.2488 28.7897 93.044 29.2857 91.645 29.2662C90.2437 29.2467 88.69 28.7105 87.0158 27.3916L87.4823 26.7995C89.0535 28.0373 90.4513 28.4957 91.6555 28.5125C92.862 28.5293 93.9169 28.1033 94.8006 27.4975C95.6864 26.8902 96.3893 26.1091 96.8798 25.4411C97.1243 25.108 97.3133 24.8067 97.4437 24.5748C97.509 24.4587 97.5584 24.3621 97.5923 24.2892C97.6199 24.2298 97.6316 24.1979 97.6353 24.1878Z" fill="white"/>
<path fill-rule="evenodd" clip-rule="evenodd" d="M141.417 28.3125C141.795 27.8847 140.824 26.7853 137.409 17.9395L141.417 28.3125Z" fill="white"/>
<path fill-rule="evenodd" clip-rule="evenodd" d="M141.72 27.6666C141.813 27.9756 141.854 28.2742 141.643 28.5122L141.189 28.1113C141.189 28.1119 141.188 28.113 141.188 28.1143C141.188 28.1147 141.188 28.1149 141.188 28.1149C141.188 28.1152 141.189 28.11 141.19 28.096C141.191 28.0573 141.182 27.9823 141.14 27.8422C141.055 27.5616 140.871 27.1267 140.557 26.4026C140.515 26.3068 140.471 26.2062 140.425 26.1006C139.784 24.6262 138.721 22.1808 137.125 18.0478L137.691 17.8296C139.282 21.951 140.341 24.3874 140.981 25.8593C141.027 25.9649 141.071 26.0655 141.112 26.1614C141.421 26.8713 141.622 27.3444 141.72 27.6666Z" fill="white"/>
<path fill-rule="evenodd" clip-rule="evenodd" d="M80.3009 14.5592C79.9255 14.1293 78.7099 14.9501 69.4969 17.1936L80.3009 14.5592Z" fill="white"/>
<path fill-rule="evenodd" clip-rule="evenodd" d="M79.7039 14.1921C80.0219 14.1393 80.3131 14.1398 80.5144 14.3704L80.0879 14.7429L80.0859 14.7408L80.0854 14.7403C80.0854 14.7403 80.0854 14.7403 80.0853 14.7403M79.7039 14.1921C79.3731 14.247 78.8793 14.3853 78.135 14.5992L79.7039 14.1921ZM78.135 14.5992C78.0344 14.6281 77.9289 14.6585 77.8181 14.6905L78.135 14.5992ZM77.8181 14.6905C76.2758 15.1349 73.7226 15.8707 69.4301 16.916L77.8181 14.6905ZM69.4301 16.916L69.5641 17.4662L69.4301 16.916ZM69.5641 17.4662C73.8679 16.4182 76.4298 15.6799 77.9746 15.2347L69.5641 17.4662ZM77.9746 15.2347C78.0854 15.2028 78.1909 15.1724 78.2915 15.1435L77.9746 15.2347ZM78.2915 15.1435C79.0496 14.9255 79.5059 14.799 79.7966 14.7508L78.2915 15.1435ZM79.7966 14.7508C79.9417 14.7267 80.0197 14.727 80.0611 14.7338L79.7966 14.7508ZM80.0611 14.7338C80.0791 14.7368 80.0852 14.7402 80.0852 14.7402L80.0611 14.7338ZM80.0852 14.7402C80.0853 14.7402 80.0853 14.7402 80.0853 14.7403L80.0852 14.7402Z" fill="white"/>
<path fill-rule="evenodd" clip-rule="evenodd" d="M150.262 51.6347C150.115 51.1356 148.158 51.2287 135.985 48.8621L150.262 51.6347Z" fill="white"/>
<path fill-rule="evenodd" clip-rule="evenodd" d="M150.289 51.1365C150.432 51.2147 150.571 51.3356 150.628 51.5284L149.897 51.7452C149.912 51.794 149.939 51.8153 149.939 51.8155C149.939 51.8156 149.935 51.8124 149.924 51.8063C149.876 51.7806 149.779 51.7433 149.589 51.6959C149.213 51.6021 148.593 51.4957 147.571 51.3271C147.435 51.3047 147.293 51.2813 147.143 51.2566C145.057 50.9132 141.597 50.3437 135.913 49.2386L136.058 48.4897C141.732 49.5928 145.183 50.1609 147.268 50.504C147.417 50.5286 147.56 50.5521 147.696 50.5745C148.703 50.7408 149.361 50.8527 149.774 50.9557C149.978 51.0068 150.153 51.0626 150.289 51.1365Z" fill="white"/>
<path fill-rule="evenodd" clip-rule="evenodd" d="M80.7943 14.1777C80.8857 13.8164 79.6473 13.1582 73.0197 7.24951L80.7943 14.1777Z" fill="white"/>
<path fill-rule="evenodd" clip-rule="evenodd" d="M81.0675 13.8339C81.1341 13.946 81.1857 14.095 81.1429 14.2644L80.4464 14.0882C80.429 14.1571 80.4517 14.2035 80.4515 14.2036C80.4515 14.2036 80.451 14.2026 80.4498 14.2006C80.4359 14.1772 80.396 14.1249 80.2976 14.0275C80.1037 13.8354 79.764 13.5457 79.1956 13.0673C79.1203 13.0039 79.0412 12.9373 78.9582 12.8675C77.7991 11.8928 75.877 10.2764 72.781 7.51623L73.2591 6.97998C76.3474 9.73329 78.2634 11.3446 79.4208 12.3179C79.5038 12.3877 79.5829 12.4542 79.6583 12.5177C80.2165 12.9876 80.5835 13.2995 80.8032 13.517C80.9116 13.6244 81.0053 13.729 81.0675 13.8339Z" fill="white"/>
<path fill-rule="evenodd" clip-rule="evenodd" d="M82.4416 13.9677C82.0761 13.8951 81.4828 15.1658 75.9245 22.09L82.4416 13.9677Z" fill="white"/>
<path fill-rule="evenodd" clip-rule="evenodd" d="M82.2165 13.9071C82.2946 13.8551 82.3771 13.827 82.466 13.8446L82.4179 14.0867L82.4176 14.0866C82.4145 14.086 82.3983 14.0826 82.3533 14.1125C82.3048 14.1448 82.2384 14.2059 82.1431 14.3126C81.9534 14.5251 81.6748 14.8886 81.229 15.4775C81.1696 15.556 81.1073 15.6384 81.0418 15.7249C80.1288 16.9322 78.6154 18.9333 76.0211 22.1652L75.8286 22.0107C78.4208 18.7815 79.9325 16.7827 80.8451 15.576C80.9105 15.4895 80.9728 15.407 81.0323 15.3285C81.4753 14.7433 81.761 14.37 81.959 14.1482C82.0576 14.0379 82.1409 13.9574 82.2165 13.9071Z" fill="white"/>
<path fill-rule="evenodd" clip-rule="evenodd" d="M98.0033 24.2688C97.8779 24.8256 96.4181 24.6824 87.2482 27.0959L98.0033 24.2688Z" fill="white"/>
<path fill-rule="evenodd" clip-rule="evenodd" d="M97.6507 24.1556C97.6461 24.1616 97.6398 24.1722 97.6362 24.1881L98.3716 24.3538C98.2924 24.7052 97.9899 24.8587 97.6828 24.9645C97.3594 25.0759 96.8529 25.1907 96.0989 25.3564C95.9967 25.3788 95.8895 25.4023 95.7771 25.4269C94.2096 25.7703 91.6155 26.3385 87.3447 27.4625L87.1529 26.7336C91.4386 25.6056 94.0445 25.0348 95.6154 24.6907C95.7278 24.666 95.835 24.6426 95.9371 24.6201C96.71 24.4503 97.1651 24.3456 97.4373 24.2518C97.5803 24.2026 97.6345 24.1685 97.6507 24.1556ZM97.6565 24.1499C97.6569 24.15 97.6554 24.1519 97.6507 24.1556C97.6537 24.1517 97.6561 24.1499 97.6565 24.1499Z" fill="white"/>
<path fill-rule="evenodd" clip-rule="evenodd" d="M141.417 28.3125C141.428 20.6559 140.617 22.0557 137.409 17.9395L141.417 28.3125Z" fill="white"/>
<path fill-rule="evenodd" clip-rule="evenodd" d="M140.887 21.6562C141.532 22.856 141.726 24.4992 141.72 28.3141L141.114 28.3132C141.12 24.4715 140.914 22.9863 140.354 21.9429C140.073 21.4207 139.697 20.9964 139.168 20.4275C139.123 20.3786 139.077 20.3289 139.029 20.278C138.527 19.7393 137.911 19.0781 137.17 18.1269L137.648 17.7544C138.372 18.6839 138.972 19.3277 139.473 19.8657C139.521 19.9163 139.567 19.9661 139.612 20.015C140.138 20.5806 140.565 21.0567 140.887 21.6562Z" fill="white"/>
<path fill-rule="evenodd" clip-rule="evenodd" d="M80.3009 14.5585C72.7099 13.5579 73.9932 14.5432 69.4969 17.1929L80.3009 14.5585Z" fill="white"/>
<path fill-rule="evenodd" clip-rule="evenodd" d="M73.6388 14.2399C74.9065 13.7579 76.5558 13.7768 80.3389 14.2755L80.2649 14.8369C76.457 14.335 74.9526 14.3463 73.8401 14.7692C73.2833 14.9809 72.8121 15.3005 72.1798 15.7511C72.1255 15.7898 72.0701 15.8293 72.0136 15.8697C71.4145 16.2978 70.6799 16.8228 69.6417 17.4346L69.3542 16.9467C70.3703 16.3479 71.0868 15.8359 71.685 15.4085C71.7414 15.3682 71.7967 15.3287 71.8511 15.2899C72.48 14.8418 73.0054 14.4807 73.6388 14.2399Z" fill="white"/>
<path fill-rule="evenodd" clip-rule="evenodd" d="M150.262 51.6363C142.135 47.4858 142.964 48.8179 135.985 48.8637L150.262 51.6363Z" fill="white"/>
<path fill-rule="evenodd" clip-rule="evenodd" d="M142.734 48.2972C144.495 48.4858 146.378 49.224 150.437 51.2967L150.09 51.9761C146.021 49.8983 144.255 49.2273 142.653 49.0557C141.849 48.9696 141.075 49.008 140.042 49.0746C139.954 49.0804 139.863 49.0863 139.771 49.0923C138.791 49.1564 137.594 49.2346 135.988 49.2452L135.983 48.4823C137.566 48.472 138.743 48.395 139.722 48.3311C139.814 48.325 139.904 48.3191 139.993 48.3134C141.022 48.247 141.857 48.2033 142.734 48.2972Z" fill="white"/>
<path fill-rule="evenodd" clip-rule="evenodd" d="M98.0033 24.2688C91.8044 28.7627 92.4637 27.2853 87.2482 27.0959L98.0033 24.2688Z" fill="white"/>
<path fill-rule="evenodd" clip-rule="evenodd" d="M92.2076 27.064C93.36 26.91 94.6697 26.2194 97.7827 23.9626L98.2251 24.5729C95.1391 26.8102 93.6789 27.6278 92.3075 27.8112C91.6224 27.9028 90.9772 27.8336 90.2116 27.7391C90.1452 27.7309 90.0778 27.7225 90.009 27.7139C89.2797 27.6228 88.4094 27.5142 87.2351 27.4716L87.2624 26.7183C88.471 26.7621 89.3705 26.8745 90.1013 26.9657C90.1703 26.9744 90.2379 26.9828 90.304 26.991C91.0753 27.0862 91.6307 27.1411 92.2076 27.064Z" fill="white"/>
<path fill-rule="evenodd" clip-rule="evenodd" d="M141.417 28.3125C140.492 24.255 136.321 25.2157 137.409 17.9395L141.417 28.3125Z" fill="white"/>
<path fill-rule="evenodd" clip-rule="evenodd" d="M139.606 24.8864C140.439 25.716 141.339 26.612 141.712 28.2464L141.121 28.3811C140.791 26.9327 140.05 26.1927 139.243 25.3871C138.974 25.1192 138.699 24.844 138.429 24.5331C137.895 23.9187 137.419 23.1886 137.152 22.1351C136.886 21.0876 136.833 19.7405 137.109 17.896L137.708 17.9856C137.44 19.7792 137.5 21.0406 137.739 21.9863C137.977 22.9259 138.398 23.5735 138.886 24.1356C139.109 24.3922 139.354 24.6363 139.606 24.8864Z" fill="white"/>
<path fill-rule="evenodd" clip-rule="evenodd" d="M80.3009 14.5564C76.1579 14.9496 76.5718 19.2096 69.4969 17.1909L80.3009 14.5564Z" fill="white"/>
<path fill-rule="evenodd" clip-rule="evenodd" d="M76.6824 15.9243C77.6121 15.2056 78.611 14.4334 80.2736 14.2756L80.3271 14.8394C78.842 14.9804 78.0069 15.624 77.1026 16.321C76.8029 16.552 76.4955 16.7888 76.1544 17.0152C75.4781 17.464 74.6955 17.8403 73.6201 17.9685C72.5506 18.0959 71.2105 17.9755 69.4187 17.4643L69.5741 16.9197C71.3197 17.4178 72.581 17.522 73.5531 17.4061C74.5195 17.291 75.2189 16.9563 75.8413 16.5433C76.1263 16.3542 76.4012 16.1417 76.6824 15.9243Z" fill="white"/>
<path fill-rule="evenodd" clip-rule="evenodd" d="M150.262 51.6347C145.199 50.0949 142.835 53.5692 135.985 48.8621L150.262 51.6347Z" fill="white"/>
<path fill-rule="evenodd" clip-rule="evenodd" d="M145.192 50.9488C146.743 50.8081 148.372 50.6605 150.373 51.2689L150.151 51.9988C148.306 51.4375 146.866 51.5669 145.345 51.7037C144.847 51.7485 144.341 51.794 143.81 51.8164C141.648 51.9075 139.263 51.5767 135.769 49.1756L136.201 48.5469C139.557 50.853 141.779 51.1385 143.777 51.0542C144.247 51.0344 144.716 50.9919 145.192 50.9488Z" fill="white"/>
<path fill-rule="evenodd" clip-rule="evenodd" d="M98.0033 24.2688C94.1728 25.8954 92.5086 21.9523 87.2482 27.0959L98.0033 24.2688Z" fill="white"/>
<path fill-rule="evenodd" clip-rule="evenodd" d="M94.3828 24.1495C95.5028 24.3305 96.5106 24.4933 97.8568 23.9216L98.1515 24.6155C96.5867 25.28 95.3058 25.0704 94.1423 24.8801C93.7956 24.8233 93.4593 24.7683 93.1291 24.7386C92.3957 24.6727 91.6368 24.7109 90.7491 25.0631C89.8542 25.418 88.8048 26.1016 87.5125 27.3651L86.9855 26.8262C88.3235 25.5179 89.4548 24.7655 90.4711 24.3624C91.4946 23.9564 92.3774 23.9143 93.1965 23.9879C93.6161 24.0256 94.0058 24.0885 94.3828 24.1495Z" fill="white"/>
<path fill-rule="evenodd" clip-rule="evenodd" d="M141.417 28.3125C141.795 27.8847 132.742 24.4792 137.409 17.9395L141.417 28.3125Z" fill="white"/>
<path fill-rule="evenodd" clip-rule="evenodd" d="M141.715 28.1722C141.746 28.2722 141.739 28.4037 141.644 28.5107L141.19 28.1097C141.119 28.19 141.117 28.289 141.136 28.3505C141.144 28.3761 141.154 28.3924 141.159 28.3983C141.158 28.3977 141.158 28.397 141.157 28.3962C141.136 28.3729 141.084 28.3277 140.984 28.2551C140.853 28.1598 140.679 28.0452 140.467 27.9057C140.362 27.837 140.249 27.7622 140.126 27.6807C139.4 27.1964 138.426 26.511 137.585 25.6241C136.745 24.7376 136.019 23.6309 135.82 22.3017C135.62 20.9639 135.96 19.4471 137.163 17.7612L137.656 18.1132C136.525 19.6972 136.247 21.0585 136.419 22.2119C136.594 23.3739 137.233 24.3716 138.025 25.2073C138.817 26.0428 139.744 26.6976 140.462 27.1765C140.573 27.2506 140.681 27.3215 140.783 27.3886C141.004 27.5338 141.197 27.6611 141.34 27.7647C141.442 27.8389 141.542 27.9171 141.61 27.994C141.642 28.0303 141.691 28.0913 141.715 28.1722ZM141.161 28.4008C141.161 28.4008 141.16 28.4 141.159 28.3983C141.16 28.4 141.161 28.4009 141.161 28.4008Z" fill="white"/>
<path fill-rule="evenodd" clip-rule="evenodd" d="M80.3009 14.5585C79.9255 14.1286 75.3791 22.6652 69.4969 17.193L80.3009 14.5585Z" fill="white"/>
<path fill-rule="evenodd" clip-rule="evenodd" d="M80.2058 14.2623C80.3035 14.2456 80.4255 14.2685 80.5141 14.3699L80.0875 14.7424C80.1526 14.8169 80.243 14.8304 80.3011 14.8205C80.324 14.8166 80.3391 14.8099 80.3448 14.807C80.3439 14.8075 80.3427 14.8083 80.3412 14.8093C80.3136 14.828 80.2608 14.875 80.1758 14.9649C80.064 15.0831 79.9274 15.2416 79.7613 15.4343C79.6797 15.5289 79.5911 15.6318 79.4948 15.7421C78.9209 16.3999 78.1166 17.2755 77.1304 17.9932C76.1446 18.7107 74.9573 19.2847 73.6191 19.3102C72.2727 19.3359 70.8173 18.8058 69.3039 17.3979L69.6897 16.9833C71.1174 18.3115 72.4361 18.7664 73.6083 18.744C74.7885 18.7215 75.8643 18.2142 76.7972 17.5353C77.7299 16.8566 78.5002 16.0207 79.0681 15.3698C79.1562 15.2688 79.2405 15.171 79.3203 15.0785C79.4926 14.8786 79.6434 14.7036 79.7643 14.5758C79.851 14.4841 79.9401 14.3971 80.0232 14.3407C80.0626 14.314 80.1265 14.2758 80.2058 14.2623ZM80.3473 14.8055C80.3473 14.8056 80.3464 14.8061 80.3448 14.807C80.3465 14.8059 80.3473 14.8055 80.3473 14.8055Z" fill="white"/>
<path fill-rule="evenodd" clip-rule="evenodd" d="M150.263 51.6344C150.115 51.1355 138.931 55.2518 135.768 48.4083L150.263 51.6344ZM150.263 51.6344C150.115 51.1355 144.515 44.4871 135.657 48.8905L150.263 51.6344Z" fill="white"/>
<path fill-rule="evenodd" clip-rule="evenodd" d="M150.493 51.2524C150.543 51.3252 150.608 51.4262 150.637 51.523L150.825 52.1592L150.043 51.9851C149.982 51.9904 149.898 52.0011 149.788 52.0184C149.572 52.0525 149.297 52.1049 148.966 52.1682C148.807 52.1984 148.636 52.2312 148.452 52.2655C147.328 52.4753 145.794 52.7336 144.159 52.7903C140.919 52.9026 137.101 52.2234 135.414 48.5717L135.083 47.8556L136.353 48.1382C140.506 46.3573 143.937 46.9293 146.39 48.0698C147.695 48.6764 148.719 49.4409 149.427 50.0874C149.781 50.4107 150.059 50.7068 150.255 50.9421C150.353 51.0595 150.433 51.1645 150.493 51.2524ZM136.519 48.975C138.143 51.5422 141.212 52.1114 144.132 52.0102C145.593 51.9595 146.979 51.7412 148.061 51.5439L136.519 48.975ZM137.73 48.4448C141.174 47.2761 144 47.8194 146.061 48.7776C147.282 49.3451 148.24 50.0611 148.9 50.6639C149.034 50.7855 149.154 50.9021 149.262 51.0116L137.73 48.4448Z" fill="white"/>
<path fill-rule="evenodd" clip-rule="evenodd" d="M80.7948 14.1792C80.8862 13.8179 72.5191 12.2122 73.0754 6.84302L80.7948 14.1792Z" fill="white"/>
<path fill-rule="evenodd" clip-rule="evenodd" d="M81.039 13.8944C81.077 13.9343 81.1924 14.0715 81.1427 14.2677L80.4463 14.0915C80.4023 14.2652 80.5069 14.3774 80.5186 14.3897C80.5298 14.4014 80.5387 14.4084 80.5422 14.4109C80.5408 14.41 80.5385 14.4085 80.535 14.4065C80.503 14.3878 80.4389 14.3575 80.331 14.3137C80.1872 14.2552 80.0011 14.1865 79.7752 14.1031C79.6668 14.0631 79.5493 14.0197 79.4229 13.9724C78.6557 13.6856 77.6155 13.2757 76.5859 12.7035C74.5504 11.572 72.4158 9.72151 72.7178 6.8064L73.4324 6.88043C73.1781 9.33451 74.9489 10.9715 76.935 12.0755C77.9163 12.621 78.9159 13.0159 79.6745 13.2995C79.7909 13.343 79.903 13.3844 80.0091 13.4236C80.2427 13.5099 80.4466 13.5852 80.6015 13.6481C80.7125 13.6932 80.8182 13.7398 80.8985 13.7868C80.9362 13.8089 80.9912 13.8441 81.039 13.8944ZM80.5438 14.412C80.5437 14.412 80.5432 14.4116 80.5422 14.4109C80.5433 14.4116 80.5438 14.412 80.5438 14.412Z" fill="white"/>
<path fill-rule="evenodd" clip-rule="evenodd" d="M82.4416 13.9677C82.0761 13.8951 81.3155 22.3678 75.9245 22.09L82.4416 13.9677Z" fill="white"/>
<path fill-rule="evenodd" clip-rule="evenodd" d="M82.3133 13.9036C82.3348 13.8792 82.3879 13.8314 82.4652 13.8467L82.4171 14.0888C82.4424 14.0938 82.4644 14.0882 82.479 14.0808C82.4916 14.0745 82.4976 14.0677 82.4979 14.0673L82.4979 14.0673C82.4979 14.0673 82.498 14.0672 82.498 14.0672C82.498 14.0672 82.4961 14.0695 82.4927 14.0753C82.4889 14.0815 82.4843 14.0903 82.4788 14.1021C82.456 14.1512 82.4286 14.2307 82.3956 14.3423C82.3513 14.4922 82.3006 14.6865 82.2402 14.9179C82.2112 15.0293 82.1799 15.1492 82.146 15.2769C81.9387 16.0582 81.6389 17.1092 81.1801 18.1554C80.2662 20.2393 78.6957 22.3564 75.9177 22.2133L75.9304 21.9668C78.5434 22.1014 80.0486 20.1211 80.9541 18.0563C81.4051 17.028 81.7009 15.9918 81.9075 15.2136C81.9404 15.0896 81.9712 14.9716 82 14.8611C82.0611 14.6269 82.1135 14.4261 82.1589 14.2723C82.1922 14.1597 82.2239 14.0649 82.255 13.998C82.2701 13.9655 82.289 13.9309 82.3133 13.9036Z" fill="white"/>
<path fill-rule="evenodd" clip-rule="evenodd" d="M98.0033 24.2686C97.8779 24.8254 89.8155 19.4829 87.2482 27.0957L98.0033 24.2686Z" fill="white"/>
<path fill-rule="evenodd" clip-rule="evenodd" d="M97.8479 23.9471C97.7673 23.9745 97.6661 24.0515 97.6359 24.1857L98.3713 24.3514C98.3332 24.5204 98.2087 24.6207 98.0901 24.6609C97.995 24.6932 97.9047 24.6886 97.8527 24.6834C97.7418 24.6723 97.6135 24.6352 97.4932 24.5957C97.3239 24.5402 97.1046 24.4568 96.8565 24.3626C96.7428 24.3194 96.6231 24.2739 96.4994 24.2277C95.6915 23.9262 94.6243 23.561 93.4918 23.4097C92.3589 23.2582 91.1929 23.3253 90.1675 23.8554C89.1517 24.3805 88.2226 25.3866 87.6056 27.2161L86.8913 26.9752C87.558 24.9983 88.5994 23.8174 89.8213 23.1858C91.0336 22.5591 92.3724 22.4995 93.5917 22.6625C94.8114 22.8255 95.9437 23.2158 96.763 23.5215C96.9022 23.5734 97.0301 23.6221 97.1472 23.6666C97.3835 23.7564 97.5758 23.8295 97.7283 23.8795C97.8442 23.9175 97.9044 23.9309 97.9273 23.9333C97.917 23.933 97.887 23.9338 97.8479 23.9471ZM97.928 23.9334C97.9278 23.9334 97.9275 23.9333 97.9273 23.9333L97.928 23.9334Z" fill="white"/>
<path fill-rule="evenodd" clip-rule="evenodd" d="M119.436 14.2016C119.593 13.5186 120.203 5.97436 109.026 5.36914L119.436 14.2016Z" fill="white"/>
<path fill-rule="evenodd" clip-rule="evenodd" d="M118.811 9.55853C120.097 11.7086 119.906 13.8713 119.811 14.2865L119.063 14.1154C119.124 13.8476 119.316 11.8967 118.152 9.95259C117.008 8.04071 114.5 6.04914 109.005 5.75163L109.047 4.98535C114.73 5.29306 117.505 7.37623 118.811 9.55853Z" fill="white"/>
<path fill-rule="evenodd" clip-rule="evenodd" d="M119.436 14.2016C119.593 13.5186 117.9 12.9032 109.026 5.36914L119.436 14.2016Z" fill="white"/>
<path fill-rule="evenodd" clip-rule="evenodd" d="M119.392 13.3196C119.675 13.5981 119.898 13.9005 119.81 14.2872L119.062 14.1161C119.062 14.117 119.061 14.1203 119.062 14.1245C119.062 14.1255 119.062 14.126 119.062 14.1261C119.062 14.1262 119.061 14.1204 119.054 14.1072C119.034 14.0665 118.981 13.992 118.854 13.8661C118.598 13.614 118.145 13.2535 117.381 12.657C117.28 12.578 117.173 12.4951 117.062 12.4082C115.505 11.1946 112.923 9.18176 108.777 5.66167L109.274 5.07666C113.408 8.58654 115.98 10.5918 117.534 11.8033C117.646 11.8902 117.752 11.9731 117.853 12.0521C118.602 12.6365 119.097 13.0288 119.392 13.3196Z" fill="white"/>
<path fill-rule="evenodd" clip-rule="evenodd" d="M117.548 12.2993C114.232 12.359 113.116 12.5644 112.458 12.5645L117.548 12.2993Z" fill="white"/>
<path fill-rule="evenodd" clip-rule="evenodd" d="M113.977 12.0737C114.76 12.0143 115.876 11.9477 117.541 11.9177L117.555 12.685C115.905 12.7147 114.804 12.7806 114.035 12.8389C113.794 12.8572 113.581 12.8752 113.391 12.8913C112.991 12.9252 112.694 12.9502 112.458 12.9503L112.458 12.1829C112.661 12.1829 112.907 12.162 113.279 12.1305C113.473 12.114 113.702 12.0946 113.977 12.0737Z" fill="white"/>
<path fill-rule="evenodd" clip-rule="evenodd" d="M115.191 10.5793C112.356 10.6391 111.402 10.8446 110.839 10.8446L115.191 10.5793Z" fill="white"/>
<path fill-rule="evenodd" clip-rule="evenodd" d="M112.129 10.352C112.801 10.2924 113.757 10.2256 115.183 10.1956L115.199 10.9584C113.791 10.9881 112.852 11.0539 112.197 11.112C111.995 11.1299 111.815 11.1476 111.654 11.1636C111.308 11.1979 111.046 11.2237 110.839 11.2238L110.839 10.4608C111.008 10.4607 111.211 10.4406 111.524 10.4096C111.69 10.393 111.888 10.3733 112.129 10.352Z" fill="white"/>
<path fill-rule="evenodd" clip-rule="evenodd" d="M112.911 8.59424C110.86 8.65389 110.17 8.85937 109.763 8.85945L112.911 8.59424Z" fill="white"/>
<path fill-rule="evenodd" clip-rule="evenodd" d="M110.674 8.36809C111.165 8.30788 111.862 8.24064 112.899 8.21045L112.922 8.97967C111.909 9.00914 111.236 9.07446 110.767 9.13192C110.61 9.15118 110.48 9.16909 110.363 9.18515C110.301 9.19353 110.244 9.2014 110.188 9.20869C110.035 9.22887 109.893 9.24502 109.763 9.24505L109.763 8.4755C109.837 8.47549 109.934 8.46593 110.088 8.44569C110.136 8.43938 110.19 8.43202 110.249 8.42393C110.37 8.40744 110.512 8.38791 110.674 8.36809Z" fill="white"/>
<path fill-rule="evenodd" clip-rule="evenodd" d="M119.436 14.2016C119.593 13.5186 110.262 16.4936 109.026 5.36914L119.436 14.2016Z" fill="white"/>
<path fill-rule="evenodd" clip-rule="evenodd" d="M119.711 13.8916C119.813 14.0068 119.841 14.1541 119.811 14.2861L119.063 14.1149C119.042 14.2042 119.061 14.316 119.138 14.4017C119.167 14.4352 119.197 14.4541 119.214 14.4636C119.232 14.4731 119.244 14.477 119.247 14.4778C119.25 14.4788 119.239 14.4754 119.205 14.4719C119.173 14.4685 119.131 14.4661 119.076 14.4648C118.941 14.4616 118.777 14.4656 118.576 14.4705C118.424 14.4741 118.252 14.4783 118.054 14.4804C117.168 14.4896 115.933 14.45 114.645 14.0677C113.351 13.6839 112.002 12.9539 110.898 11.5862C109.796 10.2203 108.96 8.24606 108.645 5.41044L109.408 5.32568C109.711 8.05231 110.505 9.87782 111.495 11.1042C112.484 12.3288 113.689 12.9836 114.863 13.332C116.042 13.6819 117.187 13.7219 118.046 13.713C118.212 13.7113 118.375 13.7075 118.526 13.7039C118.748 13.6987 118.946 13.6941 119.094 13.6976C119.215 13.7005 119.356 13.7086 119.472 13.7442C119.528 13.7615 119.629 13.7997 119.711 13.8916Z" fill="white"/>
<path fill-rule="evenodd" clip-rule="evenodd" d="M130.705 28.0217C130.967 28.0217 124.789 17.0174 118.864 13.7954L130.705 28.0217Z" fill="white"/>
<path fill-rule="evenodd" clip-rule="evenodd" d="M131.135 28.4223C131.011 28.5537 130.849 28.6076 130.705 28.6076V27.4366C130.565 27.4366 130.406 27.4891 130.284 27.6179C130.179 27.7292 130.147 27.8499 130.137 27.9087C130.117 28.0141 130.135 28.0953 130.137 28.1048L130.137 28.1056C130.141 28.1242 130.144 28.1355 130.144 28.1357C130.144 28.1358 130.142 28.1291 130.136 28.1138C130.114 28.0574 130.067 27.9563 129.992 27.8073C129.844 27.5146 129.607 27.0835 129.293 26.5487C128.667 25.4806 127.743 24.0192 126.628 22.4575C124.379 19.3081 121.419 15.8517 118.584 14.3102L119.143 13.2815C122.234 14.962 125.325 18.6187 127.581 21.777C128.718 23.3691 129.66 24.8601 130.303 25.956C130.624 26.5032 130.874 26.9569 131.037 27.2786C131.117 27.4368 131.182 27.5753 131.224 27.6816C131.243 27.7283 131.27 27.8001 131.285 27.8753L131.285 27.8761C131.29 27.9028 131.31 28.001 131.288 28.1195C131.277 28.1837 131.243 28.3083 131.135 28.4223Z" fill="white"/>
<path fill-rule="evenodd" clip-rule="evenodd" d="M130.705 28.0217C130.967 28.0217 124.789 17.0174 118.864 13.7954L130.705 28.0217Z" fill="white"/>
<path fill-rule="evenodd" clip-rule="evenodd" d="M131.135 28.4223C131.011 28.5537 130.849 28.6076 130.705 28.6076V27.4366C130.565 27.4366 130.406 27.4891 130.284 27.6179C130.179 27.7292 130.147 27.8499 130.137 27.9087C130.117 28.0141 130.135 28.0953 130.137 28.1048L130.137 28.1056C130.141 28.1242 130.144 28.1355 130.144 28.1357C130.144 28.1358 130.142 28.1291 130.136 28.1138C130.114 28.0574 130.067 27.9563 129.992 27.8073C129.844 27.5146 129.607 27.0835 129.293 26.5487C128.667 25.4806 127.743 24.0192 126.628 22.4575C124.379 19.3081 121.419 15.8517 118.584 14.3102L119.143 13.2815C122.234 14.962 125.325 18.6187 127.581 21.777C128.718 23.3691 129.66 24.8601 130.303 25.956C130.624 26.5032 130.874 26.9569 131.037 27.2786C131.117 27.4368 131.182 27.5753 131.224 27.6816C131.243 27.7283 131.27 27.8001 131.285 27.8753L131.285 27.8761C131.29 27.9028 131.31 28.001 131.288 28.1195C131.277 28.1837 131.243 28.3083 131.135 28.4223Z" fill="white"/>
<path fill-rule="evenodd" clip-rule="evenodd" d="M147.484 40.9283C147.746 40.9283 144.554 34.4761 141.559 28.0239L147.484 40.9283Z" fill="white"/>
<path fill-rule="evenodd" clip-rule="evenodd" d="M147.957 41.2813C147.84 41.4323 147.664 41.5134 147.484 41.5134V40.3425C147.312 40.3425 147.142 40.4205 147.03 40.5651C146.941 40.6805 146.923 40.7951 146.917 40.8369C146.911 40.8874 146.914 40.9252 146.915 40.9394C146.917 40.9564 146.919 40.9669 146.919 40.9683C146.919 40.9688 146.919 40.9688 146.919 40.9683C146.919 40.9663 146.916 40.9559 146.91 40.9348C146.902 40.9103 146.891 40.8778 146.876 40.8365C146.815 40.6671 146.707 40.405 146.553 40.0539C146.248 39.3564 145.783 38.3549 145.213 37.1448C144.835 36.3417 144.411 35.4479 143.958 34.4937C143.05 32.5801 142.028 30.4238 141.028 28.2701L142.09 27.7771C143.088 29.9268 144.106 32.0738 145.013 33.9848C145.466 34.9406 145.892 35.8373 146.272 36.6459C146.842 37.8554 147.313 38.8701 147.626 39.584C147.781 39.9387 147.903 40.231 147.978 40.4397C148.014 40.5387 148.049 40.6454 148.068 40.7395C148.075 40.7757 148.093 40.8713 148.079 40.9816C148.073 41.0358 148.051 41.1597 147.957 41.2813Z" fill="white"/>
<path fill-rule="evenodd" clip-rule="evenodd" d="M120.7 32.7968C120.798 32.9737 122.122 34.7132 124.641 32.688L120.7 32.7968Z" fill="white"/>
<path fill-rule="evenodd" clip-rule="evenodd" d="M121.664 33.886C120.906 33.6513 120.489 33.1038 120.408 32.9579L120.991 32.6346C120.991 32.6341 120.991 32.6344 120.992 32.6355C120.996 32.6412 121.013 32.6683 121.05 32.712C121.09 32.7605 121.148 32.8227 121.223 32.8888C121.373 33.0212 121.586 33.1643 121.861 33.2493C122.388 33.4127 123.236 33.389 124.432 32.4277L124.85 32.9472C123.526 34.0111 122.453 34.1303 121.664 33.886Z" fill="white"/>
<path fill-rule="evenodd" clip-rule="evenodd" d="M121.438 34.865C121.293 34.9014 119.803 35.5159 120.77 37.6945L121.438 34.865Z" fill="white"/>
<path fill-rule="evenodd" clip-rule="evenodd" d="M121.075 34.9218C121.228 34.8196 121.36 34.7682 121.411 34.7554L121.465 34.9706C121.444 34.976 121.335 35.015 121.198 35.1064C121.063 35.1965 120.906 35.3341 120.781 35.5333C120.536 35.9252 120.399 36.5831 120.872 37.6475L120.669 37.7375C120.174 36.6233 120.299 35.8846 120.593 35.4155C120.738 35.1842 120.92 35.0253 121.075 34.9218Z" fill="white"/>
<path fill-rule="evenodd" clip-rule="evenodd" d="M127.86 42.2778C127.579 42.0772 124.067 40.696 121.672 45.6575L127.86 42.2778Z" fill="white"/>
<path fill-rule="evenodd" clip-rule="evenodd" d="M127.686 41.9626C127.818 42.0116 127.925 42.063 127.984 42.105L127.736 42.4527L127.736 42.4528C127.736 42.4528 127.735 42.452 127.732 42.4503C127.729 42.4486 127.725 42.4463 127.72 42.4435C127.71 42.4377 127.696 42.4305 127.678 42.4221C127.643 42.4054 127.596 42.3851 127.538 42.3634C127.42 42.32 127.262 42.2722 127.07 42.2343C126.687 42.1586 126.176 42.1241 125.602 42.2423C124.466 42.4763 123.039 43.3194 121.864 45.7515L121.479 45.5657C122.7 43.0363 124.227 42.0892 125.516 41.8236C126.155 41.692 126.724 41.7303 127.153 41.8149C127.367 41.8573 127.548 41.9114 127.686 41.9626Z" fill="white"/>
<path fill-rule="evenodd" clip-rule="evenodd" d="M120.7 32.7968C120.798 32.9737 121.281 32.7797 124.641 32.688L120.7 32.7968Z" fill="white"/>
<path fill-rule="evenodd" clip-rule="evenodd" d="M120.869 33.1998C120.749 33.1942 120.526 33.1705 120.408 32.9581L120.991 32.6348C120.948 32.5574 120.883 32.5355 120.866 32.5311C120.871 32.532 120.882 32.5332 120.9 32.5341C120.988 32.5382 121.139 32.5298 121.424 32.5103C121.461 32.5077 121.5 32.5051 121.54 32.5023C122.11 32.4629 123.057 32.3975 124.632 32.3545L124.65 33.0208C123.089 33.0633 122.153 33.128 121.586 33.1672C121.545 33.17 121.507 33.1727 121.47 33.1752C121.202 33.1936 121.004 33.2062 120.869 33.1998ZM120.861 32.5302C120.861 32.5302 120.863 32.5304 120.866 32.5311C120.862 32.5306 120.861 32.5303 120.861 32.5302Z" fill="white"/>
<path fill-rule="evenodd" clip-rule="evenodd" d="M121.439 34.865C121.294 34.9014 121.341 35.282 120.771 37.6945L121.439 34.865Z" fill="white"/>
<path fill-rule="evenodd" clip-rule="evenodd" d="M121.247 34.9477C121.273 34.8665 121.313 34.7801 121.411 34.7554L121.465 34.9706C121.473 34.9685 121.478 34.9646 121.48 34.9626C121.477 34.9665 121.47 34.9801 121.459 35.0147C121.436 35.0856 121.412 35.2043 121.373 35.4078C121.367 35.4347 121.362 35.4629 121.356 35.4925C121.277 35.9054 121.145 36.5904 120.878 37.718L120.662 37.667C120.928 36.5438 121.059 35.8623 121.138 35.4504C121.144 35.4208 121.15 35.3926 121.155 35.3657C121.193 35.1678 121.22 35.0338 121.247 34.9477ZM121.481 34.9613C121.481 34.9614 121.481 34.9619 121.48 34.9626C121.481 34.9616 121.481 34.9613 121.481 34.9613Z" fill="white"/>
<path fill-rule="evenodd" clip-rule="evenodd" d="M127.86 42.2811C127.579 42.0805 126.978 42.7323 121.872 45.3331L127.86 42.2811Z" fill="white"/>
<path fill-rule="evenodd" clip-rule="evenodd" d="M127.442 42.1073C127.622 42.0316 127.814 41.9821 127.984 42.104L127.736 42.4518C127.741 42.4553 127.745 42.4571 127.748 42.4579C127.735 42.4583 127.696 42.4644 127.607 42.5016C127.445 42.5692 127.197 42.7055 126.781 42.9397C126.726 42.9707 126.668 43.0032 126.607 43.0373C125.761 43.5141 124.356 44.3049 121.97 45.5204L121.776 45.1395C124.154 43.928 125.553 43.1405 126.398 42.6647C126.458 42.6306 126.516 42.5981 126.571 42.5671C126.978 42.3383 127.252 42.1868 127.442 42.1073ZM127.754 42.4585C127.753 42.4587 127.751 42.4588 127.748 42.4579C127.752 42.4578 127.754 42.4582 127.754 42.4585Z" fill="white"/>
<path fill-rule="evenodd" clip-rule="evenodd" d="M126.638 42.7749C126.036 44.2923 125.917 44.8382 125.793 45.1372L126.638 42.7749Z" fill="white"/>
<path fill-rule="evenodd" clip-rule="evenodd" d="M125.833 44.3469C125.955 43.9797 126.137 43.46 126.439 42.6973L126.837 42.855C126.537 43.6097 126.358 44.1216 126.239 44.4814C126.202 44.5936 126.17 44.6934 126.141 44.7824C126.08 44.9716 126.035 45.1124 125.99 45.2207L125.595 45.056C125.633 44.9646 125.67 44.8505 125.726 44.6769C125.755 44.5852 125.79 44.477 125.833 44.3469Z" fill="white"/>
<path fill-rule="evenodd" clip-rule="evenodd" d="M125.409 43.5195C124.898 44.8186 124.81 45.291 124.704 45.5466L125.409 43.5195Z" fill="white"/>
<path fill-rule="evenodd" clip-rule="evenodd" d="M124.712 44.8643C124.812 44.5477 124.964 44.1005 125.221 43.4465L125.599 43.5952C125.345 44.2403 125.197 44.6788 125.099 44.9871C125.069 45.0813 125.043 45.1659 125.02 45.2421C124.969 45.4066 124.931 45.5313 124.892 45.6262L124.517 45.4697C124.549 45.3937 124.578 45.2988 124.623 45.1516C124.647 45.0726 124.676 44.9786 124.712 44.8643Z" fill="white"/>
<path fill-rule="evenodd" clip-rule="evenodd" d="M124.076 44.1797C123.714 45.1223 123.676 45.4747 123.599 45.6596L124.076 44.1797Z" fill="white"/>
<path fill-rule="evenodd" clip-rule="evenodd" d="M123.548 45.1519C123.614 44.9175 123.716 44.5882 123.899 44.1111L124.252 44.2467C124.073 44.7122 123.975 45.0304 123.912 45.2541C123.891 45.329 123.875 45.3917 123.86 45.4479C123.852 45.4773 123.844 45.505 123.837 45.5317C123.817 45.6053 123.798 45.6728 123.773 45.7317L123.424 45.5858C123.438 45.5523 123.452 45.5064 123.472 45.4325C123.478 45.4095 123.485 45.3836 123.493 45.3551C123.508 45.2973 123.526 45.2289 123.548 45.1519Z" fill="white"/>
<path fill-rule="evenodd" clip-rule="evenodd" d="M120.7 32.797C120.798 32.9738 122.231 30.5351 124.641 32.6881L120.7 32.797Z" fill="white"/>
<path fill-rule="evenodd" clip-rule="evenodd" d="M120.675 33.137C120.554 33.1233 120.459 33.0502 120.408 32.9584L120.991 32.6351C120.946 32.5544 120.86 32.4872 120.75 32.4747C120.667 32.4653 120.607 32.4923 120.594 32.4986C120.576 32.5066 120.566 32.5141 120.566 32.5142C120.566 32.5142 120.571 32.5106 120.582 32.5013C120.609 32.4783 120.637 32.4518 120.674 32.4163C120.706 32.3868 120.744 32.351 120.793 32.3058C120.987 32.1278 121.28 31.8806 121.66 31.7002C122.045 31.5178 122.521 31.4029 123.075 31.4925C123.627 31.5819 124.225 31.8694 124.863 32.4394L124.419 32.9365C123.852 32.43 123.367 32.2149 122.969 32.1505C122.573 32.0863 122.233 32.1664 121.946 32.3024C121.655 32.4404 121.42 32.6352 121.243 32.7974C121.214 32.8242 121.182 32.8539 121.151 32.883C121.1 32.9308 121.051 32.9773 121.015 33.0078C120.989 33.0304 120.936 33.0745 120.874 33.1035C120.844 33.1173 120.77 33.1477 120.675 33.137Z" fill="white"/>
<path fill-rule="evenodd" clip-rule="evenodd" d="M121.439 34.865C121.294 34.9014 122.761 36.3832 120.771 37.6945L121.439 34.865Z" fill="white"/>
<path fill-rule="evenodd" clip-rule="evenodd" d="M121.326 34.8302C121.342 34.7901 121.375 34.7645 121.411 34.7554L121.466 34.9706C121.493 34.9637 121.52 34.9432 121.533 34.9109C121.542 34.8875 121.539 34.8692 121.538 34.8673C121.538 34.8672 121.538 34.8672 121.538 34.8672C121.538 34.8666 121.538 34.8663 121.538 34.8662C121.538 34.8662 121.541 34.8737 121.55 34.8931C121.562 34.9186 121.578 34.9482 121.598 34.9852C121.614 35.0136 121.631 35.0462 121.651 35.0846C121.739 35.2526 121.853 35.4937 121.906 35.7794C121.959 36.0665 121.951 36.3993 121.796 36.7475C121.641 37.0951 121.343 37.4486 120.832 37.7851L120.71 37.5998C121.194 37.2807 121.459 36.9573 121.593 36.657C121.727 36.3574 121.734 36.0716 121.688 35.8199C121.641 35.5666 121.539 35.3486 121.455 35.1875C121.439 35.1571 121.423 35.1271 121.407 35.0989C121.384 35.0565 121.364 35.0182 121.35 34.9893C121.339 34.9661 121.325 34.9354 121.32 34.9055C121.317 34.8911 121.314 34.862 121.326 34.8302Z" fill="white"/>
<path fill-rule="evenodd" clip-rule="evenodd" d="M127.859 42.2807C127.579 42.0801 127.34 46.968 122.053 45.4182L127.859 42.2807Z" fill="white"/>
<path fill-rule="evenodd" clip-rule="evenodd" d="M127.758 42.0731C127.841 42.0418 127.924 42.0609 127.984 42.1036L127.735 42.4513C127.777 42.4815 127.843 42.4979 127.908 42.4733C127.934 42.4637 127.951 42.4508 127.96 42.4426C127.97 42.4344 127.975 42.4277 127.977 42.4256C127.977 42.4253 127.977 42.4255 127.976 42.4263C127.974 42.4304 127.964 42.4494 127.945 42.4963C127.921 42.5572 127.896 42.6315 127.865 42.7231C127.841 42.7951 127.813 42.8777 127.779 42.9727C127.632 43.3855 127.402 43.9533 127.004 44.4807C126.605 45.0107 126.036 45.5016 125.214 45.7546C124.394 46.0071 123.344 46.0161 121.993 45.6201L122.113 45.2098C123.406 45.5887 124.368 45.5679 125.088 45.346C125.807 45.1247 126.307 44.6967 126.663 44.2235C127.021 43.7478 127.234 43.2281 127.376 42.8293C127.404 42.7511 127.43 42.6736 127.455 42.6016C127.49 42.4989 127.521 42.4073 127.547 42.3402C127.569 42.2849 127.598 42.2182 127.636 42.1678C127.654 42.1437 127.693 42.0975 127.758 42.0731Z" fill="white"/>
<path fill-rule="evenodd" clip-rule="evenodd" d="M119.814 33.1035C119.832 32.7084 118.42 27.0155 113.145 29.2421L119.814 33.1035Z" fill="white"/>
<path fill-rule="evenodd" clip-rule="evenodd" d="M120.184 32.9054C120.195 32.9698 120.207 33.0513 120.203 33.1214L119.424 33.0854C119.423 33.0918 119.423 33.0954 119.423 33.0954C119.423 33.0954 119.422 33.0778 119.415 33.0355C119.406 32.9845 119.392 32.9142 119.37 32.8272C119.327 32.6534 119.257 32.4223 119.157 32.1598C118.955 31.6325 118.635 30.9956 118.166 30.4416C117.7 29.8897 117.094 29.43 116.317 29.2283C115.542 29.0271 114.553 29.0714 113.297 29.6016L112.993 28.8825C114.375 28.2994 115.541 28.2203 116.513 28.4727C117.484 28.7245 118.219 29.2952 118.762 29.9376C119.304 30.5779 119.663 31.2992 119.886 31.8808C119.997 32.1727 120.076 32.4339 120.127 32.6383C120.153 32.7404 120.172 32.8307 120.184 32.9054Z" fill="white"/>
<path fill-rule="evenodd" clip-rule="evenodd" d="M120.242 33.1523C120.461 33.0154 122.954 29.6096 119.674 25.959L120.242 33.1523Z" fill="white"/>
<path fill-rule="evenodd" clip-rule="evenodd" d="M120.428 33.1936C120.399 33.2266 120.363 33.2645 120.327 33.2868L120.156 33.0138C120.154 33.0149 120.153 33.0156 120.153 33.0155C120.153 33.0153 120.164 33.0065 120.187 32.9804C120.212 32.9517 120.245 32.9104 120.285 32.8567C120.363 32.7496 120.461 32.5973 120.565 32.4056C120.771 32.022 120.994 31.4854 121.111 30.8425C121.343 29.5633 121.158 27.8504 119.554 26.0645L119.793 25.8494C121.468 27.7141 121.677 29.5295 121.428 30.9C121.304 31.582 121.068 32.1507 120.848 32.5583C120.738 32.7622 120.632 32.9269 120.545 33.0465C120.501 33.1062 120.461 33.1557 120.428 33.1936Z" fill="white"/>
<path fill-rule="evenodd" clip-rule="evenodd" d="M121.714 34.3596C121.565 34.148 118.035 31.8347 114.559 35.299L121.714 34.3596Z" fill="white"/>
<path fill-rule="evenodd" clip-rule="evenodd" d="M121.86 34.0267C121.894 34.0537 121.953 34.1023 121.994 34.1606L121.433 34.5533C121.446 34.5712 121.456 34.5809 121.456 34.5809C121.456 34.5809 121.45 34.575 121.434 34.5625C121.409 34.543 121.371 34.5152 121.319 34.4811C121.215 34.4133 121.065 34.3266 120.876 34.2367C120.496 34.0567 119.967 33.8683 119.341 33.7878C118.103 33.6286 116.459 33.8863 114.801 35.5389L114.318 35.0538C116.136 33.242 117.995 32.9243 119.428 33.1086C120.138 33.1999 120.737 33.413 121.169 33.6179C121.385 33.7205 121.562 33.8222 121.694 33.9078C121.759 33.9505 121.815 33.9908 121.86 34.0267Z" fill="white"/>
<path fill-rule="evenodd" clip-rule="evenodd" d="M119.814 33.105C119.832 32.71 118.83 32.5379 113.145 29.2437L119.814 33.105Z" fill="white"/>
<path fill-rule="evenodd" clip-rule="evenodd" d="M119.799 32.4734C119.987 32.6023 120.218 32.7966 120.203 33.1204L119.424 33.0843C119.421 33.1459 119.446 33.1832 119.453 33.1918C119.447 33.1852 119.422 33.1612 119.358 33.1178C119.201 33.0105 118.925 32.8611 118.436 32.6043C118.372 32.5706 118.305 32.5353 118.234 32.4982C117.247 31.9799 115.609 31.1197 112.949 29.5787L113.341 28.9033C115.986 30.4362 117.614 31.2907 118.597 31.8073C118.668 31.8444 118.735 31.8797 118.8 31.9135C119.27 32.1609 119.596 32.3344 119.799 32.4734ZM119.454 33.1938C119.454 33.1938 119.454 33.1931 119.453 33.1918C119.454 33.1931 119.454 33.1938 119.454 33.1938Z" fill="white"/>
<path fill-rule="evenodd" clip-rule="evenodd" d="M120.242 33.1523C120.461 33.0154 120.157 32.0924 119.674 25.959L120.242 33.1523Z" fill="white"/>
<path fill-rule="evenodd" clip-rule="evenodd" d="M120.457 33.0887C120.44 33.1634 120.404 33.238 120.328 33.2856L120.157 33.0126C120.144 33.0207 120.14 33.0297 120.14 33.0297C120.14 33.0297 120.141 33.0259 120.144 33.0158C120.151 32.9862 120.155 32.9317 120.153 32.8341C120.148 32.6406 120.116 32.3285 120.061 31.8183C120.054 31.7505 120.046 31.6794 120.038 31.6048C119.926 30.5617 119.739 28.8325 119.514 25.9684L119.834 25.9431C120.06 28.8026 120.246 30.5283 120.358 31.5703C120.367 31.645 120.374 31.7161 120.382 31.7839C120.436 32.2882 120.469 32.6159 120.475 32.8257C120.477 32.9297 120.474 33.0177 120.457 33.0887Z" fill="white"/>
<path fill-rule="evenodd" clip-rule="evenodd" d="M121.714 34.3566C121.565 34.145 120.66 34.4964 114.559 35.296L121.714 34.3566Z" fill="white"/>
<path fill-rule="evenodd" clip-rule="evenodd" d="M121.675 33.9706C121.778 33.989 121.906 34.038 121.995 34.1644L121.434 34.5572C121.485 34.6307 121.553 34.6444 121.554 34.6447C121.554 34.6447 121.552 34.6443 121.546 34.6438C121.54 34.6433 121.531 34.6429 121.519 34.6428C121.495 34.6426 121.462 34.6438 121.418 34.6472C121.234 34.6616 120.933 34.7077 120.423 34.7894C120.356 34.8002 120.285 34.8115 120.211 34.8234C119.175 34.9899 117.455 35.266 114.604 35.6397L114.515 34.9607C117.357 34.5883 119.068 34.3134 120.103 34.1473C120.177 34.1354 120.248 34.124 120.315 34.1133C120.812 34.0336 121.147 33.9816 121.365 33.9646C121.472 33.9562 121.579 33.9536 121.675 33.9706Z" fill="white"/>
<path fill-rule="evenodd" clip-rule="evenodd" d="M119.814 33.105C116.496 28.9653 116.665 30.0735 113.145 29.2437L119.814 33.105Z" fill="white"/>
<path fill-rule="evenodd" clip-rule="evenodd" d="M116.707 29.572C117.625 29.9608 118.47 30.8028 120.118 32.8592L119.509 33.3474C117.839 31.2641 117.11 30.5903 116.403 30.2907C116.049 30.1407 115.683 30.0773 115.149 29.9994C115.103 29.9927 115.057 29.986 115.009 29.9791C114.504 29.906 113.877 29.8154 113.056 29.6218L113.235 28.8621C114.022 29.0476 114.618 29.1338 115.122 29.2067C115.169 29.2136 115.216 29.2203 115.262 29.227C115.79 29.304 116.249 29.3779 116.707 29.572Z" fill="white"/>
<path fill-rule="evenodd" clip-rule="evenodd" d="M119.814 33.105C117.552 31.3156 115.717 33.6452 113.145 29.2437L119.814 33.105Z" fill="white"/>
<path fill-rule="evenodd" clip-rule="evenodd" d="M117.339 31.8549C118.156 31.941 119.099 32.0404 120.055 32.7971L119.571 33.4092C118.808 32.8051 118.15 32.7338 117.379 32.6503C117.111 32.6214 116.83 32.5909 116.526 32.5362C115.951 32.4325 115.348 32.2362 114.719 31.7622C114.096 31.293 113.468 30.5677 112.808 29.4387L113.482 29.0449C114.108 30.1168 114.674 30.7508 115.189 31.1387C115.697 31.5217 116.177 31.6801 116.665 31.768C116.877 31.8062 117.103 31.83 117.339 31.8549Z" fill="white"/>
<path fill-rule="evenodd" clip-rule="evenodd" d="M119.814 33.105C119.832 32.71 113.465 34.8013 113.145 29.2437L119.814 33.105Z" fill="white"/>
<path fill-rule="evenodd" clip-rule="evenodd" d="M120.015 32.749C120.117 32.8178 120.211 32.9471 120.203 33.1203L119.423 33.0842C119.417 33.2327 119.499 33.3422 119.578 33.3954C119.61 33.417 119.637 33.4275 119.652 33.4323C119.667 33.4374 119.677 33.4392 119.68 33.4397C119.681 33.4398 119.681 33.4398 119.681 33.4399C119.681 33.4399 119.673 33.4389 119.654 33.4386C119.632 33.4382 119.602 33.4388 119.564 33.4407C119.456 33.446 119.319 33.4591 119.147 33.4756C119.06 33.4839 118.964 33.4931 118.859 33.5025C118.253 33.5568 117.413 33.6111 116.553 33.4943C115.694 33.3776 114.781 33.0857 114.06 32.4202C113.33 31.7471 112.84 30.7332 112.755 29.2633L113.535 29.2185C113.61 30.5274 114.036 31.3362 114.589 31.8464C115.15 32.3642 115.888 32.6163 116.658 32.7208C117.428 32.8253 118.196 32.7782 118.789 32.7251C118.878 32.7172 118.964 32.7089 119.048 32.7009C119.233 32.6832 119.399 32.6673 119.526 32.6611C119.614 32.6567 119.719 32.6546 119.81 32.67C119.852 32.6772 119.935 32.6945 120.015 32.749Z" fill="white"/>
<path fill-rule="evenodd" clip-rule="evenodd" d="M120.242 33.1523C120.461 33.0154 116.821 28.3788 119.673 25.959L120.242 33.1523Z" fill="white"/>
<path fill-rule="evenodd" clip-rule="evenodd" d="M120.412 33.1188C120.413 33.1499 120.409 33.2351 120.327 33.2858L120.157 33.0128C120.089 33.055 120.091 33.1229 120.091 33.1282C120.091 33.1331 120.091 33.1358 120.091 33.1358C120.091 33.1358 120.091 33.132 120.088 33.1232C120.078 33.0933 120.056 33.0444 120.02 32.9727C119.972 32.8771 119.906 32.7567 119.827 32.6121C119.788 32.5419 119.747 32.466 119.703 32.3844C119.436 31.8909 119.086 31.2141 118.819 30.4627C118.288 28.9711 118.061 27.1129 119.57 25.8333L119.778 26.0787C118.434 27.2189 118.601 28.8889 119.122 30.3548C119.381 31.0822 119.721 31.7414 119.986 32.2313C120.028 32.3085 120.068 32.3821 120.106 32.4513C120.187 32.5993 120.257 32.7273 120.307 32.8276C120.344 32.9006 120.375 32.9677 120.393 33.022C120.402 33.0478 120.411 33.0824 120.412 33.1188Z" fill="white"/>
<path fill-rule="evenodd" clip-rule="evenodd" d="M121.714 34.357C121.565 34.1455 117.123 38.0198 114.559 35.2964L121.714 34.357Z" fill="white"/>
<path fill-rule="evenodd" clip-rule="evenodd" d="M121.661 34.0073C121.712 34.0031 121.884 34.0012 121.995 34.1604L121.434 34.5531C121.536 34.6991 121.69 34.6919 121.716 34.6898C121.74 34.6879 121.756 34.6833 121.762 34.6813C121.762 34.6813 121.762 34.6814 121.762 34.6814C121.746 34.6876 121.709 34.7059 121.64 34.7453C121.549 34.797 121.436 34.8664 121.298 34.9516C121.229 34.9938 121.154 35.0399 121.073 35.0896C120.592 35.3828 119.924 35.7733 119.175 36.0846C117.698 36.6974 115.75 37.0595 114.311 35.5308L114.809 35.0614C115.934 36.2562 117.489 36.0427 118.912 35.4521C119.612 35.1617 120.243 34.7935 120.717 34.5049C120.789 34.4606 120.859 34.4175 120.926 34.3765C121.071 34.2871 121.2 34.2081 121.3 34.1508C121.371 34.1099 121.447 34.0693 121.514 34.0433C121.544 34.0314 121.598 34.0124 121.661 34.0073ZM121.765 34.6803C121.765 34.6804 121.764 34.6807 121.762 34.6813C121.764 34.6806 121.765 34.6803 121.765 34.6803Z" fill="white"/>
<path fill-rule="evenodd" clip-rule="evenodd" d="M147.484 40.9263C147.745 40.9263 125.099 39.7615 122.104 33.3093L147.484 40.9263Z" fill="white"/>
<path fill-rule="evenodd" clip-rule="evenodd" d="M147.5 41.5115L147.484 41.5117V40.3408L147.469 40.341C147.462 40.3412 147.438 40.3427 147.422 40.3442C147.371 40.3521 146.961 40.6671 146.94 41.1366C147.083 41.351 147.338 41.4927 147.372 41.5005C147.385 41.5028 147.404 41.5058 147.411 41.5067L147.423 41.5081L147.428 41.5086L147.43 41.5088C147.43 41.5088 147.428 41.5086 147.423 41.5082L147.403 41.5068L147.236 41.4958C147.083 41.4856 146.85 41.4698 146.548 41.4475C145.944 41.4027 145.064 41.3316 143.992 41.2261C141.849 41.0151 138.932 40.6659 135.91 40.1132C132.892 39.5614 129.745 38.8025 127.152 37.765C124.598 36.7427 122.424 35.3898 121.573 33.5558L122.635 33.0627C123.281 34.4548 125.061 35.6671 127.587 36.6779C130.075 37.6734 133.135 38.4155 136.12 38.9614C139.101 39.5064 141.984 39.8517 144.107 40.0608C145.168 40.1652 146.038 40.2356 146.634 40.2797C146.932 40.3018 147.162 40.3174 147.313 40.3274L147.482 40.3386C147.499 40.3397 147.516 40.3409 147.528 40.342L147.544 40.3434L147.559 40.3451C147.566 40.3461 147.586 40.3492 147.599 40.3516C147.633 40.3594 147.889 40.5012 148.032 40.7157C148.011 41.1852 147.601 41.5002 147.55 41.5082C147.543 41.5088 147.534 41.5095 147.526 41.51C147.516 41.5108 147.505 41.5113 147.5 41.5115Z" fill="white"/>
<path fill-rule="evenodd" clip-rule="evenodd" d="M147.484 40.9275C147.745 40.9275 130.713 39.2672 127.391 42.7288L147.484 40.9275Z" fill="white"/>
<path fill-rule="evenodd" clip-rule="evenodd" d="M147.545 41.5107C147.514 41.5139 147.489 41.5138 147.484 41.5138V40.3428L147.484 40.3428C147.479 40.3428 147.456 40.3428 147.427 40.3457C147.407 40.3481 147.348 40.3595 147.308 40.3705C147.204 40.4154 146.929 40.75 146.92 41.0753C147.004 41.2591 147.198 41.4371 147.253 41.4648C147.278 41.475 147.318 41.4885 147.332 41.4925C147.355 41.4987 147.373 41.502 147.377 41.5027L147.377 41.5028C147.385 41.5042 147.391 41.5052 147.393 41.5055C147.392 41.5054 147.39 41.5051 147.387 41.5047C147.369 41.5025 147.333 41.4985 147.279 41.493C147.171 41.482 147.003 41.4662 146.782 41.447C146.339 41.4088 145.687 41.3578 144.885 41.3073C143.282 41.2062 141.087 41.1076 138.784 41.1163C136.477 41.1251 134.079 41.2416 132.062 41.5658C131.054 41.7279 130.156 41.9395 129.42 42.2083C128.677 42.4796 128.141 42.7937 127.814 43.1349L126.969 42.3241C127.472 41.7999 128.196 41.4087 129.019 41.1083C129.849 40.8053 130.825 40.5787 131.876 40.4097C133.979 40.0716 136.446 39.9542 138.78 39.9454C141.117 39.9365 143.339 40.0366 144.959 40.1387C145.769 40.1897 146.431 40.2414 146.882 40.2804C147.108 40.2999 147.282 40.3163 147.397 40.328C147.454 40.3338 147.499 40.3388 147.53 40.3426L147.531 40.3426C147.541 40.3439 147.566 40.347 147.59 40.3514L147.59 40.3515C147.596 40.3525 147.616 40.3562 147.64 40.3628C147.655 40.3669 147.695 40.3806 147.72 40.3909C147.776 40.4187 147.97 40.5967 148.054 40.7807C148.045 41.1061 147.77 41.4408 147.665 41.4858C147.626 41.4969 147.566 41.5083 147.545 41.5107Z" fill="white"/>
<path fill-rule="evenodd" clip-rule="evenodd" d="M117.054 21.3092C117.316 21.3092 101.234 20.4337 96.9615 25.0106L117.054 21.3092Z" fill="white"/>
<path fill-rule="evenodd" clip-rule="evenodd" d="M117.087 21.8925C117.071 21.8933 117.059 21.8933 117.055 21.8933V20.7223L117.055 20.7223C117.053 20.7223 117.042 20.7223 117.028 20.723C117.019 20.7235 116.993 20.7259 116.976 20.728C116.934 20.7356 116.699 20.8451 116.556 21.0071C116.489 21.4432 116.815 21.8402 116.89 21.8683C116.913 21.8749 116.949 21.8828 116.961 21.8849C116.978 21.8877 116.991 21.8891 116.993 21.8893L116.993 21.8893C116.999 21.8899 117.002 21.8902 117.002 21.8902C117.002 21.8902 116.999 21.89 116.994 21.8896C116.975 21.8884 116.941 21.8864 116.89 21.8838C116.789 21.8787 116.63 21.8716 116.421 21.8642C116.003 21.8494 115.385 21.8332 114.623 21.828C113.096 21.8175 110.994 21.8509 108.755 22.0258C106.512 22.201 104.148 22.5169 102.092 23.0656C100.016 23.6195 98.3431 24.3881 97.3904 25.4086L96.5344 24.6096C97.718 23.3417 99.6572 22.5034 101.79 21.9342C103.943 21.3599 106.384 21.0365 108.663 20.8584C110.945 20.6802 113.082 20.6464 114.631 20.657C115.406 20.6624 116.035 20.6788 116.463 20.694C116.677 20.7016 116.841 20.7089 116.949 20.7143C117.002 20.7171 117.044 20.7194 117.071 20.7212C117.081 20.7219 117.1 20.7232 117.117 20.725L117.118 20.725C117.121 20.7254 117.136 20.727 117.154 20.73C117.166 20.7321 117.202 20.7401 117.226 20.7468C117.301 20.7749 117.628 21.172 117.561 21.6081C117.417 21.7702 117.182 21.8798 117.14 21.8874C117.123 21.8896 117.096 21.8919 117.087 21.8925Z" fill="white"/>
<path fill-rule="evenodd" clip-rule="evenodd" d="M160.131 56.4204C160.393 56.4204 156.871 53.8082 149.828 51.1167L160.131 56.4204Z" fill="white"/>
<path fill-rule="evenodd" clip-rule="evenodd" d="M160.429 56.9315C160.302 57.0031 160.183 57.0091 160.131 57.0091V55.8381C160.087 55.8381 159.975 55.8428 159.853 55.9119C159.701 55.9976 159.594 56.1489 159.566 56.3247C159.544 56.4666 159.581 56.5756 159.597 56.6177C159.616 56.6675 159.638 56.7021 159.648 56.7175C159.664 56.7407 159.677 56.7556 159.681 56.7604C159.678 56.7576 159.672 56.7512 159.66 56.7409C159.6 56.6866 159.478 56.5893 159.283 56.4505C158.898 56.1772 158.28 55.7768 157.428 55.2892C155.726 54.3148 153.112 53.0018 149.619 51.6668L150.037 50.573C153.586 51.9295 156.255 53.2684 158.01 54.273C158.886 54.7748 159.539 55.1957 159.961 55.4963C160.17 55.6444 160.335 55.7722 160.444 55.8713C160.489 55.9112 160.566 55.983 160.624 56.0697C160.64 56.095 160.667 56.1383 160.689 56.1955C160.708 56.2452 160.746 56.3604 160.723 56.5073C160.694 56.6882 160.585 56.8433 160.429 56.9315ZM159.683 56.7621C159.683 56.7621 159.682 56.7616 159.681 56.7604C159.682 56.7616 159.683 56.7621 159.683 56.7621Z" fill="white"/>
<path fill-rule="evenodd" clip-rule="evenodd" d="M60.8646 15.2276C26.2868 25.9403 1.17106 58.1713 1.17106 96.2687C1.17106 143.119 39.1503 181.098 86.0001 181.098C132.85 181.098 170.829 143.119 170.829 96.2687C170.829 87.9029 169.618 79.8208 167.362 72.1877L168.485 71.8559C170.772 79.5955 172 87.7893 172 96.2687C172 143.765 133.497 182.269 86.0001 182.269C38.5036 182.269 0.00012207 143.765 0.00012207 96.2687C0.00012207 57.6436 25.464 24.9693 60.5181 14.1091L60.8646 15.2276Z" fill="white"/>
<path fill-rule="evenodd" clip-rule="evenodd" d="M19.4474 76.904C19.4474 76.5986 19.5429 76.2644 19.7336 75.902C19.9246 75.5392 20.1632 75.1862 20.4494 74.8426C20.7356 74.499 21.041 74.2129 21.3653 73.9841C21.69 73.7549 22.0049 73.6405 22.3103 73.6405C22.7301 73.6405 23.1594 73.8504 23.5985 74.2702C24.0371 74.69 24.4094 75.0525 24.7148 75.3579C25.3257 76.007 25.8694 76.6842 26.3467 77.3906C26.8238 78.0966 27.2912 78.8313 27.7496 79.5948C29.925 83.221 31.7285 87.0093 33.1601 90.9599C34.5914 94.9105 35.7459 98.9472 36.6241 103.07C36.9292 102.039 37.3395 101.046 37.8549 100.092C38.3702 99.1379 38.8951 98.1839 39.4296 97.2294C40.4218 95.3972 41.4238 93.5937 42.4352 91.8188C43.4467 90.044 44.4679 88.2593 45.4986 86.4656C46.6437 84.4805 47.8077 82.4482 48.9909 80.3679C50.1745 78.2877 51.3958 76.2931 52.6554 74.3846C52.7698 74.194 52.9132 73.9743 53.085 73.7262C53.2567 73.4781 53.4474 73.2301 53.6573 72.982C53.8673 72.7336 54.0771 72.5238 54.2871 72.3519C54.4969 72.1806 54.7167 72.0945 54.9455 72.0945C55.3653 72.0945 55.7663 72.2568 56.1479 72.5811C56.5297 72.9054 56.7203 73.2777 56.7203 73.6975C56.7203 73.8886 56.6539 74.0698 56.5202 74.2416C56.3866 74.4134 56.2623 74.5757 56.1479 74.7282C55.0411 76.1024 54.0583 77.5624 53.1994 79.1081C52.3405 80.6541 51.4721 82.1903 50.5943 83.7171C48.9527 86.5419 47.3497 89.3761 45.7848 92.2198C44.2199 95.0634 42.6738 97.9165 41.1471 100.779C40.8416 101.352 40.498 101.982 40.1163 102.669C39.7347 103.356 39.353 104.062 38.9713 104.787C38.5895 105.512 38.2365 106.228 37.9123 106.934C37.5876 107.641 37.3493 108.28 37.1964 108.852C37.0439 109.349 36.939 109.816 36.8816 110.255C36.8242 110.694 36.7192 111.066 36.5667 111.371C36.4142 111.677 36.1755 111.925 35.8509 112.116C35.5266 112.307 35.0207 112.402 34.3339 112.402C33.8756 112.402 33.532 112.288 33.3032 112.059C33.074 111.83 32.9023 111.543 32.7879 111.2C32.6735 110.856 32.6067 110.494 32.5874 110.112C32.5686 109.73 32.5206 109.387 32.4443 109.081C31.7572 104.806 30.6408 100.512 29.0947 96.199C27.5491 91.8857 25.8025 87.7825 23.8559 83.8889C23.398 83.0112 22.9208 82.1141 22.4247 81.1982C21.9286 80.2818 21.3559 79.4422 20.7069 78.6788C20.5162 78.4882 20.2583 78.2115 19.9341 77.8486C19.6097 77.4862 19.4474 77.1713 19.4474 76.904ZM158.765 99.9541C158.765 99.1066 158.408 98.6825 157.694 98.6825C157.204 98.6825 156.824 98.8721 156.557 99.2515C156.289 99.6306 156.044 99.9987 155.821 100.356C155.419 100.98 154.817 101.806 154.014 102.832C153.21 103.858 152.34 104.851 151.404 105.81C150.467 106.77 149.507 107.606 148.526 108.32C147.544 109.034 146.652 109.39 145.849 109.39C145.313 109.39 144.9 109.112 144.61 108.554C144.321 107.996 144.109 107.349 143.975 106.613C143.841 105.877 143.763 105.152 143.741 104.438C143.718 103.724 143.707 103.189 143.707 102.832C143.707 101.672 143.785 100.434 143.941 99.1175C144.097 97.8014 144.354 96.5634 144.711 95.4032C144.889 94.9124 145.135 94.2657 145.447 93.4627C145.759 92.6592 145.916 92.0125 145.916 91.5217C145.916 91.0754 145.748 90.7855 145.414 90.6518C145.079 90.5178 144.733 90.451 144.376 90.451C143.752 90.451 143.272 90.6628 142.938 91.0868C142.603 91.5104 142.324 91.968 142.101 92.4588C141.878 92.9046 141.554 93.5853 141.131 94.4998C140.707 95.4145 140.205 96.4071 139.625 97.4778C139.045 98.5489 138.431 99.6532 137.784 100.791C137.137 101.929 136.479 102.955 135.81 103.869C135.141 104.784 134.494 105.543 133.869 106.145C133.245 106.747 132.687 107.048 132.196 107.048C131.794 107.048 131.549 106.847 131.46 106.446C131.371 106.044 131.326 105.71 131.326 105.442C131.326 102.899 131.839 100.523 132.865 98.3144C133.892 96.1063 135.275 94.1094 137.015 92.3247C137.996 91.2985 139.033 90.3951 140.127 89.6143C141.22 88.8336 142.369 88.0861 143.573 87.3726C143.752 87.283 143.908 87.1826 144.042 87.0712C144.176 86.9595 144.242 86.7922 144.242 86.5691C144.242 86.0783 143.997 85.6102 143.506 85.1639C143.016 84.7176 142.525 84.4945 142.034 84.4945C140.071 84.4945 138.186 85.1639 136.379 86.5023C134.572 87.8407 132.966 89.503 131.56 91.4881C130.155 93.4736 129.028 95.5818 128.181 97.8127C128.115 97.9856 128.051 98.1574 127.991 98.3273C127.776 98.6561 127.592 98.9533 127.441 99.2179C127.084 99.9319 126.571 100.802 125.901 101.828C125.232 102.854 124.474 103.847 123.626 104.806C122.778 105.765 121.897 106.591 120.983 107.282C120.068 107.974 119.164 108.32 118.272 108.32C117.737 108.32 117.324 108.186 117.034 107.918C116.744 107.65 116.532 107.316 116.398 106.914C116.264 106.513 116.186 106.078 116.164 105.609C116.141 105.141 116.13 104.706 116.13 104.304C116.13 102.743 116.175 101.181 116.264 99.6192C116.354 98.0578 116.398 96.4962 116.398 94.9347C116.398 94.4439 116.376 93.8417 116.331 93.1277C116.287 92.4139 116.164 91.6999 115.963 90.986C115.762 90.2721 115.461 89.6698 115.06 89.179C114.658 88.6883 114.123 88.4429 113.453 88.4429C112.606 88.4429 111.613 88.9337 110.475 89.9152C109.338 90.8969 108.211 92.0344 107.096 93.3286C105.98 94.6225 104.943 95.9386 103.983 97.2769C103.024 98.6154 102.299 99.6415 101.808 100.355C101.987 99.0616 102.21 97.7678 102.478 96.4739C102.745 95.1801 103.125 93.9086 103.616 92.6592C104.017 91.5886 104.407 90.4174 104.787 89.1458C105.166 87.8742 105.355 86.6582 105.355 85.4983C105.355 84.7845 105.21 84.2268 104.921 83.8251C104.631 83.4234 104.106 83.2229 103.348 83.2229C102.5 83.2229 101.686 83.5574 100.905 84.2268C100.124 84.8958 99.6447 85.632 99.4661 86.4351C99.243 87.4612 99.0422 88.51 98.864 89.5807C98.6854 90.6515 98.4846 91.6999 98.2614 92.7261C97.9273 94.3306 97.5905 95.968 97.2507 97.6394C97.2126 97.6832 97.1752 97.7296 97.1386 97.7791C96.8263 98.2027 96.5587 98.5708 96.3356 98.8834C95.9338 99.5079 95.2871 100.345 94.3946 101.393C93.5025 102.441 92.5209 103.468 91.4501 104.471C90.3794 105.475 89.3083 106.346 88.2377 107.082C87.1669 107.818 86.2299 108.163 85.4268 108.119C85.9622 107.36 86.3525 106.535 86.598 105.643C86.8434 104.75 86.9661 103.858 86.9661 102.966C86.9661 101.538 86.7429 100.133 86.2967 98.7494C85.8508 97.3665 85.2928 96.0167 84.6238 94.7006C83.9544 93.3842 83.2627 92.0794 82.5492 90.7855C81.8352 89.4916 81.2104 88.1978 80.6751 86.9036C81.0768 85.8774 81.4335 84.7958 81.7458 83.6579C82.0584 82.5203 82.2143 81.3937 82.2143 80.2781C82.2143 79.9213 82.1811 79.5419 82.1139 79.1405C82.0471 78.7389 81.9357 78.3485 81.7794 77.9694C81.6231 77.59 81.4003 77.2778 81.11 77.0323C80.82 76.7869 80.4743 76.6643 80.0729 76.6643C79.2698 76.6643 78.5559 76.9542 77.9311 77.5341C77.3066 78.1144 76.7936 78.8057 76.3918 79.609C75.9905 80.4121 75.6783 81.2597 75.4551 82.1522C75.232 83.0444 75.1203 83.8251 75.1203 84.4945C75.1203 85.6993 75.3211 86.8813 75.7228 88.0415C74.0748 94.0347 70.4674 98.9129 66.9038 103.367C66.0117 104.483 65.0301 105.476 63.959 106.346C62.8882 107.215 61.7285 107.929 60.4791 108.487C59.2299 109.045 57.8911 109.324 56.4636 109.324C54.9021 109.324 53.7864 108.889 53.1174 108.019C52.4481 107.138 52.1136 105.944 52.1136 104.427C52.1136 103.579 52.225 102.631 52.4481 101.605C53.4742 101.248 54.5895 100.579 55.7942 99.5974C56.9989 98.6048 58.1255 97.4782 59.174 96.2066C60.2224 94.9238 61.0927 93.6076 61.7839 92.2466C62.4756 90.8859 62.8214 89.6366 62.8214 88.5214C62.8214 87.3612 62.4979 86.3909 61.8511 85.6325C61.204 84.8739 60.2783 84.4945 59.0735 84.4945C57.2889 84.4945 55.6492 85.1861 54.1545 86.5695C52.6598 87.9524 51.3773 89.6366 50.3066 91.6221C49.2355 93.6076 48.4103 95.6709 47.8303 97.8127C47.2504 99.9541 46.9601 101.784 46.9601 103.301C46.9601 104.505 47.0941 105.654 47.3618 106.747C47.6294 107.84 48.0644 108.8 48.667 109.625C49.2692 110.45 50.039 111.12 50.9756 111.633C51.9127 112.146 53.0502 112.402 54.389 112.402C56.2182 112.402 57.9806 112.101 59.6761 111.488C61.3712 110.874 62.9551 110.049 64.4275 109.011C65.8999 107.974 67.2496 106.758 68.4767 105.375C71.5589 101.9 74.3214 97.9146 76.1578 93.6295C76.6263 92.5365 77.0167 91.544 77.3289 90.6515C77.8642 91.4545 78.4109 92.4029 78.9685 93.4959C79.5262 94.5889 80.0284 95.7155 80.4743 96.8756C80.9205 98.0355 81.2886 99.1956 81.5786 100.355C81.8685 101.516 82.0139 102.609 82.0139 103.635C82.0139 105.33 81.5563 106.725 80.6418 107.818C79.7271 108.911 78.3773 109.457 76.5927 109.457C75.7005 109.457 74.8749 109.368 74.1164 109.19C73.3579 109.011 72.5994 108.677 71.8409 108.186C71.6181 108.052 71.4282 107.94 71.2724 107.851C71.116 107.762 70.9043 107.718 70.6366 107.718C69.9226 107.718 69.5655 108.052 69.5655 108.721C69.5655 109.034 69.6327 109.301 69.7663 109.524C69.9003 109.748 70.0785 109.97 70.3017 110.193C71.2833 111.131 72.5216 111.733 74.016 112C75.5107 112.268 76.9049 112.402 78.1987 112.402C80.6083 112.402 82.8055 112.123 84.791 111.565C86.7766 111.008 88.5834 110.193 90.2118 109.123C91.8405 108.052 93.3461 106.736 94.7295 105.174C95.1818 104.664 95.6265 104.132 96.0644 103.578C95.4766 106.774 95.1829 109.894 95.1829 112.937C95.1829 113.384 95.2946 113.774 95.5178 114.109C95.7405 114.443 96.0977 114.611 96.5885 114.611C97.213 114.611 97.7597 114.388 98.2282 113.941C98.6967 113.495 99.0648 113.004 99.3325 112.469C100.091 110.773 100.872 109.111 101.675 107.483C102.478 105.854 103.37 104.26 104.352 102.698C105.155 101.404 106.047 100.043 107.029 98.6154C108.01 97.1878 109.059 95.9386 110.174 94.8678C110.353 94.6893 110.598 94.4662 110.91 94.1985C111.223 93.9308 111.49 93.7967 111.713 93.7967C111.981 93.7967 112.149 93.9754 112.215 94.3325C112.282 94.6893 112.316 94.957 112.316 95.1355C112.316 96.4294 112.271 97.701 112.182 98.9502C112.093 100.2 112.048 101.471 112.048 102.765C112.048 103.613 112.081 104.55 112.149 105.576C112.215 106.602 112.416 107.561 112.751 108.453C113.085 109.346 113.576 110.093 114.223 110.696C114.87 111.298 115.773 111.599 116.934 111.599C118.183 111.599 119.466 111.197 120.782 110.394C122.098 109.591 123.347 108.61 124.53 107.449C125.41 106.586 126.216 105.679 126.947 104.729C126.975 105.099 127.018 105.493 127.076 105.911C127.188 106.714 127.388 107.472 127.679 108.186C127.969 108.9 128.381 109.502 128.917 109.993C129.452 110.484 130.122 110.729 130.925 110.729C131.817 110.729 132.72 110.394 133.635 109.725C134.55 109.056 135.431 108.253 136.279 107.316C137.126 106.379 137.896 105.409 138.587 104.405C139.279 103.401 139.848 102.564 140.294 101.895C140.249 102.698 140.272 103.691 140.361 104.873C140.45 106.056 140.673 107.193 141.03 108.286C141.387 109.38 141.9 110.317 142.569 111.097C143.238 111.878 144.131 112.268 145.246 112.268C146.406 112.268 147.578 111.934 148.76 111.265C149.942 110.595 151.058 109.77 152.106 108.788C153.155 107.807 154.125 106.758 155.017 105.643C155.91 104.527 156.668 103.546 157.293 102.698C157.516 102.341 157.817 101.895 158.196 101.36C158.575 100.824 158.765 100.356 158.765 99.9541ZM58.739 87.5729C59.1853 87.5729 59.4862 87.7406 59.6425 88.0751C59.7988 88.4096 59.8766 88.7668 59.8766 89.1236C59.8766 90.016 59.6311 90.9528 59.1404 91.9121C58.6496 92.8824 58.0474 93.8195 57.3334 94.7452C56.6195 95.6599 55.8388 96.4966 54.9912 97.2328C54.1436 97.9687 53.3629 98.5712 52.6489 99.0175C52.738 98.4372 52.9834 97.5005 53.3851 96.2289C53.7864 94.946 54.2773 93.6635 54.8575 92.3916C55.4374 91.1091 56.0619 89.9825 56.7313 89.0231C57.4007 88.0528 58.0697 87.5729 58.739 87.5729Z" fill="white"/>
<path d="M46.5934 136.402V141.405H46.0386V136.878H43.9904L43.9026 138.751C43.8656 139.444 43.7962 139.974 43.6945 140.341C43.5928 140.705 43.4418 140.973 43.2414 141.146C43.0411 141.318 42.7745 141.405 42.4416 141.405H42.2289V140.914L42.4 140.905C42.7175 140.899 42.9455 140.745 43.0842 140.443C43.2229 140.141 43.3139 139.601 43.357 138.825L43.4587 136.402H46.5934Z" fill="white"/>
<path d="M51.2399 141.405C51.1844 141.247 51.149 141.015 51.1336 140.706C50.9394 140.959 50.6913 141.155 50.3892 141.294C50.0902 141.429 49.7728 141.497 49.4368 141.497C48.956 141.497 48.5661 141.363 48.2671 141.095C47.9712 140.827 47.8232 140.488 47.8232 140.078C47.8232 139.591 48.0251 139.205 48.4289 138.922C48.8358 138.638 49.4014 138.496 50.1257 138.496H51.129V137.928C51.129 137.57 51.018 137.29 50.7961 137.086C50.5772 136.88 50.2567 136.777 49.8344 136.777C49.4491 136.777 49.1301 136.875 48.8774 137.072C48.6246 137.27 48.4983 137.507 48.4983 137.784L47.9434 137.78C47.9434 137.382 48.1284 137.038 48.4983 136.749C48.8681 136.456 49.3228 136.31 49.8622 136.31C50.42 136.31 50.8593 136.45 51.1798 136.73C51.5035 137.008 51.6699 137.396 51.6792 137.895V140.263C51.6792 140.746 51.73 141.109 51.8317 141.349V141.405H51.2399ZM49.5015 141.007C49.8714 141.007 50.2012 140.918 50.4909 140.739C50.7838 140.56 50.9964 140.321 51.129 140.022V138.922H50.1396C49.5878 138.928 49.1563 139.03 48.845 139.227C48.5337 139.421 48.378 139.689 48.378 140.031C48.378 140.312 48.4813 140.545 48.6878 140.73C48.8974 140.914 49.1686 141.007 49.5015 141.007Z" fill="white"/>
<path d="M57.0007 141.405H56.4459V139.111H53.7504V141.405H53.1956V136.402H53.7504V138.644H56.4459V136.402H57.0007V141.405Z" fill="white"/>
<path d="M58.3692 140.938L58.6143 140.619C59.0026 140.091 59.2261 139.321 59.2847 138.307L59.3725 136.402H62.3269V140.938H62.8447V142.875H62.2945V141.405H58.5357V142.875H58.004L58.0086 140.938H58.3692ZM59.0072 140.938H61.772V136.92H59.8996L59.8395 138.219C59.784 139.412 59.5066 140.318 59.0072 140.938Z" fill="white"/>
<path d="M64.5045 136.402V140.938H66.7283V136.402H67.2831V140.938H69.4885V136.402H70.0433V141.405H63.9497V136.402H64.5045Z" fill="white"/>
<path d="M74.5881 141.405C74.5326 141.247 74.4972 141.015 74.4818 140.706C74.2876 140.959 74.0395 141.155 73.7374 141.294C73.4384 141.429 73.121 141.497 72.785 141.497C72.3042 141.497 71.9143 141.363 71.6153 141.095C71.3194 140.827 71.1714 140.488 71.1714 140.078C71.1714 139.591 71.3733 139.205 71.7771 138.922C72.184 138.638 72.7496 138.496 73.4739 138.496H74.4772V137.928C74.4772 137.57 74.3662 137.29 74.1443 137.086C73.9254 136.88 73.6049 136.777 73.1826 136.777C72.7973 136.777 72.4783 136.875 72.2256 137.072C71.9728 137.27 71.8464 137.507 71.8464 137.784L71.2916 137.78C71.2916 137.382 71.4766 137.038 71.8464 136.749C72.2163 136.456 72.671 136.31 73.2104 136.31C73.7682 136.31 74.2075 136.45 74.528 136.73C74.8517 137.008 75.0181 137.396 75.0274 137.895V140.263C75.0274 140.746 75.0782 141.109 75.1799 141.349V141.405H74.5881ZM72.8497 141.007C73.2196 141.007 73.5494 140.918 73.8391 140.739C74.132 140.56 74.3446 140.321 74.4772 140.022V138.922H73.4878C72.936 138.928 72.5045 139.03 72.1932 139.227C71.8819 139.421 71.7262 139.689 71.7262 140.031C71.7262 140.312 71.8295 140.545 72.036 140.73C72.2456 140.914 72.5168 141.007 72.8497 141.007Z" fill="white"/>
<path d="M76.2988 138.945C76.2988 138.131 76.4575 137.489 76.775 137.017C77.0956 136.545 77.5379 136.31 78.1019 136.31C78.4256 136.31 78.6999 136.382 78.9249 136.527V134.303H79.4751V136.545C79.7032 136.388 79.9867 136.31 80.3258 136.31C80.859 136.31 81.2859 136.524 81.6065 136.952C81.927 137.381 82.1012 137.977 82.1289 138.741L82.1335 139.042C82.1335 139.803 81.9732 140.404 81.6527 140.845C81.3321 141.283 80.8929 141.502 80.335 141.502C80.0021 141.502 79.7155 141.429 79.4751 141.284V143.328H78.9249V141.289C78.6875 141.431 78.4101 141.502 78.0927 141.502C77.5656 141.502 77.1433 141.303 76.8259 140.905C76.5084 140.505 76.3342 139.951 76.3034 139.245L76.2988 138.945ZM81.5833 138.945C81.5833 138.273 81.4616 137.744 81.2181 137.359C80.9777 136.974 80.6402 136.781 80.2056 136.781C79.8912 136.781 79.6477 136.849 79.4751 136.985V140.854C79.6693 140.975 79.9158 141.035 80.2148 141.035C80.6463 141.035 80.9823 140.862 81.2227 140.517C81.4631 140.169 81.5833 139.645 81.5833 138.945ZM76.8536 139.042C76.8536 139.671 76.9692 140.161 77.2004 140.512C77.4315 140.861 77.7644 141.035 78.199 141.035C78.4887 141.035 78.7307 140.971 78.9249 140.845V136.971C78.7461 136.844 78.5072 136.781 78.2083 136.781C77.7767 136.781 77.4423 136.974 77.205 137.359C76.9707 137.741 76.8536 138.302 76.8536 139.042Z" fill="white"/>
<path d="M86.5905 136.874H84.7689V141.405H84.2141V136.874H82.4618V136.402H86.5905V136.874Z" fill="white"/>
<path d="M91.3433 141.405H90.7885V139.111H88.0931V141.405H87.5383V136.402H88.0931V138.644H90.7885V136.402H91.3433V141.405Z" fill="white"/>
<path d="M95.9852 141.405C95.9298 141.247 95.8943 141.015 95.8789 140.706C95.6847 140.959 95.4366 141.155 95.1345 141.294C94.8356 141.429 94.5181 141.497 94.1821 141.497C93.7013 141.497 93.3114 141.363 93.0124 141.095C92.7165 140.827 92.5686 140.488 92.5686 140.078C92.5686 139.591 92.7704 139.205 93.1742 138.922C93.5811 138.638 94.1467 138.496 94.871 138.496H95.8743V137.928C95.8743 137.57 95.7633 137.29 95.5414 137.086C95.3226 136.88 95.002 136.777 94.5797 136.777C94.1944 136.777 93.8754 136.875 93.6227 137.072C93.3699 137.27 93.2436 137.507 93.2436 137.784L92.6888 137.78C92.6888 137.382 92.8737 137.038 93.2436 136.749C93.6134 136.456 94.0681 136.31 94.6075 136.31C95.1654 136.31 95.6046 136.45 95.9251 136.73C96.2488 137.008 96.4152 137.396 96.4245 137.895V140.263C96.4245 140.746 96.4753 141.109 96.577 141.349V141.405H95.9852ZM94.2468 141.007C94.6167 141.007 94.9465 140.918 95.2363 140.739C95.5291 140.56 95.7417 140.321 95.8743 140.022V138.922H94.8849C94.3331 138.928 93.9016 139.03 93.5903 139.227C93.279 139.421 93.1234 139.689 93.1234 140.031C93.1234 140.312 93.2266 140.545 93.4331 140.73C93.6427 140.914 93.914 141.007 94.2468 141.007Z" fill="white"/>
<path d="M101.552 136.402V141.405H100.997V139.389H99.4436L98.223 141.405H97.6127L98.8703 139.319C98.5281 139.23 98.2615 139.057 98.0704 138.802C97.8824 138.546 97.7884 138.244 97.7884 137.895C97.7884 137.442 97.9502 137.08 98.2738 136.809C98.6006 136.538 99.0413 136.402 99.5961 136.402H101.552ZM98.3432 137.905C98.3432 138.197 98.4356 138.438 98.6206 138.626C98.8086 138.814 99.0691 138.911 99.4019 138.917H100.997V136.874H99.5823C99.197 136.874 98.8934 136.966 98.6714 137.151C98.4526 137.336 98.3432 137.587 98.3432 137.905Z" fill="white"/>
<path d="M107.197 141.03C107.582 141.03 107.904 140.922 108.163 140.706C108.425 140.488 108.567 140.206 108.589 139.86H109.12C109.105 140.165 109.009 140.444 108.834 140.697C108.658 140.947 108.424 141.143 108.131 141.284C107.841 141.426 107.53 141.497 107.197 141.497C106.54 141.497 106.02 141.269 105.634 140.813C105.252 140.357 105.061 139.743 105.061 138.973V138.806C105.061 138.313 105.147 137.877 105.32 137.498C105.493 137.119 105.739 136.826 106.06 136.619C106.383 136.413 106.761 136.31 107.192 136.31C107.741 136.31 108.193 136.473 108.547 136.8C108.905 137.126 109.096 137.556 109.12 138.09H108.589C108.564 137.698 108.422 137.382 108.163 137.142C107.907 136.901 107.584 136.781 107.192 136.781C106.693 136.781 106.305 136.961 106.027 137.322C105.753 137.683 105.616 138.188 105.616 138.839V139C105.616 139.638 105.753 140.136 106.027 140.494C106.305 140.851 106.695 141.03 107.197 141.03Z" fill="white"/>
<path d="M113.822 136.874H112.001V141.405H111.446V136.874H109.694V136.402H113.822V136.874Z" fill="white"/>
<path d="M116.374 140.609L117.835 136.402H118.432L116.296 142.255L116.185 142.514C115.911 143.121 115.487 143.425 114.913 143.425C114.781 143.425 114.639 143.403 114.488 143.36L114.483 142.903L114.77 142.93C115.041 142.93 115.26 142.862 115.427 142.727C115.596 142.594 115.74 142.365 115.857 142.038L116.102 141.363L114.215 136.402H114.821L116.374 140.609Z" fill="white"/>
<path d="M118.917 140.938L119.162 140.619C119.551 140.091 119.774 139.321 119.833 138.307L119.921 136.402H122.875V140.938H123.393V142.875H122.843V141.405H119.084V142.875H118.552L118.557 140.938H118.917ZM119.555 140.938H122.32V136.92H120.448L120.388 138.219C120.332 139.412 120.055 140.318 119.555 140.938Z" fill="white"/>
<path d="M127.748 136.402H128.303V141.405H127.748V137.294L125.048 141.405H124.498V136.402H125.048V140.517L127.748 136.402Z" fill="white"/>
<path d="M133.435 136.402V141.405H132.88V139.389H131.327L130.106 141.405H129.496L130.753 139.319C130.411 139.23 130.145 139.057 129.953 138.802C129.765 138.546 129.671 138.244 129.671 137.895C129.671 137.442 129.833 137.08 130.157 136.809C130.484 136.538 130.924 136.402 131.479 136.402H133.435ZM130.226 137.905C130.226 138.197 130.319 138.438 130.504 138.626C130.692 138.814 130.952 138.911 131.285 138.917H132.88V136.874H131.465C131.08 136.874 130.776 136.966 130.554 137.151C130.336 137.336 130.226 137.587 130.226 137.905Z" fill="white"/>
<path d="M50.4355 148.446L52.9182 154.387L55.4102 148.446H56.1685V155.177H55.5998V152.246L55.646 149.241L53.1401 155.177H52.7009L50.2043 149.264L50.2505 152.228V155.177H49.6818V148.446H50.4355Z" fill="white"/>
<path d="M60.9028 155.177C60.8474 155.02 60.8119 154.787 60.7965 154.479C60.6023 154.732 60.3542 154.928 60.0521 155.066C59.7532 155.202 59.4357 155.27 59.0997 155.27C58.6189 155.27 58.229 155.136 57.93 154.867C57.6341 154.599 57.4861 154.26 57.4861 153.85C57.4861 153.363 57.688 152.978 58.0918 152.694C58.4987 152.411 59.0643 152.269 59.7886 152.269H60.7919V151.7C60.7919 151.343 60.6809 151.062 60.459 150.859C60.2402 150.652 59.9196 150.549 59.4973 150.549C59.112 150.549 58.793 150.648 58.5403 150.845C58.2875 151.042 58.1612 151.28 58.1612 151.557L57.6064 151.552C57.6064 151.155 57.7913 150.811 58.1612 150.521C58.531 150.229 58.9857 150.082 59.5251 150.082C60.083 150.082 60.5222 150.222 60.8427 150.503C61.1664 150.78 61.3328 151.169 61.3421 151.668V154.035C61.3421 154.519 61.3929 154.881 61.4946 155.122V155.177H60.9028ZM59.1644 154.78C59.5343 154.78 59.8641 154.69 60.1539 154.511C60.4467 154.333 60.6593 154.094 60.7919 153.795V152.694H59.8025C59.2507 152.701 58.8192 152.802 58.5079 153C58.1966 153.194 58.041 153.462 58.041 153.804C58.041 154.085 58.1442 154.317 58.3507 154.502C58.5603 154.687 58.8316 154.78 59.1644 154.78Z" fill="white"/>
<path d="M66.8439 152.727C66.8439 153.507 66.6713 154.126 66.3261 154.585C65.9809 155.042 65.5185 155.27 64.9391 155.27C64.2548 155.27 63.7308 155.029 63.3671 154.548V157.101H62.8169V150.175H63.3301L63.3579 150.882C63.7185 150.349 64.2409 150.082 64.9252 150.082C65.5232 150.082 65.9917 150.309 66.3307 150.762C66.6729 151.215 66.8439 151.844 66.8439 152.648V152.727ZM66.2891 152.63C66.2891 151.992 66.1581 151.488 65.8961 151.118C65.6341 150.748 65.2689 150.563 64.8004 150.563C64.4613 150.563 64.1701 150.645 63.9266 150.808C63.6831 150.971 63.4966 151.209 63.3671 151.52V153.92C63.4997 154.206 63.6892 154.425 63.9358 154.576C64.1824 154.727 64.4737 154.803 64.8096 154.803C65.275 154.803 65.6372 154.618 65.8961 154.248C66.1581 153.875 66.2891 153.336 66.2891 152.63Z" fill="white"/>
<path d="M71.361 150.175H71.9158V155.177H71.361V151.067L68.6609 155.177H68.1107V150.175H68.6609V154.29L71.361 150.175Z" fill="white"/>
<path d="M77.242 155.177H76.6872V152.884H73.9917V155.177H73.4369V150.175H73.9917V152.417H76.6872V150.175H77.242V155.177Z" fill="white"/>
<path d="M79.3364 151.992H80.7789C81.1487 151.992 81.4724 152.06 81.7498 152.195C82.0303 152.328 82.2414 152.513 82.3832 152.75C82.5281 152.987 82.6005 153.263 82.6005 153.578C82.6005 154.061 82.434 154.45 82.1012 154.743C81.7714 155.032 81.3244 155.177 80.7604 155.177H78.7862V150.175H79.3364V151.992ZM79.3364 152.463V154.71H80.7696C81.1672 154.71 81.4785 154.61 81.7035 154.41C81.9316 154.209 82.0457 153.935 82.0457 153.587C82.0457 153.254 81.9347 152.986 81.7128 152.782C81.494 152.576 81.1934 152.469 80.8112 152.463H79.3364ZM84.2973 155.177H83.7425V150.175H84.2973V155.177Z" fill="white"/>
<path d="M89.7853 152.019H88.8606V155.177H88.2919V148.446H88.8606V151.534H89.7575L92.3605 148.446H93.0771L90.3123 151.756L93.2806 155.177H92.5732L89.7853 152.019Z" fill="white"/>
<path d="M98.0981 152.727C98.0981 153.507 97.9255 154.126 97.5803 154.585C97.2351 155.042 96.7728 155.27 96.1933 155.27C95.509 155.27 94.9851 155.029 94.6213 154.548V157.101H94.0712V150.175H94.5844L94.6121 150.882C94.9727 150.349 95.4952 150.082 96.1794 150.082C96.7774 150.082 97.2459 150.309 97.5849 150.762C97.9271 151.215 98.0981 151.844 98.0981 152.648V152.727ZM97.5433 152.63C97.5433 151.992 97.4123 151.488 97.1503 151.118C96.8884 150.748 96.5231 150.563 96.0546 150.563C95.7155 150.563 95.4243 150.645 95.1808 150.808C94.9373 150.971 94.7508 151.209 94.6213 151.52V153.92C94.7539 154.206 94.9434 154.425 95.19 154.576C95.4366 154.727 95.7279 154.803 96.0638 154.803C96.5293 154.803 96.8914 154.618 97.1503 154.248C97.4123 153.875 97.5433 153.336 97.5433 152.63Z" fill="white"/>
<path d="M99.0228 152.602C99.0228 152.121 99.1153 151.688 99.3002 151.303C99.4882 150.918 99.7518 150.619 100.091 150.406C100.433 150.19 100.82 150.082 101.251 150.082C101.917 150.082 102.456 150.316 102.869 150.785C103.283 151.25 103.489 151.868 103.489 152.639V152.755C103.489 153.238 103.395 153.675 103.207 154.063C103.022 154.448 102.76 154.746 102.421 154.955C102.082 155.165 101.695 155.27 101.261 155.27C100.598 155.27 100.058 155.037 99.6424 154.572C99.2293 154.103 99.0228 153.484 99.0228 152.713V152.602ZM99.5776 152.755C99.5776 153.353 99.7317 153.844 100.04 154.229C100.351 154.612 100.758 154.803 101.261 154.803C101.76 154.803 102.164 154.612 102.472 154.229C102.783 153.844 102.939 153.337 102.939 152.708V152.602C102.939 152.22 102.868 151.87 102.726 151.552C102.584 151.235 102.386 150.99 102.13 150.817C101.874 150.642 101.581 150.554 101.251 150.554C100.758 150.554 100.356 150.748 100.045 151.136C99.7333 151.522 99.5776 152.027 99.5776 152.653V152.755Z" fill="white"/>
<path d="M106.106 152.204L107.456 150.175H108.112L106.416 152.63L108.186 155.177H107.535L106.111 153.06L104.686 155.177H104.035L105.801 152.63L104.104 150.175H104.756L106.106 152.204Z" fill="white"/>
<path d="M112.426 150.175H112.981V155.177H112.426V151.067L109.726 155.177H109.176V150.175H109.726V154.29L112.426 150.175Z" fill="white"/>
<path d="M118.307 155.177H117.752V152.884H115.057V155.177H114.502V150.175H115.057V152.417H117.752V150.175H118.307V155.177Z" fill="white"/>
<path d="M119.486 152.602C119.486 152.121 119.578 151.688 119.763 151.303C119.951 150.918 120.215 150.619 120.554 150.406C120.896 150.19 121.283 150.082 121.714 150.082C122.38 150.082 122.92 150.316 123.333 150.785C123.746 151.25 123.952 151.868 123.952 152.639V152.755C123.952 153.238 123.858 153.675 123.67 154.063C123.485 154.448 123.223 154.746 122.884 154.955C122.545 155.165 122.158 155.27 121.724 155.27C121.061 155.27 120.522 155.037 120.106 154.572C119.693 154.103 119.486 153.484 119.486 152.713V152.602ZM120.041 152.755C120.041 153.353 120.195 153.844 120.503 154.229C120.814 154.612 121.221 154.803 121.724 154.803C122.223 154.803 122.627 154.612 122.935 154.229C123.246 153.844 123.402 153.337 123.402 152.708V152.602C123.402 152.22 123.331 151.87 123.189 151.552C123.048 151.235 122.849 150.99 122.593 150.817C122.337 150.642 122.044 150.554 121.714 150.554C121.221 150.554 120.819 150.748 120.508 151.136C120.196 151.522 120.041 152.027 120.041 152.653V152.755Z" fill="white"/>
<path d="M128.386 150.175H128.941V155.177H128.386V151.067L125.686 155.177H125.136V150.175H125.686V154.29L128.386 150.175ZM128.358 148.372C128.358 148.726 128.237 149.013 127.993 149.232C127.753 149.45 127.429 149.56 127.022 149.56C126.621 149.56 126.298 149.452 126.051 149.236C125.808 149.017 125.686 148.729 125.686 148.372H126.158C126.158 148.627 126.233 148.823 126.384 148.959C126.538 149.094 126.751 149.162 127.022 149.162C127.293 149.162 127.505 149.091 127.656 148.95C127.81 148.808 127.887 148.615 127.887 148.372H128.358Z" fill="white"/>
</svg>
