<svg width="489" height="385" viewBox="0 0 489 385" fill="none" xmlns="http://www.w3.org/2000/svg">
<path fill-rule="evenodd" clip-rule="evenodd" d="M428.818 308.502C184.553 296.091 52.1414 149.09 -23.0001 4.25864L-17.6075 0.501831C56.7099 143.745 187.401 288.937 429.093 301.218L428.818 308.502Z" fill="#99A18E" fill-opacity="0.12"/>
<path fill-rule="evenodd" clip-rule="evenodd" d="M327.153 290.784C325.747 290.784 355.564 342.415 390.783 357.334L327.153 290.784Z" fill="#99A18E" fill-opacity="0.12"/>
<path fill-rule="evenodd" clip-rule="evenodd" d="M325.234 287.881C325.895 287.305 326.609 287.14 327.153 287.14V294.431C327.674 294.431 328.37 294.272 329.016 293.708C329.653 293.153 329.965 292.447 330.108 291.926C330.341 291.074 330.223 290.377 330.203 290.255L330.201 290.246C330.168 290.048 330.126 289.903 330.105 289.841C330.107 289.847 330.11 289.853 330.113 289.86C330.186 290.047 330.376 290.465 330.733 291.151C331.424 292.48 332.56 294.47 334.103 296.957C337.183 301.921 341.802 308.729 347.553 316.003C359.125 330.637 374.969 346.755 391.863 353.911L389.703 360.759C371.378 352.997 354.704 335.839 342.914 320.928C336.984 313.43 332.211 306.397 328.995 301.214C327.39 298.628 326.152 296.467 325.344 294.915C324.951 294.16 324.611 293.454 324.384 292.877C324.293 292.644 324.113 292.169 324.022 291.621L324.021 291.617C323.989 291.421 323.859 290.639 324.111 289.719C324.261 289.173 324.583 288.449 325.234 287.881ZM330.093 289.808C330.094 289.808 330.098 289.82 330.105 289.841C330.097 289.818 330.093 289.808 330.093 289.808Z" fill="#99A18E" fill-opacity="0.12"/>
<path fill-rule="evenodd" clip-rule="evenodd" d="M388.089 356.121C387.996 358.735 390.502 386.849 426.271 381.447L388.089 356.121Z" fill="#99A18E" fill-opacity="0.12"/>
<path fill-rule="evenodd" clip-rule="evenodd" d="M386.983 362.659C386.147 359.535 385.959 357.006 385.994 356.019L390.185 356.22C390.173 356.54 390.263 358.506 390.989 361.22C391.702 363.887 392.999 367.152 395.304 370.181C399.82 376.112 408.626 381.659 426 379.036L426.542 383.856C408.146 386.634 397.815 380.825 392.159 373.396C389.379 369.745 387.831 365.829 386.983 362.659Z" fill="#99A18E" fill-opacity="0.12"/>
<path fill-rule="evenodd" clip-rule="evenodd" d="M425.642 307.632C424.144 307.093 407.4 304.035 404.158 332.84L425.642 307.632Z" fill="#99A18E" fill-opacity="0.12"/>
<path fill-rule="evenodd" clip-rule="evenodd" d="M422.088 306.671C423.966 306.581 425.357 306.878 425.803 307.038L425.484 308.228C425.18 308.119 423.916 307.831 422.132 307.916C420.359 308.001 418.102 308.454 415.795 309.791C411.214 312.445 406.296 318.671 404.692 332.922L403.626 332.761C405.264 318.207 410.338 311.559 415.314 308.676C417.786 307.244 420.198 306.762 422.088 306.671Z" fill="#99A18E" fill-opacity="0.12"/>
<path fill-rule="evenodd" clip-rule="evenodd" d="M417.964 302.693C418.579 301.557 424.568 289.334 407.465 281.212L417.964 302.693Z" fill="#99A18E" fill-opacity="0.12"/>
<path fill-rule="evenodd" clip-rule="evenodd" d="M421.159 294.25C421.823 299.212 419.9 303.092 419.508 303.815L416.421 301.573C416.644 301.161 418.022 298.361 417.559 294.897C417.123 291.643 414.947 287.047 406.774 283.166L408.155 279.26C417.086 283.501 420.467 289.077 421.159 294.25Z" fill="#99A18E" fill-opacity="0.12"/>
<path fill-rule="evenodd" clip-rule="evenodd" d="M388.09 356.123C387.996 358.737 393.72 359.842 426.271 381.449L388.09 356.123Z" fill="#99A18E" fill-opacity="0.12"/>
<path fill-rule="evenodd" clip-rule="evenodd" d="M388.264 360.153C387.186 359.309 385.921 358.074 385.994 356.018L390.185 356.219C390.197 355.877 390.081 355.666 390.046 355.613C390.082 355.659 390.228 355.825 390.613 356.127C391.521 356.838 393.114 357.822 395.906 359.503C396.273 359.724 396.658 359.956 397.063 360.199C402.713 363.595 412.09 369.231 427.313 379.336L425.228 383.553C410.08 373.498 400.762 367.898 395.13 364.512C394.725 364.269 394.339 364.037 393.972 363.816C391.275 362.193 389.421 361.06 388.264 360.153ZM390.037 355.6C390.037 355.6 390.041 355.605 390.046 355.613C390.039 355.604 390.037 355.6 390.037 355.6Z" fill="#99A18E" fill-opacity="0.12"/>
<path fill-rule="evenodd" clip-rule="evenodd" d="M425.642 307.632C424.144 307.093 422.483 311.352 404.158 332.84L425.642 307.632Z" fill="#99A18E" fill-opacity="0.12"/>
<path fill-rule="evenodd" clip-rule="evenodd" d="M423.878 307.847C424.541 307.177 425.131 306.79 425.803 307.032L425.484 308.222C425.406 308.194 425.227 308.138 424.584 308.786C423.961 309.416 423.065 310.537 421.609 312.39C421.415 312.637 421.212 312.896 420.999 313.167C418.027 316.957 413.099 323.239 404.542 333.273L403.777 332.397C412.318 322.381 417.235 316.114 420.204 312.329C420.417 312.057 420.62 311.798 420.813 311.552C422.251 309.722 423.196 308.536 423.878 307.847Z" fill="#99A18E" fill-opacity="0.12"/>
<path fill-rule="evenodd" clip-rule="evenodd" d="M417.965 302.693C418.579 301.557 416.274 299.381 406.521 280.184L417.965 302.693Z" fill="#99A18E" fill-opacity="0.12"/>
<path fill-rule="evenodd" clip-rule="evenodd" d="M419.442 300.465C419.745 301.178 420.22 302.499 419.509 303.815L416.421 301.574C416.172 302.035 416.234 302.448 416.258 302.554C416.247 302.519 416.222 302.447 416.173 302.331C415.949 301.803 415.484 300.946 414.6 299.358C414.485 299.151 414.364 298.935 414.237 298.707C412.465 295.529 409.52 290.25 404.951 281.256L408.091 279.114C412.622 288.033 415.535 293.256 417.298 296.417C417.425 296.645 417.546 296.861 417.661 297.068C418.495 298.565 419.102 299.665 419.442 300.465ZM416.266 302.58C416.265 302.58 416.262 302.571 416.258 302.554C416.264 302.572 416.266 302.58 416.266 302.58Z" fill="#99A18E" fill-opacity="0.12"/>
<path fill-rule="evenodd" clip-rule="evenodd" d="M388.089 356.123C387.996 358.737 415.807 341.452 426.271 381.449L388.089 356.123Z" fill="#99A18E" fill-opacity="0.12"/>
<path fill-rule="evenodd" clip-rule="evenodd" d="M386.875 358.228C386.245 357.661 385.966 356.819 385.994 356.019L390.185 356.22C390.208 355.584 389.977 354.866 389.448 354.39C389.057 354.038 388.686 353.989 388.629 353.982L388.627 353.981C388.591 353.976 388.57 353.976 388.57 353.975C388.57 353.972 388.673 353.969 388.94 353.919C389.355 353.841 389.838 353.723 390.449 353.573C390.925 353.457 391.48 353.321 392.14 353.171C394.97 352.526 399.006 351.807 403.441 352.347C407.903 352.891 412.782 354.713 417.241 359.136C421.691 363.55 425.575 370.409 428.278 380.741L424.264 382.151C421.735 372.484 418.219 366.504 414.514 362.828C410.818 359.162 406.788 357.642 403.002 357.181C399.187 356.716 395.634 357.328 392.949 357.94C392.455 358.052 391.956 358.174 391.483 358.289C390.758 358.465 390.096 358.626 389.608 358.717C389.224 358.789 388.667 358.879 388.149 358.81C387.899 358.777 387.371 358.675 386.875 358.228Z" fill="#99A18E" fill-opacity="0.12"/>
<path fill-rule="evenodd" clip-rule="evenodd" d="M425.642 307.632C424.144 307.093 429.209 331.821 404.158 332.84L425.642 307.632Z" fill="#99A18E" fill-opacity="0.12"/>
<path fill-rule="evenodd" clip-rule="evenodd" d="M425.194 307.155C425.379 306.991 425.603 306.962 425.802 307.033L425.483 308.223C425.588 308.261 425.731 308.247 425.846 308.146C425.911 308.088 425.934 308.031 425.933 308.03C425.933 308.03 425.932 308.033 425.93 308.039C425.908 308.102 425.878 308.263 425.851 308.577C425.821 308.932 425.801 309.372 425.778 309.905C425.76 310.298 425.74 310.741 425.713 311.237C425.584 313.518 425.29 316.663 424.235 319.871C423.178 323.086 421.355 326.368 418.178 328.906C415.003 331.442 410.517 333.202 404.177 333.46L404.139 332.215C410.325 331.963 414.6 330.25 417.568 327.88C420.533 325.511 422.235 322.453 423.23 319.427C424.228 316.392 424.513 313.393 424.639 311.156C424.665 310.711 424.684 310.284 424.701 309.892C424.727 309.325 424.749 308.83 424.781 308.453C424.808 308.14 424.847 307.824 424.929 307.584C424.968 307.467 425.044 307.287 425.194 307.155Z" fill="#99A18E" fill-opacity="0.12"/>
<path fill-rule="evenodd" clip-rule="evenodd" d="M417.964 302.693C418.579 301.557 402.412 299.404 406.521 278.522L417.964 302.693Z" fill="#99A18E" fill-opacity="0.12"/>
<path fill-rule="evenodd" clip-rule="evenodd" d="M419.678 301.841C419.891 302.494 419.832 303.223 419.508 303.821L416.421 301.579C416.136 302.106 416.082 302.762 416.271 303.339C416.416 303.781 416.651 304.019 416.705 304.072C416.768 304.134 416.813 304.166 416.813 304.166C416.812 304.166 416.779 304.143 416.694 304.096C416.5 303.988 416.273 303.878 415.972 303.731C415.742 303.619 415.468 303.486 415.132 303.317C413.71 302.6 411.694 301.48 409.775 299.65C407.841 297.806 405.995 295.233 404.937 291.637C403.881 288.043 403.657 283.586 404.745 278.06L408.297 278.998C407.33 283.913 407.587 287.556 408.386 290.275C409.185 292.99 410.572 294.942 412.09 296.389C413.622 297.85 415.276 298.785 416.584 299.445C416.798 299.552 417.025 299.663 417.247 299.772C417.635 299.962 418.008 300.144 418.268 300.288C418.46 300.395 418.796 300.587 419.079 300.869C419.217 301.006 419.508 301.323 419.678 301.841Z" fill="#99A18E" fill-opacity="0.12"/>
<path fill-rule="evenodd" clip-rule="evenodd" d="M100.547 214.486C98.5169 217.149 79.3844 264.967 122.085 279.076L100.547 214.486Z" fill="#99A18E" fill-opacity="0.12"/>
<path fill-rule="evenodd" clip-rule="evenodd" d="M98.5639 214.568C98.8082 214.062 99.0738 213.562 99.3263 213.231L101.767 215.728C101.769 215.725 101.771 215.723 101.771 215.723C101.771 215.723 101.74 215.768 101.675 215.884C101.605 216.01 101.514 216.184 101.406 216.409C101.189 216.858 100.919 217.471 100.616 218.232C100.009 219.753 99.2863 221.823 98.6004 224.29C97.2258 229.234 96.0249 235.684 96.1694 242.436C96.3137 249.175 97.7948 256.152 101.726 262.274C105.651 268.387 112.129 273.819 122.532 277.256L121.639 280.884C110.691 277.267 103.548 271.431 99.1139 264.526C94.6863 257.631 93.071 249.841 92.9145 242.529C92.7583 235.231 94.0523 228.345 95.5014 223.133C96.2275 220.521 96.9985 218.309 97.6601 216.65C97.9906 215.821 98.2982 215.119 98.5639 214.568Z" fill="#99A18E" fill-opacity="0.12"/>
<path fill-rule="evenodd" clip-rule="evenodd" d="M428.956 300.127C430.973 302.804 469.421 330.967 487.011 283.723L428.956 300.127Z" fill="#99A18E" fill-opacity="0.12"/>
<path fill-rule="evenodd" clip-rule="evenodd" d="M428.839 302.32C428.437 301.974 428.052 301.611 427.809 301.289L430.102 298.97C430.099 298.966 430.099 298.966 430.102 298.97C430.112 298.981 430.151 299.026 430.235 299.108C430.336 299.207 430.475 299.335 430.655 299.49C431.014 299.8 431.505 300.191 432.119 300.639C433.346 301.535 435.028 302.636 437.054 303.745C441.114 305.967 446.49 308.186 452.302 308.894C458.104 309.601 464.289 308.799 470.06 305.057C475.822 301.321 481.321 294.556 485.614 283.026L488.408 284.423C483.906 296.516 478.003 303.948 471.546 308.134C465.097 312.316 458.245 313.164 451.984 312.401C445.733 311.639 440.02 309.268 435.754 306.933C433.617 305.764 431.827 304.594 430.496 303.622C429.832 303.137 429.273 302.694 428.839 302.32Z" fill="#99A18E" fill-opacity="0.12"/>
<path fill-rule="evenodd" clip-rule="evenodd" d="M426.304 302.493C425.813 304.743 431.085 342.58 469.037 345.874L426.304 302.493Z" fill="#99A18E" fill-opacity="0.12"/>
<path fill-rule="evenodd" clip-rule="evenodd" d="M424.36 303.448C424.34 303.059 424.321 302.459 424.433 301.943L428.176 303.04C428.2 302.932 428.205 302.865 428.206 302.865C428.207 302.865 428.202 302.956 428.213 303.179C428.23 303.491 428.271 303.941 428.35 304.517C428.507 305.667 428.8 307.243 429.286 309.11C430.257 312.845 431.978 317.672 434.848 322.527C440.546 332.167 450.839 342.05 469.182 343.642L468.894 348.103C449.284 346.401 437.966 335.718 431.663 325.054C428.531 319.757 426.654 314.496 425.589 310.401C425.057 308.353 424.722 306.578 424.537 305.215C424.444 304.536 424.386 303.939 424.36 303.448Z" fill="#99A18E" fill-opacity="0.12"/>
<path fill-rule="evenodd" clip-rule="evenodd" d="M417.453 303.803C419.417 304.255 451.596 297.318 452.473 253.227L417.453 303.803Z" fill="#99A18E" fill-opacity="0.12"/>
<path fill-rule="evenodd" clip-rule="evenodd" d="M418.221 304.562C417.879 304.599 417.551 304.612 417.323 304.56L417.582 303.053C417.581 303.053 417.581 303.053 417.583 303.053C417.591 303.054 417.631 303.059 417.717 303.058C417.812 303.057 417.939 303.049 418.099 303.032C418.417 302.998 418.843 302.929 419.363 302.816C420.401 302.591 421.794 302.194 423.42 301.566C426.673 300.311 430.842 298.142 434.976 294.604C443.222 287.547 451.376 275.005 451.809 253.213L453.135 253.248C452.691 275.547 444.317 288.52 435.764 295.84C431.498 299.491 427.199 301.728 423.839 303.024C422.159 303.672 420.708 304.087 419.607 304.327C419.058 304.446 418.59 304.523 418.221 304.562Z" fill="#99A18E" fill-opacity="0.12"/>
<path fill-rule="evenodd" clip-rule="evenodd" d="M333.829 239.663C334.503 236.196 356.742 190.218 391.622 222.059L333.829 239.663Z" fill="#99A18E" fill-opacity="0.12"/>
<path fill-rule="evenodd" clip-rule="evenodd" d="M335.811 240.164C335.803 240.187 335.802 240.191 335.804 240.178L331.853 239.146C331.947 238.662 332.157 238.081 332.369 237.554C332.604 236.968 332.919 236.258 333.309 235.454C334.09 233.844 335.195 231.809 336.606 229.582C339.42 225.141 343.509 219.85 348.753 215.684C354.008 211.509 360.482 208.421 368 208.542C375.53 208.664 383.879 212.002 392.875 220.215L390.369 223.902C381.925 216.194 374.414 213.34 367.943 213.235C361.46 213.131 355.792 215.783 351.043 219.556C346.283 223.337 342.506 228.201 339.871 232.36C338.557 234.434 337.541 236.31 336.84 237.754C336.49 238.477 336.224 239.079 336.042 239.533C335.894 239.903 335.83 240.101 335.811 240.164Z" fill="#99A18E" fill-opacity="0.12"/>
<path fill-rule="evenodd" clip-rule="evenodd" d="M100.547 214.486C98.5168 217.149 103.735 223.995 122.085 279.076L100.547 214.486Z" fill="#99A18E" fill-opacity="0.12"/>
<path fill-rule="evenodd" clip-rule="evenodd" d="M98.9179 218.501C98.4151 216.577 98.1976 214.718 99.3271 213.235L101.767 215.732C101.769 215.728 101.772 215.721 101.775 215.713C101.776 215.711 101.776 215.71 101.776 215.71C101.776 215.708 101.767 215.74 101.765 215.828C101.758 216.068 101.806 216.535 102.034 217.408C102.491 219.155 103.479 221.863 105.168 226.372C105.391 226.969 105.626 227.595 105.873 228.252C109.318 237.433 115.031 252.66 123.605 278.396L120.567 279.754C112.018 254.091 106.325 238.92 102.886 229.755C102.64 229.097 102.405 228.471 102.181 227.874C100.525 223.453 99.4423 220.508 98.9179 218.501Z" fill="#99A18E" fill-opacity="0.12"/>
<path fill-rule="evenodd" clip-rule="evenodd" d="M428.956 300.13C430.973 302.807 437.505 297.696 487.011 283.726L428.956 300.13Z" fill="#99A18E" fill-opacity="0.12"/>
<path fill-rule="evenodd" clip-rule="evenodd" d="M432.165 302.403C430.456 302.731 428.892 302.728 427.81 301.292L430.102 298.973L430.112 298.986L430.115 298.989C430.115 298.989 430.115 298.989 430.115 298.989M432.165 302.403C433.942 302.061 436.596 301.2 440.595 299.867L432.165 302.403ZM440.595 299.867C441.136 299.687 441.703 299.498 442.298 299.299L440.595 299.867ZM442.298 299.299C450.586 296.532 464.306 291.95 487.371 285.441L442.298 299.299ZM487.371 285.441L486.651 282.015L487.371 285.441ZM486.651 282.015C463.525 288.541 449.759 293.138 441.457 295.91L486.651 282.015ZM441.457 295.91C440.862 296.109 440.295 296.298 439.755 296.478L441.457 295.91ZM439.755 296.478C435.681 297.835 433.229 298.623 431.667 298.924L439.755 296.478ZM431.667 298.924C430.887 299.074 430.468 299.072 430.245 299.029L431.667 298.924ZM430.245 299.029C430.149 299.011 430.116 298.989 430.116 298.989L430.245 299.029ZM430.116 298.989C430.116 298.989 430.115 298.989 430.115 298.989L430.116 298.989Z" fill="#99A18E" fill-opacity="0.12"/>
<path fill-rule="evenodd" clip-rule="evenodd" d="M53.0145 69.2507C53.8097 72.3584 64.3233 71.7785 129.735 86.5151L53.0145 69.2507Z" fill="#99A18E" fill-opacity="0.12"/>
<path fill-rule="evenodd" clip-rule="evenodd" d="M52.8747 72.3721C52.1036 71.885 51.3558 71.1327 51.0487 69.9322L54.9787 68.582C54.9009 68.2779 54.7526 68.1454 54.7533 68.1443C54.7536 68.1439 54.7769 68.1637 54.8366 68.2014C55.0906 68.3618 55.6138 68.5939 56.6345 68.889C58.6536 69.4729 61.9872 70.1353 67.4765 71.1852C68.2062 71.3247 68.9722 71.4708 69.7761 71.6242C80.9893 73.7629 99.5797 77.3086 130.125 84.1903L129.343 88.853C98.8548 81.9843 80.3092 78.4471 69.1088 76.3108C68.3049 76.1575 67.5388 76.0114 66.8089 75.8718C61.394 74.8361 57.8618 74.1397 55.6419 73.4977C54.543 73.1799 53.6035 72.8323 52.8747 72.3721Z" fill="#99A18E" fill-opacity="0.12"/>
<path fill-rule="evenodd" clip-rule="evenodd" d="M426.305 302.484C425.814 304.734 432.468 308.833 468.082 345.625L426.305 302.484Z" fill="#99A18E" fill-opacity="0.12"/>
<path fill-rule="evenodd" clip-rule="evenodd" d="M424.839 304.618C424.481 303.92 424.204 302.992 424.434 301.937L428.176 303.035C428.27 302.606 428.148 302.317 428.149 302.316C428.149 302.316 428.152 302.322 428.158 302.335C428.233 302.48 428.447 302.806 428.976 303.413C430.018 304.609 431.843 306.413 434.897 309.392C435.302 309.787 435.727 310.201 436.173 310.636C442.402 316.705 452.73 326.77 469.367 343.957L466.798 347.296C450.203 330.152 439.907 320.119 433.688 314.058C433.242 313.623 432.816 313.209 432.411 312.814C429.412 309.888 427.44 307.946 426.259 306.591C425.676 305.922 425.173 305.271 424.839 304.618Z" fill="#99A18E" fill-opacity="0.12"/>
<path fill-rule="evenodd" clip-rule="evenodd" d="M417.453 303.805C419.417 304.258 422.606 296.345 452.473 253.229L417.453 303.805Z" fill="#99A18E" fill-opacity="0.12"/>
<path fill-rule="evenodd" clip-rule="evenodd" d="M418.664 304.169C418.244 304.492 417.801 304.668 417.323 304.558L417.582 303.051L417.583 303.051C417.6 303.055 417.687 303.076 417.929 302.89C418.189 302.689 418.546 302.308 419.058 301.644C420.078 300.321 421.575 298.057 423.97 294.39C424.289 293.901 424.624 293.388 424.976 292.85C429.882 285.332 438.014 272.872 451.955 252.747L452.99 253.709C439.06 273.817 430.937 286.263 426.033 293.777C425.682 294.316 425.347 294.829 425.027 295.318C422.647 298.962 421.111 301.287 420.047 302.667C419.518 303.355 419.07 303.855 418.664 304.169Z" fill="#99A18E" fill-opacity="0.12"/>
<path fill-rule="evenodd" clip-rule="evenodd" d="M333.829 239.663C334.503 236.196 342.347 237.088 391.622 222.059L333.829 239.663Z" fill="#99A18E" fill-opacity="0.12"/>
<path fill-rule="evenodd" clip-rule="evenodd" d="M335.726 240.38C335.751 240.343 335.785 240.276 335.804 240.177L331.852 239.146C332.278 236.958 333.904 236.002 335.554 235.343C337.291 234.649 340.013 233.935 344.065 232.903C344.614 232.763 345.19 232.617 345.794 232.464C354.217 230.326 368.157 226.787 391.106 219.788L392.137 224.327C369.107 231.351 355.105 234.906 346.663 237.048C346.059 237.202 345.483 237.348 344.934 237.488C340.781 238.545 338.336 239.197 336.873 239.781C336.105 240.088 335.814 240.3 335.726 240.38ZM335.695 240.416C335.693 240.415 335.701 240.403 335.726 240.38C335.71 240.404 335.697 240.416 335.695 240.416Z" fill="#99A18E" fill-opacity="0.12"/>
<path fill-rule="evenodd" clip-rule="evenodd" d="M100.547 214.486C100.485 262.162 104.845 253.445 122.085 279.076L100.547 214.486Z" fill="#99A18E" fill-opacity="0.12"/>
<path fill-rule="evenodd" clip-rule="evenodd" d="M103.393 255.938C99.9302 248.467 98.8877 238.235 98.9184 214.48L102.174 214.486C102.143 238.407 103.25 247.656 106.262 254.153C107.769 257.405 109.79 260.046 112.63 263.589C112.874 263.893 113.123 264.203 113.378 264.52C116.075 267.874 119.385 271.991 123.369 277.914L120.801 280.234C116.908 274.446 113.685 270.437 110.992 267.087C110.738 266.772 110.489 266.462 110.245 266.157C107.421 262.636 105.124 259.671 103.393 255.938Z" fill="#99A18E" fill-opacity="0.12"/>
<path fill-rule="evenodd" clip-rule="evenodd" d="M428.956 300.13C469.746 306.361 462.85 300.225 487.011 283.726L428.956 300.13Z" fill="#99A18E" fill-opacity="0.12"/>
<path fill-rule="evenodd" clip-rule="evenodd" d="M464.761 302.098C457.949 305.099 449.086 304.982 428.757 301.877L429.155 298.381C449.617 301.506 457.701 301.436 463.679 298.802C466.671 297.484 469.203 295.494 472.601 292.688C472.892 292.448 473.19 292.201 473.494 291.949C476.713 289.284 480.66 286.015 486.239 282.205L487.784 285.243C482.324 288.972 478.474 292.16 475.26 294.822C474.957 295.073 474.659 295.319 474.367 295.56C470.988 298.35 468.164 300.599 464.761 302.098Z" fill="#99A18E" fill-opacity="0.12"/>
<path fill-rule="evenodd" clip-rule="evenodd" d="M53.0145 69.2534C96.6896 95.0976 92.2342 86.8031 129.735 86.5179L53.0145 69.2534Z" fill="#99A18E" fill-opacity="0.12"/>
<path fill-rule="evenodd" clip-rule="evenodd" d="M93.4717 90.0438C84.0129 88.8697 73.8934 84.2732 52.0824 71.3669L53.9466 67.1366C75.8107 80.0743 85.301 84.2525 93.9083 85.3209C98.2279 85.857 102.388 85.6178 107.936 85.2031C108.413 85.1674 108.9 85.1306 109.397 85.0929C114.661 84.6941 121.092 84.2068 129.721 84.1412L129.748 88.891C121.243 88.9557 114.919 89.4347 109.66 89.8331C109.164 89.8707 108.678 89.9075 108.2 89.9432C102.672 90.3563 98.1852 90.6289 93.4717 90.0438Z" fill="#99A18E" fill-opacity="0.12"/>
<path fill-rule="evenodd" clip-rule="evenodd" d="M333.829 239.663C367.139 211.68 363.596 220.88 391.622 222.059L333.829 239.663Z" fill="#99A18E" fill-opacity="0.12"/>
<path fill-rule="evenodd" clip-rule="evenodd" d="M364.975 222.246C358.782 223.205 351.744 227.505 335.017 241.557L332.64 237.757C349.222 223.827 357.068 218.735 364.438 217.594C368.12 217.023 371.586 217.454 375.7 218.042C376.057 218.093 376.42 218.146 376.789 218.199C380.708 218.766 385.384 219.443 391.695 219.708L391.548 224.399C385.054 224.126 380.22 223.426 376.293 222.858C375.922 222.804 375.559 222.752 375.204 222.701C371.059 222.107 368.075 221.766 364.975 222.246Z" fill="#99A18E" fill-opacity="0.12"/>
<path fill-rule="evenodd" clip-rule="evenodd" d="M100.547 214.486C105.519 239.751 127.931 233.768 122.086 279.076L100.547 214.486Z" fill="#99A18E" fill-opacity="0.12"/>
<path fill-rule="evenodd" clip-rule="evenodd" d="M110.277 235.829C105.798 230.663 100.962 225.085 98.959 214.907L102.133 214.068C103.908 223.087 107.891 227.695 112.226 232.712C113.668 234.38 115.149 236.093 116.601 238.029C119.47 241.855 122.028 246.401 123.463 252.961C124.889 259.483 125.177 267.872 123.695 279.357L120.475 278.799C121.916 267.63 121.594 259.776 120.306 253.888C119.027 248.037 116.768 244.004 114.143 240.504C112.945 238.907 111.627 237.387 110.277 235.829Z" fill="#99A18E" fill-opacity="0.12"/>
<path fill-rule="evenodd" clip-rule="evenodd" d="M428.956 300.129C451.218 297.681 448.994 271.155 487.011 283.725L428.956 300.129Z" fill="#99A18E" fill-opacity="0.12"/>
<path fill-rule="evenodd" clip-rule="evenodd" d="M448.397 291.621C443.401 296.096 438.034 300.904 429.099 301.886L428.812 298.376C436.792 297.498 441.28 293.49 446.139 289.151C447.75 287.712 449.401 286.237 451.234 284.828C454.869 282.033 459.074 279.69 464.852 278.892C470.6 278.098 477.801 278.848 487.429 282.031L486.594 285.422C477.214 282.321 470.436 281.672 465.212 282.393C460.02 283.11 456.261 285.194 452.917 287.766C451.385 288.944 449.908 290.267 448.397 291.621Z" fill="#99A18E" fill-opacity="0.12"/>
<path fill-rule="evenodd" clip-rule="evenodd" d="M53.0145 69.2507C80.2214 78.8386 92.9252 57.2049 129.735 86.5151L53.0145 69.2507Z" fill="#99A18E" fill-opacity="0.12"/>
<path fill-rule="evenodd" clip-rule="evenodd" d="M80.26 73.5225C71.9221 74.3984 63.1684 75.318 52.4171 71.5291L53.6098 66.9845C63.5269 70.4794 71.2622 69.6734 79.4373 68.8216C82.1094 68.5431 84.8286 68.2598 87.6862 68.1202C99.3011 67.5526 112.118 69.613 130.894 84.5641L128.573 88.479C110.539 74.1192 98.5999 72.3412 87.8589 72.866C85.3346 72.9894 82.8169 73.2539 80.26 73.5225Z" fill="#99A18E" fill-opacity="0.12"/>
<path fill-rule="evenodd" clip-rule="evenodd" d="M333.829 239.663C354.412 229.534 363.355 254.087 391.622 222.059L333.829 239.663Z" fill="#99A18E" fill-opacity="0.12"/>
<path fill-rule="evenodd" clip-rule="evenodd" d="M353.288 240.407C347.27 239.28 341.854 238.266 334.62 241.826L333.037 237.505C341.445 233.368 348.328 234.673 354.58 235.858C356.443 236.211 358.25 236.554 360.025 236.738C363.966 237.149 368.044 236.911 372.814 234.718C377.623 232.508 383.262 228.252 390.206 220.384L393.038 223.74C385.848 231.886 379.769 236.571 374.308 239.081C368.808 241.609 364.064 241.872 359.662 241.413C357.408 241.179 355.314 240.786 353.288 240.407Z" fill="#99A18E" fill-opacity="0.12"/>
<path fill-rule="evenodd" clip-rule="evenodd" d="M100.547 214.486C98.5171 217.149 147.161 238.354 122.085 279.076L100.547 214.486Z" fill="#99A18E" fill-opacity="0.12"/>
<path fill-rule="evenodd" clip-rule="evenodd" d="M98.945 215.344C98.7796 214.722 98.8183 213.903 99.3262 213.236L101.767 215.734C102.148 215.234 102.159 214.617 102.057 214.234C102.014 214.075 101.96 213.973 101.937 213.936C101.94 213.94 101.943 213.944 101.947 213.949C102.058 214.094 102.336 214.376 102.874 214.828C103.579 215.421 104.515 216.135 105.656 217.004C106.217 217.432 106.828 217.897 107.485 218.404C111.39 221.42 116.622 225.688 121.139 231.21C125.655 236.731 129.553 243.622 130.623 251.899C131.7 260.229 129.874 269.674 123.41 280.171L120.76 277.98C126.834 268.117 128.331 259.64 127.403 252.458C126.468 245.222 123.033 239.01 118.776 233.806C114.521 228.604 109.54 224.526 105.679 221.544C105.082 221.083 104.503 220.641 103.955 220.224C102.769 219.32 101.729 218.527 100.961 217.881C100.412 217.419 99.8784 216.932 99.5119 216.454C99.3384 216.228 99.079 215.848 98.945 215.344ZM101.926 213.92C101.927 213.921 101.931 213.926 101.937 213.936C101.929 213.926 101.926 213.92 101.926 213.92Z" fill="#99A18E" fill-opacity="0.12"/>
<path fill-rule="evenodd" clip-rule="evenodd" d="M428.956 300.128C430.973 302.805 455.403 249.649 487.011 283.724L428.956 300.128Z" fill="#99A18E" fill-opacity="0.12"/>
<path fill-rule="evenodd" clip-rule="evenodd" d="M429.466 301.961C428.942 302.065 428.286 301.922 427.81 301.291L430.102 298.971C429.752 298.507 429.266 298.423 428.954 298.485C428.831 298.509 428.75 298.551 428.72 298.569C428.725 298.566 428.731 298.561 428.739 298.555C428.887 298.438 429.171 298.146 429.628 297.586C430.228 296.85 430.963 295.863 431.855 294.663C432.293 294.074 432.77 293.433 433.287 292.746C436.371 288.65 440.693 283.198 445.992 278.729C451.29 274.262 457.669 270.688 464.861 270.528C472.096 270.368 479.916 273.669 488.048 282.436L485.975 285.018C478.303 276.747 471.217 273.915 464.919 274.054C458.576 274.195 452.796 277.353 447.783 281.58C442.771 285.807 438.632 291.012 435.58 295.065C435.107 295.693 434.653 296.303 434.225 296.878C433.299 298.123 432.489 299.213 431.839 300.009C431.373 300.58 430.894 301.121 430.448 301.472C430.236 301.639 429.893 301.877 429.466 301.961ZM428.706 298.578C428.706 298.578 428.711 298.575 428.72 298.569C428.711 298.576 428.706 298.579 428.706 298.578Z" fill="#99A18E" fill-opacity="0.12"/>
<path fill-rule="evenodd" clip-rule="evenodd" d="M53.0128 69.2538C53.8084 72.3604 113.904 46.7291 130.899 89.3418L53.0128 69.2538ZM53.0128 69.2538C53.8084 72.3604 83.8965 113.759 131.495 86.3397L53.0128 69.2538Z" fill="#99A18E" fill-opacity="0.12"/>
<path fill-rule="evenodd" clip-rule="evenodd" d="M51.772 71.6316C51.5043 71.1781 51.1574 70.5492 51.003 69.9461L49.9885 65.9849L54.193 67.0693C54.523 67.0363 54.974 66.9695 55.5648 66.8615C56.7245 66.6495 58.2011 66.3229 59.9819 65.9289C60.8335 65.7405 61.7547 65.5367 62.7441 65.3227C68.7817 64.0168 77.0239 62.4081 85.809 62.0552C103.221 61.3557 123.735 65.5849 132.803 88.3234L134.582 92.7823L127.759 91.0227C105.439 102.112 87.0033 98.5504 73.8196 91.4487C66.8077 87.6715 61.3096 82.9114 57.5044 78.8856C55.6014 76.8722 54.1088 75.0288 53.0525 73.5635C52.5256 72.8327 52.095 72.179 51.772 71.6316ZM126.865 85.8126C118.139 69.8268 101.646 66.2823 85.9544 66.9127C78.104 67.2281 70.6577 68.5877 64.8435 69.8162L126.865 85.8126ZM120.359 89.1139C101.848 96.3911 86.6647 93.0081 75.5877 87.0412C69.0282 83.5077 63.8802 79.0495 60.3326 75.2962C59.6167 74.5388 58.9681 73.8123 58.3881 73.1306L120.359 89.1139Z" fill="#99A18E" fill-opacity="0.12"/>
<path fill-rule="evenodd" clip-rule="evenodd" d="M426.305 302.488C425.814 304.738 470.775 314.736 467.786 348.169L426.305 302.488Z" fill="#99A18E" fill-opacity="0.12"/>
<path fill-rule="evenodd" clip-rule="evenodd" d="M424.991 304.268C424.787 304.019 424.167 303.165 424.434 301.943L428.176 303.04C428.413 301.959 427.851 301.26 427.787 301.183C427.728 301.11 427.68 301.067 427.661 301.051C427.668 301.057 427.681 301.066 427.699 301.078C427.871 301.195 428.216 301.384 428.796 301.657C429.568 302.021 430.568 302.448 431.782 302.968C432.365 303.217 432.996 303.487 433.676 303.782C437.798 305.568 443.388 308.12 448.92 311.683C459.858 318.729 471.329 330.251 469.706 348.403L465.866 347.942C467.232 332.661 457.717 322.467 447.044 315.593C441.771 312.197 436.4 309.738 432.324 307.972C431.698 307.701 431.095 307.443 430.526 307.199C429.27 306.662 428.174 306.193 427.342 305.801C426.746 305.52 426.178 305.23 425.746 304.937C425.544 304.8 425.248 304.58 424.991 304.268ZM427.653 301.044C427.653 301.044 427.656 301.047 427.661 301.051C427.655 301.047 427.652 301.044 427.653 301.044Z" fill="#99A18E" fill-opacity="0.12"/>
<path fill-rule="evenodd" clip-rule="evenodd" d="M417.453 303.804C419.417 304.257 423.504 251.499 452.473 253.229L417.453 303.804Z" fill="#99A18E" fill-opacity="0.12"/>
<path fill-rule="evenodd" clip-rule="evenodd" d="M418.14 304.207C418.024 304.358 417.739 304.656 417.324 304.561L417.582 303.053C417.446 303.022 417.327 303.057 417.249 303.103C417.182 303.142 417.149 303.185 417.148 303.187L417.148 303.187C417.147 303.187 417.147 303.187 417.147 303.187C417.147 303.187 417.157 303.173 417.176 303.137C417.196 303.098 417.221 303.044 417.25 302.971C417.373 302.665 417.52 302.17 417.697 301.475C417.936 300.542 418.208 299.331 418.532 297.89C418.688 297.197 418.856 296.45 419.039 295.655C420.153 290.79 421.763 284.245 424.229 277.731C429.14 264.755 437.579 251.572 452.507 252.464L452.438 253.998C438.398 253.16 430.309 265.492 425.443 278.349C423.02 284.751 421.43 291.203 420.32 296.049C420.144 296.821 419.978 297.556 419.823 298.244C419.495 299.703 419.213 300.953 418.969 301.911C418.79 302.612 418.62 303.202 418.453 303.618C418.372 303.821 418.27 304.036 418.14 304.207Z" fill="#99A18E" fill-opacity="0.12"/>
<path fill-rule="evenodd" clip-rule="evenodd" d="M333.829 239.66C334.503 236.193 377.826 269.459 391.622 222.056L333.829 239.66Z" fill="#99A18E" fill-opacity="0.12"/>
<path fill-rule="evenodd" clip-rule="evenodd" d="M334.665 241.66C335.098 241.49 335.642 241.011 335.804 240.175L331.853 239.143C332.057 238.091 332.726 237.466 333.364 237.216C333.875 237.015 334.36 237.043 334.64 237.076C335.236 237.145 335.925 237.376 336.571 237.622C337.481 237.968 338.659 238.487 339.992 239.074C340.603 239.343 341.246 239.626 341.911 239.913C346.252 241.791 351.987 244.065 358.073 245.007C364.16 245.95 370.426 245.533 375.936 242.232C381.395 238.962 386.387 232.697 389.703 221.305L393.541 222.805C389.958 235.115 384.362 242.468 377.796 246.401C371.282 250.304 364.088 250.674 357.536 249.66C350.982 248.644 344.897 246.214 340.495 244.311C339.747 243.987 339.06 243.685 338.43 243.407C337.161 242.848 336.127 242.393 335.308 242.081C334.685 241.845 334.361 241.762 334.239 241.746C334.294 241.748 334.455 241.743 334.665 241.66ZM334.235 241.746C334.236 241.746 334.237 241.746 334.239 241.746L334.235 241.746Z" fill="#99A18E" fill-opacity="0.12"/>
<path fill-rule="evenodd" clip-rule="evenodd" d="M218.656 302.341C217.816 306.593 214.535 353.57 274.597 357.339L218.656 302.341Z" fill="#99A18E" fill-opacity="0.12"/>
<path fill-rule="evenodd" clip-rule="evenodd" d="M222.019 331.251C215.105 317.863 216.136 304.397 216.646 301.811L220.666 302.877C220.337 304.544 219.306 316.692 225.558 328.797C231.706 340.702 245.184 353.103 274.709 354.956L274.486 359.727C243.949 357.811 229.037 344.84 222.019 331.251Z" fill="#99A18E" fill-opacity="0.12"/>
<path fill-rule="evenodd" clip-rule="evenodd" d="M218.656 302.341C217.816 306.593 226.91 310.426 274.597 357.339L218.656 302.341Z" fill="#99A18E" fill-opacity="0.12"/>
<path fill-rule="evenodd" clip-rule="evenodd" d="M218.889 307.836C217.371 306.102 216.171 304.219 216.646 301.812L220.666 302.877C220.666 302.872 220.668 302.851 220.665 302.825C220.664 302.819 220.664 302.815 220.664 302.815C220.663 302.814 220.67 302.851 220.706 302.933C220.815 303.186 221.098 303.65 221.784 304.434C223.158 306.003 225.592 308.248 229.698 311.963C230.242 312.455 230.813 312.97 231.412 313.512C239.778 321.069 253.651 333.602 275.932 355.521L273.264 359.164C251.047 337.309 237.225 324.822 228.875 317.279C228.276 316.737 227.705 316.221 227.161 315.729C223.137 312.09 220.474 309.647 218.889 307.836Z" fill="#99A18E" fill-opacity="0.12"/>
<path fill-rule="evenodd" clip-rule="evenodd" d="M228.801 314.177C246.622 313.806 252.619 312.527 256.155 312.526L228.801 314.177Z" fill="#99A18E" fill-opacity="0.12"/>
<path fill-rule="evenodd" clip-rule="evenodd" d="M247.99 315.599C243.784 315.968 237.79 316.383 228.838 316.57L228.764 311.792C237.633 311.607 243.547 311.197 247.679 310.834C248.975 310.72 250.119 310.608 251.138 310.508C253.292 310.297 254.885 310.141 256.155 310.14L256.155 314.919C255.062 314.919 253.74 315.049 251.743 315.245C250.698 315.348 249.469 315.469 247.99 315.599Z" fill="#99A18E" fill-opacity="0.12"/>
<path fill-rule="evenodd" clip-rule="evenodd" d="M241.466 324.893C256.702 324.521 261.83 323.242 264.853 323.241L241.466 324.893Z" fill="#99A18E" fill-opacity="0.12"/>
<path fill-rule="evenodd" clip-rule="evenodd" d="M257.92 326.295C254.312 326.666 249.175 327.082 241.509 327.27L241.422 322.519C248.992 322.335 254.037 321.925 257.558 321.563C258.64 321.452 259.605 321.341 260.471 321.242C262.335 321.028 263.739 320.867 264.852 320.867L264.853 325.618C263.945 325.618 262.854 325.744 261.174 325.937C260.278 326.04 259.214 326.162 257.92 326.295Z" fill="#99A18E" fill-opacity="0.12"/>
<path fill-rule="evenodd" clip-rule="evenodd" d="M253.723 337.256C264.741 336.885 268.45 335.606 270.636 335.605L253.723 337.256Z" fill="#99A18E" fill-opacity="0.12"/>
<path fill-rule="evenodd" clip-rule="evenodd" d="M265.743 338.671C263.105 339.046 259.359 339.465 253.783 339.653L253.663 334.863C259.104 334.679 262.722 334.273 265.24 333.915C266.083 333.795 266.786 333.683 267.415 333.583C267.744 333.531 268.053 333.482 268.351 333.437C269.177 333.311 269.939 333.211 270.635 333.21L270.636 338.002C270.239 338.002 269.718 338.062 268.889 338.188C268.631 338.227 268.342 338.273 268.025 338.323C267.378 338.426 266.611 338.548 265.743 338.671Z" fill="#99A18E" fill-opacity="0.12"/>
<path fill-rule="evenodd" clip-rule="evenodd" d="M218.656 302.341C217.816 306.593 267.954 288.069 274.597 357.339L218.656 302.341Z" fill="#99A18E" fill-opacity="0.12"/>
<path fill-rule="evenodd" clip-rule="evenodd" d="M217.182 304.265C216.632 303.548 216.483 302.631 216.645 301.809L220.665 302.875C220.775 302.319 220.673 301.622 220.264 301.089C220.103 300.881 219.945 300.763 219.851 300.704C219.757 300.644 219.691 300.62 219.677 300.615C219.659 300.609 219.716 300.63 219.899 300.652C220.071 300.673 220.299 300.688 220.594 300.696C221.319 300.716 222.2 300.691 223.283 300.661C224.097 300.638 225.025 300.612 226.086 300.599C230.845 300.542 237.483 300.788 244.407 303.169C251.357 305.559 258.608 310.104 264.54 318.621C270.464 327.126 274.953 339.419 276.646 357.076L272.548 357.604C270.92 340.626 266.65 329.259 261.331 321.622C256.02 313.996 249.543 309.919 243.234 307.75C236.897 305.571 230.743 305.322 226.129 305.377C225.235 305.388 224.362 305.412 223.551 305.434C222.355 305.466 221.293 305.495 220.497 305.473C219.846 305.456 219.09 305.405 218.467 305.183C218.164 305.075 217.622 304.837 217.182 304.265Z" fill="#99A18E" fill-opacity="0.12"/>
<path fill-rule="evenodd" clip-rule="evenodd" d="M158.104 216.288C156.698 216.288 189.895 284.81 221.734 304.873L158.104 216.288Z" fill="#99A18E" fill-opacity="0.12"/>
<path fill-rule="evenodd" clip-rule="evenodd" d="M155.791 213.792C156.459 212.974 157.33 212.639 158.104 212.639V219.93C158.856 219.93 159.709 219.603 160.363 218.801C160.929 218.108 161.1 217.357 161.158 216.99C161.261 216.334 161.169 215.829 161.158 215.769L161.157 215.765C161.137 215.648 161.117 215.578 161.117 215.577C161.117 215.576 161.128 215.618 161.161 215.713C161.281 216.065 161.53 216.694 161.935 217.622C162.731 219.444 164.002 222.129 165.689 225.459C169.057 232.11 174.019 241.21 180.012 250.934C192.099 270.545 208.004 292.067 223.237 301.666L220.231 308.072C203.625 297.608 187.012 274.837 174.892 255.172C168.782 245.258 163.718 235.974 160.262 229.149C158.537 225.742 157.196 222.917 156.321 220.914C155.891 219.929 155.54 219.066 155.313 218.404C155.213 218.114 155.069 217.667 154.988 217.198L154.987 217.193C154.958 217.027 154.852 216.415 154.968 215.678C155.032 215.278 155.212 214.502 155.791 213.792Z" fill="#99A18E" fill-opacity="0.12"/>
<path fill-rule="evenodd" clip-rule="evenodd" d="M158.104 216.288C156.698 216.288 189.895 284.81 221.734 304.873L158.104 216.288Z" fill="#99A18E" fill-opacity="0.12"/>
<path fill-rule="evenodd" clip-rule="evenodd" d="M155.791 213.792C156.459 212.974 157.33 212.639 158.104 212.639V219.93C158.856 219.93 159.709 219.603 160.363 218.801C160.929 218.108 161.1 217.357 161.158 216.99C161.261 216.334 161.169 215.829 161.158 215.769L161.157 215.765C161.137 215.648 161.117 215.578 161.117 215.577C161.117 215.576 161.128 215.618 161.161 215.713C161.281 216.065 161.53 216.694 161.935 217.622C162.731 219.444 164.002 222.129 165.689 225.459C169.057 232.11 174.019 241.21 180.012 250.934C192.099 270.545 208.004 292.067 223.237 301.666L220.231 308.072C203.625 297.608 187.012 274.837 174.892 255.172C168.782 245.258 163.718 235.974 160.262 229.149C158.537 225.742 157.196 222.917 156.321 220.914C155.891 219.929 155.54 219.066 155.313 218.404C155.213 218.114 155.069 217.667 154.988 217.198L154.987 217.193C154.958 217.027 154.852 216.415 154.968 215.678C155.032 215.278 155.212 214.502 155.791 213.792Z" fill="#99A18E" fill-opacity="0.12"/>
<path fill-rule="evenodd" clip-rule="evenodd" d="M67.9456 135.932C66.5394 135.932 83.689 176.108 99.783 216.284L67.9456 135.932Z" fill="#99A18E" fill-opacity="0.12"/>
<path fill-rule="evenodd" clip-rule="evenodd" d="M65.4043 133.727C66.0314 132.787 66.98 132.282 67.9457 132.282V139.573C68.8674 139.573 69.7812 139.088 70.3823 138.187C70.8615 137.468 70.9616 136.755 70.9896 136.494C71.0234 136.18 71.0082 135.945 71.0012 135.856C70.9929 135.75 70.9816 135.685 70.9801 135.676C70.9796 135.673 70.9796 135.673 70.9802 135.676C70.9828 135.689 70.9962 135.753 71.031 135.885C71.0715 136.038 71.1299 136.24 71.2099 136.497C71.5376 137.552 72.119 139.184 72.9454 141.37C74.5877 145.713 77.0856 151.95 80.148 159.485C82.1805 164.485 84.4587 170.051 86.8907 175.992C91.7685 187.908 97.2647 201.335 102.637 214.746L96.9295 217.815C91.5675 204.43 86.0949 191.061 81.2238 179.161C78.7876 173.21 76.5019 167.626 74.4557 162.591C71.3947 155.06 68.863 148.741 67.1823 144.296C66.3472 142.088 65.6937 140.267 65.2899 138.968C65.0985 138.352 64.9101 137.687 64.8093 137.101C64.7705 136.876 64.6719 136.281 64.7457 135.594C64.782 135.256 64.8991 134.484 65.4043 133.727Z" fill="#99A18E" fill-opacity="0.12"/>
<path fill-rule="evenodd" clip-rule="evenodd" d="M211.874 186.558C211.347 185.457 204.235 174.625 190.696 187.236L211.874 186.558Z" fill="#99A18E" fill-opacity="0.12"/>
<path fill-rule="evenodd" clip-rule="evenodd" d="M206.695 179.769C210.766 181.23 213.006 184.64 213.441 185.548L210.309 187.561C210.31 187.564 210.309 187.562 210.305 187.555C210.285 187.52 210.189 187.351 209.994 187.079C209.776 186.777 209.465 186.39 209.063 185.978C208.256 185.154 207.111 184.263 205.635 183.733C202.801 182.716 198.245 182.863 191.819 188.849L189.575 185.614C196.687 178.99 202.456 178.248 206.695 179.769Z" fill="#99A18E" fill-opacity="0.12"/>
<path fill-rule="evenodd" clip-rule="evenodd" d="M207.904 173.688C208.682 173.461 216.688 169.635 211.491 156.069L207.904 173.688Z" fill="#99A18E" fill-opacity="0.12"/>
<path fill-rule="evenodd" clip-rule="evenodd" d="M209.854 173.322C209.031 173.958 208.323 174.278 208.049 174.358L207.758 173.018C207.873 172.984 208.457 172.741 209.192 172.172C209.917 171.611 210.762 170.754 211.432 169.514C212.752 167.074 213.485 162.977 210.946 156.349L212.036 155.789C214.694 162.727 214.022 167.326 212.443 170.247C211.664 171.688 210.686 172.677 209.854 173.322Z" fill="#99A18E" fill-opacity="0.12"/>
<path fill-rule="evenodd" clip-rule="evenodd" d="M173.397 127.514C174.904 128.763 193.776 137.363 206.651 106.469L173.397 127.514Z" fill="#99A18E" fill-opacity="0.12"/>
<path fill-rule="evenodd" clip-rule="evenodd" d="M174.332 129.477C173.622 129.172 173.045 128.852 172.729 128.59L174.065 126.425L174.065 126.425C174.065 126.425 174.071 126.43 174.085 126.44C174.1 126.451 174.121 126.465 174.149 126.483C174.204 126.519 174.278 126.563 174.373 126.616C174.562 126.72 174.815 126.846 175.13 126.981C175.759 127.251 176.611 127.55 177.641 127.785C179.702 128.257 182.447 128.471 185.53 127.736C191.634 126.278 199.306 121.029 205.617 105.884L207.685 107.041C201.122 122.791 192.921 128.689 185.993 130.343C182.56 131.162 179.501 130.924 177.196 130.397C176.044 130.133 175.074 129.796 174.332 129.477Z" fill="#99A18E" fill-opacity="0.12"/>
<path fill-rule="evenodd" clip-rule="evenodd" d="M211.874 186.559C211.347 185.458 208.754 186.665 190.696 187.236L211.874 186.559Z" fill="#99A18E" fill-opacity="0.12"/>
<path fill-rule="evenodd" clip-rule="evenodd" d="M210.967 184.044C211.613 184.08 212.807 184.227 213.441 185.55L210.309 187.563C210.539 188.045 210.888 188.181 210.983 188.209C210.953 188.203 210.894 188.196 210.798 188.19C210.327 188.165 209.513 188.217 207.982 188.339C207.784 188.354 207.576 188.371 207.357 188.388C204.296 188.634 199.209 189.041 190.746 189.309L190.648 185.16C199.037 184.894 204.068 184.492 207.112 184.248C207.331 184.23 207.539 184.214 207.737 184.198C209.177 184.084 210.239 184.005 210.967 184.044ZM211.008 188.214C211.008 188.215 210.999 188.213 210.983 188.209C211.001 188.212 211.009 188.214 211.008 188.214Z" fill="#99A18E" fill-opacity="0.12"/>
<path fill-rule="evenodd" clip-rule="evenodd" d="M207.904 173.688C208.681 173.461 208.428 171.091 211.491 156.069L207.904 173.688Z" fill="#99A18E" fill-opacity="0.12"/>
<path fill-rule="evenodd" clip-rule="evenodd" d="M208.93 173.16C208.791 173.666 208.577 174.204 208.049 174.358L207.758 173.018C207.714 173.031 207.688 173.055 207.678 173.067C207.692 173.043 207.734 172.959 207.793 172.743C207.913 172.302 208.043 171.562 208.255 170.295C208.282 170.128 208.312 169.952 208.342 169.768C208.77 167.197 209.479 162.931 210.91 155.91L212.071 156.227C210.645 163.221 209.939 167.465 209.513 170.03C209.482 170.214 209.453 170.39 209.425 170.558C209.22 171.79 209.076 172.624 208.93 173.16ZM207.672 173.075C207.672 173.075 207.674 173.072 207.678 173.067C207.674 173.073 207.672 173.076 207.672 173.075Z" fill="#99A18E" fill-opacity="0.12"/>
<path fill-rule="evenodd" clip-rule="evenodd" d="M173.397 127.506C174.905 128.755 178.132 124.697 205.569 108.502L173.397 127.506Z" fill="#99A18E" fill-opacity="0.12"/>
<path fill-rule="evenodd" clip-rule="evenodd" d="M175.645 128.57C174.675 129.041 173.645 129.349 172.729 128.59L174.065 126.425C174.039 126.403 174.015 126.392 173.998 126.386C174.069 126.384 174.281 126.346 174.758 126.115C175.625 125.694 176.959 124.845 179.197 123.387C179.493 123.194 179.803 122.991 180.129 122.779C184.679 119.81 192.226 114.885 205.048 107.317L206.09 109.689C193.31 117.232 185.795 122.136 181.255 125.099C180.929 125.311 180.618 125.514 180.322 125.707C178.136 127.131 176.665 128.075 175.645 128.57ZM173.969 126.383C173.97 126.382 173.981 126.381 173.998 126.386C173.976 126.387 173.968 126.385 173.969 126.383Z" fill="#99A18E" fill-opacity="0.12"/>
<path fill-rule="evenodd" clip-rule="evenodd" d="M179.962 124.42C183.198 114.972 183.835 111.573 184.506 109.711L179.962 124.42Z" fill="#99A18E" fill-opacity="0.12"/>
<path fill-rule="evenodd" clip-rule="evenodd" d="M184.286 114.635C183.632 116.922 182.656 120.158 181.029 124.907L178.894 123.926C180.504 119.226 181.464 116.038 182.105 113.798C182.305 113.099 182.478 112.478 182.632 111.923C182.959 110.746 183.203 109.869 183.446 109.194L185.565 110.22C185.36 110.789 185.163 111.5 184.863 112.581C184.705 113.151 184.518 113.825 184.286 114.635Z" fill="#99A18E" fill-opacity="0.12"/>
<path fill-rule="evenodd" clip-rule="evenodd" d="M186.564 119.787C189.31 111.698 189.781 108.756 190.355 107.165L186.564 119.787Z" fill="#99A18E" fill-opacity="0.12"/>
<path fill-rule="evenodd" clip-rule="evenodd" d="M190.313 111.419C189.774 113.39 188.961 116.175 187.579 120.247L185.549 119.322C186.912 115.305 187.708 112.574 188.234 110.654C188.394 110.068 188.534 109.541 188.659 109.067C188.93 108.042 189.135 107.265 189.348 106.675L191.361 107.649C191.19 108.123 191.034 108.714 190.793 109.63C190.663 110.122 190.508 110.707 190.313 111.419Z" fill="#99A18E" fill-opacity="0.12"/>
<path fill-rule="evenodd" clip-rule="evenodd" d="M193.735 115.685C195.68 109.815 195.882 107.62 196.297 106.469L193.735 115.685Z" fill="#99A18E" fill-opacity="0.12"/>
<path fill-rule="evenodd" clip-rule="evenodd" d="M196.568 109.621C196.214 111.08 195.668 113.131 194.683 116.102L192.786 115.257C193.747 112.358 194.274 110.377 194.611 108.984C194.724 108.518 194.814 108.127 194.894 107.777C194.936 107.594 194.975 107.422 195.014 107.256C195.122 106.797 195.227 106.377 195.359 106.01L197.234 106.918C197.159 107.128 197.083 107.413 196.976 107.873C196.942 108.017 196.905 108.178 196.864 108.355C196.782 108.715 196.684 109.141 196.568 109.621Z" fill="#99A18E" fill-opacity="0.12"/>
<path fill-rule="evenodd" clip-rule="evenodd" d="M211.874 186.557C211.347 185.455 203.651 200.64 190.696 187.234L211.874 186.557Z" fill="#99A18E" fill-opacity="0.12"/>
<path fill-rule="evenodd" clip-rule="evenodd" d="M212.005 184.439C212.658 184.525 213.167 184.98 213.441 185.552L210.309 187.565C210.549 188.067 211.011 188.486 211.603 188.563C212.052 188.622 212.372 188.454 212.444 188.415C212.538 188.364 212.594 188.318 212.594 188.318C212.594 188.318 212.567 188.34 212.509 188.398C212.365 188.541 212.213 188.706 212.011 188.927C211.843 189.111 211.639 189.334 211.374 189.615C210.33 190.724 208.758 192.263 206.713 193.386C204.646 194.522 202.086 195.237 199.111 194.679C196.146 194.123 192.933 192.333 189.504 188.783L191.89 185.688C194.937 188.842 197.545 190.181 199.683 190.582C201.811 190.982 203.637 190.483 205.179 189.636C206.743 188.777 208.004 187.564 208.955 186.554C209.113 186.387 209.283 186.203 209.45 186.021C209.723 185.723 209.989 185.434 210.181 185.244C210.323 185.103 210.604 184.828 210.94 184.648C211.101 184.562 211.496 184.373 212.005 184.439Z" fill="#99A18E" fill-opacity="0.12"/>
<path fill-rule="evenodd" clip-rule="evenodd" d="M207.904 173.688C208.681 173.461 200.796 164.234 211.491 156.069L207.904 173.688Z" fill="#99A18E" fill-opacity="0.12"/>
<path fill-rule="evenodd" clip-rule="evenodd" d="M208.508 173.892C208.423 174.142 208.245 174.301 208.049 174.358L207.758 173.018C207.612 173.061 207.465 173.188 207.397 173.389C207.348 173.535 207.366 173.649 207.368 173.661C207.368 173.661 207.368 173.662 207.368 173.662C207.368 173.666 207.369 173.667 207.368 173.668C207.368 173.668 207.356 173.621 207.305 173.5C207.24 173.342 207.153 173.157 207.046 172.927C206.963 172.75 206.868 172.547 206.76 172.308C206.288 171.262 205.677 169.76 205.392 167.982C205.106 166.194 205.148 164.121 205.984 161.953C206.817 159.789 208.418 157.588 211.163 155.492L211.819 156.646C209.217 158.633 207.793 160.647 207.072 162.517C206.354 164.382 206.314 166.162 206.565 167.73C206.817 169.306 207.364 170.664 207.817 171.667C207.902 171.856 207.989 172.043 208.071 172.219C208.194 172.483 208.305 172.721 208.38 172.901C208.44 173.046 208.514 173.237 208.542 173.423C208.556 173.513 208.574 173.694 208.508 173.892Z" fill="#99A18E" fill-opacity="0.12"/>
<path fill-rule="evenodd" clip-rule="evenodd" d="M173.396 127.512C174.904 128.761 176.187 98.3251 204.597 107.975L173.396 127.512Z" fill="#99A18E" fill-opacity="0.12"/>
<path fill-rule="evenodd" clip-rule="evenodd" d="M173.942 128.782C173.495 128.976 173.05 128.858 172.729 128.592L174.065 126.427C173.839 126.239 173.487 126.136 173.135 126.29C172.998 126.349 172.906 126.43 172.855 126.481C172.804 126.532 172.776 126.574 172.768 126.587C172.767 126.589 172.767 126.587 172.77 126.582C172.781 126.557 172.837 126.439 172.936 126.147C173.064 125.767 173.2 125.304 173.367 124.734C173.499 124.286 173.649 123.772 173.831 123.18C174.621 120.609 175.857 117.074 177.992 113.79C180.137 110.49 183.197 107.433 187.611 105.858C192.018 104.286 197.661 104.23 204.921 106.696L204.275 109.25C197.33 106.891 192.159 107.02 188.287 108.402C184.424 109.78 181.742 112.445 179.826 115.391C177.901 118.354 176.758 121.59 175.995 124.073C175.845 124.56 175.704 125.042 175.572 125.491C175.384 126.13 175.216 126.701 175.075 127.118C174.958 127.462 174.805 127.878 174.6 128.192C174.502 128.342 174.292 128.629 173.942 128.782Z" fill="#99A18E" fill-opacity="0.12"/>
<path fill-rule="evenodd" clip-rule="evenodd" d="M216.634 184.647C216.536 187.107 224.12 222.556 252.466 208.691L216.634 184.647Z" fill="#99A18E" fill-opacity="0.12"/>
<path fill-rule="evenodd" clip-rule="evenodd" d="M214.641 185.877C214.582 185.477 214.521 184.969 214.539 184.532L218.729 184.757C218.73 184.717 218.73 184.695 218.731 184.695C218.732 184.694 218.738 184.804 218.776 185.067C218.823 185.385 218.901 185.823 219.018 186.365C219.25 187.447 219.624 188.886 220.164 190.52C221.248 193.804 222.968 197.77 225.485 201.219C227.993 204.656 231.245 207.518 235.422 208.774C239.587 210.027 244.9 209.751 251.651 206.449L253.282 210.927C245.859 214.558 239.595 215.051 234.368 213.479C229.154 211.911 225.201 208.357 222.282 204.357C219.372 200.37 217.442 195.879 216.246 192.257C215.646 190.44 215.222 188.814 214.948 187.541C214.811 186.905 214.709 186.343 214.641 185.877Z" fill="#99A18E" fill-opacity="0.12"/>
<path fill-rule="evenodd" clip-rule="evenodd" d="M214.331 184.356C213.154 185.208 199.759 206.415 217.385 229.147L214.331 184.356Z" fill="#99A18E" fill-opacity="0.12"/>
<path fill-rule="evenodd" clip-rule="evenodd" d="M213.329 184.085C213.486 183.88 213.681 183.644 213.872 183.506L214.789 185.206C214.799 185.198 214.805 185.194 214.805 185.195C214.806 185.196 214.749 185.251 214.625 185.413C214.489 185.592 214.31 185.849 214.1 186.183C213.68 186.851 213.15 187.799 212.594 188.993C211.483 191.381 210.285 194.722 209.658 198.726C208.41 206.691 209.406 217.357 218.028 228.477L216.741 229.817C207.738 218.205 206.618 206.902 207.956 198.367C208.621 194.121 209.891 190.58 211.071 188.042C211.662 186.772 212.234 185.746 212.702 185.002C212.936 184.63 213.149 184.322 213.329 184.085Z" fill="#99A18E" fill-opacity="0.12"/>
<path fill-rule="evenodd" clip-rule="evenodd" d="M206.42 176.831C207.216 178.149 226.185 192.554 244.865 170.982L206.42 176.831Z" fill="#99A18E" fill-opacity="0.12"/>
<path fill-rule="evenodd" clip-rule="evenodd" d="M205.633 178.892C205.45 178.723 205.133 178.421 204.913 178.058L207.928 175.613C207.86 175.501 207.807 175.441 207.807 175.441C207.807 175.441 207.84 175.478 207.924 175.556C208.056 175.677 208.261 175.85 208.541 176.062C209.099 176.484 209.905 177.024 210.925 177.584C212.965 178.705 215.808 179.878 219.171 180.38C225.822 181.371 234.656 179.766 243.566 169.476L246.164 172.496C236.395 183.778 226.405 185.756 218.702 184.608C214.888 184.04 211.672 182.713 209.348 181.437C208.186 180.799 207.233 180.165 206.529 179.632C206.178 179.366 205.875 179.116 205.633 178.892Z" fill="#99A18E" fill-opacity="0.12"/>
<path fill-rule="evenodd" clip-rule="evenodd" d="M216.634 184.642C216.536 187.102 221.918 188.173 252.466 208.686L216.634 184.642Z" fill="#99A18E" fill-opacity="0.12"/>
<path fill-rule="evenodd" clip-rule="evenodd" d="M216.712 188.564C215.699 187.761 214.458 186.551 214.539 184.535L218.729 184.76C218.744 184.376 218.608 184.144 218.572 184.09C218.605 184.131 218.738 184.281 219.079 184.551C219.923 185.219 221.411 186.15 224.034 187.749C224.378 187.958 224.74 188.178 225.12 188.409C230.424 191.637 239.228 196.993 253.518 206.589L251.415 210.794C237.2 201.249 228.455 195.928 223.168 192.712C222.788 192.481 222.426 192.26 222.082 192.05C219.553 190.51 217.804 189.429 216.712 188.564ZM218.563 184.078C218.564 184.078 218.567 184.082 218.572 184.09C218.566 184.082 218.563 184.078 218.563 184.078Z" fill="#99A18E" fill-opacity="0.12"/>
<path fill-rule="evenodd" clip-rule="evenodd" d="M214.331 184.356C213.154 185.208 214.788 190.955 217.385 229.147L214.331 184.356Z" fill="#99A18E" fill-opacity="0.12"/>
<path fill-rule="evenodd" clip-rule="evenodd" d="M213.175 184.727C213.269 184.262 213.464 183.797 213.873 183.501L214.789 185.201C214.859 185.15 214.882 185.094 214.882 185.094C214.882 185.094 214.873 185.117 214.86 185.181C214.823 185.365 214.798 185.704 214.811 186.312C214.838 187.517 215.008 189.46 215.303 192.637C215.342 193.059 215.383 193.502 215.427 193.967C216.032 200.462 217.035 211.229 218.247 229.063L216.522 229.221C215.312 211.415 214.311 200.67 213.707 194.181C213.663 193.716 213.622 193.273 213.583 192.851C213.292 189.711 213.111 187.67 213.082 186.364C213.067 185.717 213.087 185.169 213.175 184.727Z" fill="#99A18E" fill-opacity="0.12"/>
<path fill-rule="evenodd" clip-rule="evenodd" d="M206.42 176.834C207.216 178.151 212.085 175.963 244.865 170.985L206.42 176.834Z" fill="#99A18E" fill-opacity="0.12"/>
<path fill-rule="evenodd" clip-rule="evenodd" d="M206.634 179.259C206.079 179.145 205.39 178.84 204.914 178.052L207.928 175.607C207.651 175.149 207.288 175.063 207.28 175.062C207.279 175.061 207.293 175.064 207.326 175.067C207.359 175.07 207.406 175.073 207.469 175.074C207.599 175.075 207.774 175.067 208.011 175.046C208.999 174.957 210.618 174.669 213.358 174.161C213.72 174.094 214.1 174.023 214.498 173.949C220.067 172.912 229.306 171.193 244.626 168.866L245.105 173.094C229.836 175.413 220.638 177.125 215.08 178.159C214.682 178.233 214.302 178.304 213.94 178.371C211.266 178.867 209.47 179.191 208.297 179.297C207.721 179.349 207.146 179.365 206.634 179.259Z" fill="#99A18E" fill-opacity="0.12"/>
<path fill-rule="evenodd" clip-rule="evenodd" d="M216.634 184.642C234.464 210.419 233.553 203.519 252.466 208.686L216.634 184.642Z" fill="#99A18E" fill-opacity="0.12"/>
<path fill-rule="evenodd" clip-rule="evenodd" d="M233.326 206.634C228.395 204.213 223.855 198.971 214.998 186.166L218.271 183.126C227.243 196.098 231.163 200.294 234.962 202.159C236.865 203.093 238.83 203.488 241.699 203.973C241.944 204.015 242.195 204.057 242.451 204.1C245.167 204.554 248.534 205.118 252.948 206.324L251.985 211.055C247.757 209.9 244.552 209.363 241.845 208.909C241.59 208.866 241.34 208.824 241.093 208.783C238.256 208.303 235.788 207.843 233.326 206.634Z" fill="#99A18E" fill-opacity="0.12"/>
<path fill-rule="evenodd" clip-rule="evenodd" d="M216.634 184.642C228.785 195.785 238.646 181.278 252.466 208.686L216.634 184.642Z" fill="#99A18E" fill-opacity="0.12"/>
<path fill-rule="evenodd" clip-rule="evenodd" d="M229.929 192.417C225.54 191.881 220.471 191.261 215.332 186.55L217.935 182.738C222.038 186.5 225.573 186.944 229.714 187.464C231.152 187.644 232.663 187.834 234.296 188.175C237.388 188.82 240.625 190.042 244.008 192.994C247.356 195.915 250.732 200.432 254.277 207.461L250.656 209.913C247.29 203.239 244.252 199.291 241.484 196.876C238.751 194.491 236.173 193.505 233.552 192.958C232.411 192.72 231.199 192.572 229.929 192.417Z" fill="#99A18E" fill-opacity="0.12"/>
<path fill-rule="evenodd" clip-rule="evenodd" d="M216.634 184.642C216.536 187.102 250.749 174.079 252.466 208.686L216.634 184.642Z" fill="#99A18E" fill-opacity="0.12"/>
<path fill-rule="evenodd" clip-rule="evenodd" d="M215.548 186.847C215.001 186.418 214.496 185.613 214.539 184.535L218.729 184.759C218.766 183.835 218.321 183.153 217.898 182.821C217.727 182.687 217.579 182.621 217.502 182.591C217.42 182.56 217.365 182.549 217.351 182.546C217.347 182.545 217.345 182.545 217.345 182.545C217.345 182.544 217.388 182.551 217.491 182.553C217.609 182.555 217.766 182.551 217.972 182.54C218.552 182.506 219.289 182.425 220.213 182.322C220.68 182.27 221.195 182.213 221.763 182.154C225.017 181.817 229.531 181.479 234.151 182.206C238.77 182.932 243.673 184.75 247.551 188.894C251.473 193.085 254.106 199.399 254.56 208.551L250.372 208.83C249.968 200.68 247.68 195.644 244.707 192.467C241.69 189.242 237.725 187.673 233.587 187.022C229.452 186.371 225.324 186.665 222.137 186.995C221.661 187.045 221.195 187.096 220.748 187.146C219.754 187.256 218.857 187.355 218.178 187.394C217.704 187.421 217.141 187.434 216.651 187.338C216.425 187.294 215.98 187.186 215.548 186.847Z" fill="#99A18E" fill-opacity="0.12"/>
<path fill-rule="evenodd" clip-rule="evenodd" d="M214.331 184.356C213.154 185.208 232.712 214.079 217.385 229.147L214.331 184.356Z" fill="#99A18E" fill-opacity="0.12"/>
<path fill-rule="evenodd" clip-rule="evenodd" d="M213.416 184.541C213.411 184.347 213.437 183.817 213.873 183.501L214.79 185.201C215.152 184.938 215.146 184.515 215.145 184.482C215.144 184.452 215.141 184.435 215.141 184.435C215.142 184.435 215.146 184.459 215.161 184.514C215.214 184.7 215.331 185.004 215.526 185.45C215.785 186.045 216.138 186.795 216.563 187.696C216.769 188.133 216.991 188.606 217.228 189.113C218.662 192.187 220.544 196.401 221.98 201.08C224.831 210.368 226.05 221.938 217.945 229.906L216.826 228.378C224.048 221.278 223.152 210.879 220.35 201.752C218.959 197.222 217.13 193.117 215.707 190.067C215.482 189.586 215.266 189.128 215.063 188.697C214.629 187.775 214.253 186.978 213.981 186.354C213.783 185.9 213.616 185.482 213.519 185.144C213.473 184.983 213.421 184.767 213.416 184.541Z" fill="#99A18E" fill-opacity="0.12"/>
<path fill-rule="evenodd" clip-rule="evenodd" d="M206.42 176.826C207.216 178.144 231.087 154.02 244.865 170.977L206.42 176.826Z" fill="#99A18E" fill-opacity="0.12"/>
<path fill-rule="evenodd" clip-rule="evenodd" d="M206.711 179.007C206.434 179.033 205.512 179.045 204.913 178.054L207.928 175.608C207.378 174.699 206.551 174.744 206.413 174.757C206.286 174.769 206.197 174.797 206.163 174.81C206.164 174.81 206.164 174.81 206.164 174.809C206.249 174.771 206.452 174.657 206.823 174.411C207.309 174.09 207.915 173.657 208.659 173.127C209.027 172.864 209.43 172.577 209.868 172.267C212.454 170.442 216.04 168.01 220.069 166.072C228.003 162.256 238.471 160.002 246.205 169.52L243.525 172.443C237.481 165.003 229.125 166.332 221.48 170.01C217.72 171.819 214.328 174.111 211.783 175.908C211.393 176.184 211.016 176.453 210.659 176.708C209.878 177.264 209.187 177.757 208.649 178.113C208.264 178.368 207.859 178.621 207.5 178.782C207.335 178.857 207.047 178.975 206.711 179.007ZM206.149 174.816C206.149 174.816 206.154 174.813 206.163 174.81C206.153 174.814 206.149 174.816 206.149 174.816Z" fill="#99A18E" fill-opacity="0.12"/>
<path fill-rule="evenodd" clip-rule="evenodd" d="M67.9453 135.929C66.5391 135.929 188.231 143.183 204.325 183.359L67.9453 135.929Z" fill="#99A18E" fill-opacity="0.12"/>
<path fill-rule="evenodd" clip-rule="evenodd" d="M67.8551 132.285L67.9453 132.284V139.575L68.0218 139.574C68.0626 139.572 68.1916 139.563 68.2782 139.554C68.5523 139.504 70.7545 137.543 70.8689 134.62C70.0977 133.285 68.7256 132.402 68.5429 132.354C68.4747 132.339 68.3707 132.321 68.3366 132.315L68.2699 132.306L68.2425 132.303L68.2329 132.302C68.2322 132.302 68.2431 132.303 68.2726 132.306L68.3808 132.314L69.2768 132.383C70.0998 132.447 71.3513 132.545 72.974 132.684C76.2188 132.963 80.9456 133.405 86.7065 134.063C98.2217 135.376 113.896 137.55 130.139 140.992C146.355 144.428 163.266 149.154 177.197 155.614C190.925 161.98 202.604 170.404 207.179 181.824L201.472 184.894C198 176.226 188.432 168.677 174.86 162.383C161.491 156.184 145.049 151.563 129.007 148.164C112.99 144.771 97.4995 142.62 86.09 141.319C80.3884 140.668 75.713 140.23 72.5091 139.955C70.9074 139.818 69.6729 139.721 68.8599 139.658L67.9534 139.589C67.8631 139.582 67.7712 139.574 67.7044 139.568L67.6225 139.559L67.5415 139.548C67.5036 139.542 67.3968 139.523 67.3266 139.508C67.142 139.459 65.7688 138.576 64.9975 137.241C65.1118 134.317 67.3148 132.356 67.5907 132.306C67.6277 132.302 67.6723 132.298 67.715 132.295C67.774 132.29 67.8293 132.286 67.8551 132.285Z" fill="#99A18E" fill-opacity="0.12"/>
<path fill-rule="evenodd" clip-rule="evenodd" d="M67.946 135.927C66.5398 135.927 158.061 146.265 175.914 124.711L67.946 135.927Z" fill="#99A18E" fill-opacity="0.12"/>
<path fill-rule="evenodd" clip-rule="evenodd" d="M67.617 132.298C67.7847 132.278 67.9196 132.279 67.9462 132.279V139.57L67.9484 139.57C67.9713 139.57 68.0946 139.57 68.251 139.552C68.3577 139.537 68.6791 139.466 68.8897 139.398C69.4498 139.118 70.9272 137.035 70.9751 135.009C70.5246 133.864 69.4837 132.756 69.1855 132.584C69.051 132.52 68.8378 132.436 68.762 132.411C68.64 132.373 68.5438 132.352 68.5223 132.347L68.5208 132.347C68.4787 132.338 68.446 132.332 68.4329 132.33C68.439 132.331 68.4498 132.333 68.4661 132.335C68.5647 132.349 68.7562 132.374 69.0494 132.408C69.6266 132.476 70.5297 132.575 71.7203 132.694C74.0994 132.933 77.6045 133.25 81.9103 133.565C90.5259 134.194 102.319 134.808 114.696 134.754C127.094 134.699 139.979 133.973 150.816 131.955C156.234 130.945 161.057 129.628 165.013 127.954C169.008 126.264 171.885 124.309 173.645 122.184L178.184 127.233C175.481 130.497 171.592 132.933 167.171 134.803C162.71 136.69 157.465 138.101 151.814 139.153C140.513 141.259 127.259 141.99 114.72 142.045C102.161 142.1 90.2216 141.477 81.5146 140.841C77.159 140.523 73.6052 140.201 71.1787 139.958C69.9665 139.837 69.0301 139.735 68.4124 139.662C68.1082 139.626 67.8634 139.595 67.6971 139.571L67.6944 139.571C67.6377 139.563 67.5033 139.544 67.3748 139.516L67.3742 139.516C67.344 139.51 67.2379 139.487 67.1076 139.446C67.0289 139.42 66.8135 139.335 66.6775 139.271C66.3777 139.097 65.336 137.989 64.8854 136.843C64.9331 134.817 66.411 132.733 66.9724 132.453C67.1843 132.384 67.5077 132.313 67.617 132.298Z" fill="#99A18E" fill-opacity="0.12"/>
<path fill-rule="evenodd" clip-rule="evenodd" d="M231.458 258.093C230.052 258.093 316.468 263.545 339.426 235.046L231.458 258.093Z" fill="#99A18E" fill-opacity="0.12"/>
<path fill-rule="evenodd" clip-rule="evenodd" d="M231.288 254.458C231.371 254.453 231.439 254.453 231.458 254.453V261.744L231.459 261.744C231.471 261.744 231.528 261.744 231.604 261.74C231.652 261.737 231.792 261.722 231.883 261.709C232.111 261.662 233.37 260.98 234.142 259.971C234.502 257.256 232.748 254.783 232.347 254.609C232.219 254.567 232.026 254.518 231.964 254.505C231.873 254.488 231.803 254.479 231.791 254.477L231.79 254.477C231.76 254.474 231.741 254.472 231.743 254.472C231.745 254.472 231.758 254.473 231.787 254.476C231.887 254.483 232.072 254.496 232.346 254.512C232.889 254.544 233.741 254.588 234.864 254.634C237.11 254.726 240.429 254.827 244.529 254.86C252.732 254.925 264.026 254.717 276.061 253.627C288.113 252.537 300.813 250.57 311.862 247.153C323.017 243.704 332.008 238.918 337.127 232.563L341.727 237.539C335.367 245.434 324.946 250.654 313.485 254.198C301.918 257.774 288.797 259.788 276.551 260.897C264.288 262.007 252.807 262.217 244.485 262.151C240.322 262.117 236.942 262.015 234.641 261.92C233.491 261.873 232.607 261.828 232.028 261.794C231.741 261.777 231.518 261.762 231.371 261.751C231.317 261.747 231.215 261.739 231.123 261.727L231.121 261.727C231.101 261.725 231.023 261.715 230.926 261.696C230.862 261.683 230.667 261.633 230.537 261.592C230.135 261.416 228.381 258.944 228.741 256.228C229.513 255.219 230.773 254.537 231.002 254.489C231.095 254.476 231.237 254.461 231.288 254.458Z" fill="#99A18E" fill-opacity="0.12"/>
<path fill-rule="evenodd" clip-rule="evenodd" d="M-0.0137138 39.4512C-1.41941 39.4512 17.5049 55.7165 55.3523 72.4761L-0.0137138 39.4512Z" fill="#99A18E" fill-opacity="0.12"/>
<path fill-rule="evenodd" clip-rule="evenodd" d="M-1.61275 36.2885C-0.93119 35.8424 -0.294655 35.8053 -0.0145226 35.8053V43.0965C0.221684 43.0965 0.824219 43.0673 1.48169 42.637C2.29673 42.1035 2.87154 41.1616 3.02075 40.0667C3.1412 39.1829 2.94369 38.5046 2.85608 38.242C2.75271 37.9321 2.63539 37.7165 2.58047 37.6206C2.49782 37.4765 2.42773 37.3835 2.40386 37.3534C2.41888 37.3711 2.45406 37.411 2.51569 37.4754C2.83877 37.8131 3.49586 38.4191 4.54459 39.2835C6.60917 40.9851 9.93488 43.4781 14.5118 46.5149C23.656 52.5819 37.7017 60.7575 56.4746 69.0705L54.2285 75.8813C35.1541 67.4348 20.8139 59.0979 11.3854 52.8423C6.67603 49.7177 3.16875 47.0969 0.897636 45.225C-0.221493 44.3026 -1.10793 43.5069 -1.69855 42.8896C-1.93578 42.6417 -2.35139 42.1946 -2.66085 41.6547C-2.75109 41.4972 -2.89384 41.2274 -3.01274 40.871C-3.11589 40.5618 -3.31904 39.8445 -3.19432 38.9294C-3.04086 37.8032 -2.45187 36.8377 -1.61275 36.2885ZM2.39513 37.3428C2.39524 37.3428 2.3983 37.3464 2.40386 37.3534C2.39779 37.3463 2.39501 37.3428 2.39513 37.3428Z" fill="#99A18E" fill-opacity="0.12"/>
</svg>
